<?xml version="1.0" encoding="utf-8"?>
<!-- Generator: Adobe Illustrator 21.1.0, SVG Export Plug-In . SVG Version: 6.00 Build 0)  -->
<svg version="1.1" id="do_not_touch" xmlns="http://www.w3.org/2000/svg" xmlns:xlink="http://www.w3.org/1999/xlink" x="0px"
	 y="0px" viewBox="0 0 3300 2550" style="enable-background:new 0 0 3300 2550;" xml:space="preserve">
<style type="text/css">
	.st0{fill:none;stroke:#303030;stroke-width:0.463;}
	.st1{fill:#7723D7;}
	.st2{font-family:'SourceSansPro-Bold';}
	.st3{font-size:41.6663px;}
	.st4{fill:#6E6D70;}
	.st5{opacity:0.37;}
	.st6{fill:none;}
	.st7{fill:#A73036;}
	.st8{fill:#FFA15C;}
	.st9{fill:#3A8653;}
	.st10{fill:#335A9B;}
	.st11{font-size:29.1664px;}
	.st12{fill:#303030;}
	.st13{font-family:'SourceSansPro-Semibold';}
	.st14{font-size:24px;}
	.st15{fill:#FFFFFF;}
	.st16{font-size:66.667px;}
	.st17{fill:#525054;}
	.st18{font-size:75.0003px;}
	.st19{fill:#FFFFFF;stroke:#000000;}
	.st20{font-size:66.6574px;}
	.st21{font-size:71.352px;}
	.st22{fill:none;stroke:#000000;stroke-width:2;stroke-dasharray:5,5;}
	.st23{fill:#19A2C4;}
	.st24{fill:#FEFEFE;}
	.st25{fill:none;stroke:#000000;stroke-width:15;stroke-miterlimit:10;}
</style>
<path class="st0" d="M763.6,799.2h1631v1495.5h-1631L763.6,799.2L763.6,799.2z"/>
<text transform="matrix(0.999 0 0 1 2425.4639 1913.1953)" class="st1 st2 st3">Laboratory for </text>
<text transform="matrix(0.999 0 0 1 2425.4639 1956.1953)" class="st1 st2 st3">Telecommunications Sciences</text>
<text id="Northrop_Grumman" transform="matrix(0.999 0 0 1 2428.4395 2050.3711)" class="st1 st2 st3">Northrop Grumman</text>
<text id="Snack_Table" transform="matrix(0.999 0 0 1 2426.457 1544.4978)" class="st4 st2 st3">Snack Table</text>
<text id="Ilumina_AWAKENS" transform="matrix(0.999 0 0 1 2426.457 1701.4287)" class="st1 st2 st3">Ilumina &amp; AWAKENS</text>
<text id="Qualcomm_Institute" transform="matrix(0.999 0 0 1 2426.457 1818.7686)" class="st1 st2 st3">Qualcomm Institute</text>
<g id="middle" class="st5">
	
		<image style="overflow:visible;enable-background:new    ;" width="1104" height="836" xlink:href="3719219113FD38A6.png"  transform="matrix(1 0 0 1 1031 1131)">
	</image>
	<path class="st6" d="M0,0"/>
	
		<image style="overflow:visible;enable-background:new    ;" width="921" height="193" xlink:href="3719219113FD38A7.png"  transform="matrix(1 0 0 1 1094 865)">
	</image>
	<path class="st6" d="M0,0"/>
</g>
<g id="VR_Space">
	<path id="Rectangle_2_copy_7" class="st7" d="M1194.4,878.6H1995V956h-800.6V878.6z"/>
	<path id="Rectangle_2_copy_18" class="st7" d="M1223.2,963h19.8v56.6h-19.8V963z M1306.6,963h19.8v56.6h-19.8V963z M1387,963h19.8
		v56.6H1387V963z M1470.3,963h19.8v56.6h-19.8V963z M1542.7,963h19.8v56.6h-19.8V963z M1626,963h19.8v56.6H1626V963z M1706.4,963
		h19.8v56.6h-19.8V963z M1866.1,963h19.8v56.6h-19.8V963z M1946.5,963h19.8v56.6h-19.7L1946.5,963L1946.5,963z M1789.8,963h19.8
		v56.6h-19.8V963z"/>
	<path id="Rectangle_2_copy_15" class="st7" d="M1121.1,914.1h48.6v25.8h-48.6V914.1z"/>
</g>
<g id="Plat_Sponsors">
	<path id="Rectangle_3_copy_8" class="st8" d="M824.8,1104l17.2,17.4l-16.5,16.4l-17.2-17.3L824.8,1104z"/>
	<path id="Rectangle_3_copy_9" class="st8" d="M824.8,1050.4l17.2,17.4l-16.5,16.4l-17.2-17.3L824.8,1050.4z"/>
	<path id="Rectangle_3_copy_8-2" class="st8" d="M884.8,1045.3h19.8v95.4h-19.8V1045.3z"/>
</g>
<g id="Plat_Sponsors_copy">
	<path id="Rectangle_3_copy_8-3" class="st8" d="M2337.5,1083.2l-17.2-17.4l16.5-16.4l17.2,17.3L2337.5,1083.2z"/>
	<circle class="st8" cx="2350.5" cy="1094.5" r="13.5"/>
	<circle id="Ellipse_1_copy" class="st8" cx="810.5" cy="1094.5" r="13.5"/>
	<path id="Rectangle_3_copy_9-2" class="st8" d="M2337.5,1136.8l-17.2-17.4l16.5-16.4l17.2,17.4L2337.5,1136.8z"/>
	<path id="Rectangle_3_copy_8-4" class="st8" d="M2257.7,1046.3h20.1v95.5h-20.1V1046.3z"/>
</g>
<g id="Bottom_Half_Items">
	<g id="Lab_and_Photobooth">
		<rect id="Rectangle_2_copy_3" x="1938.2" y="2082.3" class="st9" width="51.6" height="18.8"/>
		<path id="Rectangle_2_copy_5" class="st9" d="M1091.1,2073.2h18.8v92.4h-18.8V2073.2z"/>
		<path id="Rectangle_2_copy_6" class="st9" d="M1319.1,2075.2h19.1v92.4h-19.1V2075.2z"/>
		<path id="Rectangle_2_copy_8" class="st9" d="M1119.9,2168.7h189.5v18.8h-189.5V2168.7z"/>
		<path id="Rectangle_2_copy_4" class="st9" d="M2068.1,2082.3h51.9v49.6h-51.9V2082.3z"/>
		<path id="Rectangle_2_copy_23" class="st9" d="M137.8,561.7h376v366.7h-376L137.8,561.7L137.8,561.7z"/>
	</g>
	<path class="st10" d="M1506.6,2050.5h160.7v127.9h-160.7V2050.5z"/>
</g>
<g id="Snacks">
	<text transform="matrix(0.999 0 0 1 1553.2793 1381.2227)" class="st2 st11">Help</text>
	<text transform="matrix(0.999 0 0 1 1551.9248 1416.2227)" class="st2 st11">Desk</text>
	
		<image style="overflow:visible;enable-background:new    ;" width="22" height="66" xlink:href="3719219113FD38A8.png"  transform="matrix(1 0 0 0.9848 859 2010)">
	</image>
	<path class="st6" d="M0,0"/>
	
		<image style="overflow:visible;enable-background:new    ;" width="22" height="65" xlink:href="3719219113FD38A9.png"  transform="matrix(1 0 0 0.9846 859 1914)">
	</image>
	<path class="st6" d="M0,0"/>
	
		<image style="overflow:visible;enable-background:new    ;" width="22" height="55" xlink:href="3719219113FD38AA.png"  transform="matrix(1 0 0 0.9818 859 1817)">
	</image>
	<path class="st6" d="M0,0"/>
	
		<image style="overflow:visible;enable-background:new    ;" width="22" height="54" xlink:href="3719219113FD38AF.png"  transform="matrix(1 0 0 0.9815 859 1721)">
	</image>
	<path class="st6" d="M0,0"/>
	
		<image style="overflow:visible;enable-background:new    ;" width="22" height="66" xlink:href="3719219113FD38A4.png"  transform="matrix(1 0 0 0.9848 859 1624.7819)">
	</image>
	<path class="st6" d="M0,0"/>
	
		<image style="overflow:visible;enable-background:new    ;" width="22" height="108" xlink:href="3719219113FD38A5.png"  transform="matrix(1 0 0 0.9907 859 1482.5522)">
	</image>
	<path class="st6" d="M0,0"/>
	
		<image style="overflow:visible;enable-background:new    ;" width="85" height="79" xlink:href="3719219113FD38A2.png"  transform="matrix(1 0 0 1 905 645)">
	</image>
	<path class="st6" d="M0,0"/>
	
		<image style="overflow:visible;enable-background:new    ;" width="22" height="108" xlink:href="F6A1D9F7E3992B96.png"  transform="matrix(1 0 0 0.9907 2284 1481)">
	</image>
	<path class="st6" d="M0,0"/>
	
		<image style="overflow:visible;enable-background:new    ;" width="22" height="65" xlink:href="F6A1D9F7E3992B95.png"  transform="matrix(1 0 0 0.9846 859 1378)">
	</image>
	<path class="st6" d="M0,0"/>
	
		<image style="overflow:visible;enable-background:new    ;" width="22" height="66" xlink:href="F6A1D9F7E3992BB8.png"  transform="matrix(1 0 0 0.9848 859 1281)">
	</image>
	<path class="st6" d="M0,0"/>
	
		<image style="overflow:visible;enable-background:new    ;" width="22" height="65" xlink:href="F6A1D9F7E3992BA0.png"  transform="matrix(1 0 0 0.9846 859 1185)">
	</image>
	<path class="st6" d="M0,0"/>
</g>
<g id="Snacks_copy">
	
		<image style="overflow:visible;enable-background:new    ;" width="22" height="65" xlink:href="F6A1D9F7E3992BAA.png"  transform="matrix(1 0 0 0.9846 2284 2000)">
	</image>
	<path class="st6" d="M0,0"/>
	
		<image style="overflow:visible;enable-background:new    ;" width="22" height="65" xlink:href="F6A1D9F7E3992BAB.png"  transform="matrix(1 0 0 0.9846 2284 1884.2004)">
	</image>
	<path class="st6" d="M0,0"/>
	
		<image style="overflow:visible;enable-background:new    ;" width="22" height="65" xlink:href="F6A1D9F7E3992BAE.png"  transform="matrix(1 0 0 0.9846 2284 1770.3306)">
	</image>
	<path class="st6" d="M0,0"/>
	
		<image style="overflow:visible;enable-background:new    ;" width="22" height="65" xlink:href="F6A1D9F7E3992BAF.png"  transform="matrix(1 0 0 0.9846 2284 1653.601)">
	</image>
	<path class="st6" d="M0,0"/>
	<path class="st6" d="M0,0"/>
	
		<image style="overflow:visible;enable-background:new    ;" width="22" height="65" xlink:href="F6A1D9F7E3992BA9.png"  transform="matrix(1 0 0 0.9846 2284 1378)">
	</image>
	<path class="st6" d="M0,0"/>
	
		<image style="overflow:visible;enable-background:new    ;" width="22" height="66" xlink:href="F6A1D9F7E3992B93.png"  transform="matrix(1 0 0 0.9848 2284 1281)">
	</image>
	<path class="st6" d="M0,0"/>
	
		<image style="overflow:visible;enable-background:new    ;" width="22" height="65" xlink:href="F6A1D9F7E3992B94.png"  transform="matrix(1 0 0 0.9846 2284 1185)">
	</image>
	<path class="st6" d="M0,0"/>
</g>
<g id="Hacker_tables">
	<g id="new_tables">
		<g id="bottom_hacking">
			<g id="hacking">
				<path id="this" class="st10" d="M1080,1726.6h29.8v188.9H1080V1726.6z"/>
				<path id="this_copy" class="st10" d="M1151.7,1726.6h29.8v188.9h-29.8V1726.6z"/>
				<path id="this_copy_2" class="st10" d="M1218,1726.6h29.8v188.9H1218V1726.6z"/>
			</g>
		</g>
		<g id="bottom_hacking_copy_3">
			<g id="hacking-2">
				<path id="this-2" class="st10" d="M1287.6,1727.6h29.8v188.6h-29.8V1727.6z"/>
				<path id="this_copy-2" class="st10" d="M1358.9,1727.6h29.8v188.6h-29.8V1727.6z"/>
				<path id="this_copy_2-2" class="st10" d="M1425.2,1727.6h29.8v188.6h-29.8V1727.6z"/>
			</g>
		</g>
		<g id="bottom_hacking_copy_4">
			<g id="hacking-3">
				<path id="this-3" class="st10" d="M1500.9,1727.6h29.8v188.6h-29.8V1727.6z"/>
				<path id="this_copy-3" class="st10" d="M1572.2,1727.6h29.8v188.6h-29.8V1727.6z"/>
				<path id="this_copy_2-3" class="st10" d="M1638.9,1727.6h29.5v188.6h-29.5V1727.6z"/>
			</g>
		</g>
		<g id="bottom_hacking_copy_5">
			<g id="hacking-4">
				<path id="this-4" class="st10" d="M1712.2,1726.6h29.8v188.9h-29.8V1726.6z"/>
				<path id="this_copy-4" class="st10" d="M1783.5,1726.6h29.8v188.9h-29.8V1726.6z"/>
				<path id="this_copy_2-4" class="st10" d="M1850.2,1726.6h29.8v188.9h-29.8V1726.6z"/>
			</g>
		</g>
		<g id="bottom_hacking_copy_6">
			<g id="hacking-5">
				<path id="this-5" class="st10" d="M1926.5,1726.6h29.8v188.9h-29.8V1726.6z"/>
				<path id="this_copy-5" class="st10" d="M1997.8,1726.6h29.8v188.9h-29.8V1726.6z"/>
				<path id="this_copy_2-5" class="st10" d="M2064.4,1726.6h29.8v188.9h-29.8V1726.6z"/>
			</g>
		</g>
	</g>
	<g id="new_tables_copy">
		<g id="bottom_hacking-2">
			<g id="hacking-6">
				<path id="this-6" class="st10" d="M1077,1441.6h29.8v188.9H1077V1441.6z"/>
				<path id="this_copy-6" class="st10" d="M1148.7,1441.6h29.8v188.9h-29.8V1441.6z"/>
				<path id="this_copy_2-6" class="st10" d="M1214.9,1441.6h29.8v188.9h-29.8V1441.6z"/>
			</g>
		</g>
		<g id="bottom_hacking_copy_3-2">
			<g id="hacking-7">
				<path id="this-7" class="st10" d="M1284.6,1442.6h29.8v188.9h-29.8V1442.6z"/>
				<path id="this_copy-7" class="st10" d="M1355.9,1442.6h29.8v188.9h-29.8V1442.6z"/>
				<path id="this_copy_2-7" class="st10" d="M1422.6,1442.6h29.5v188.9h-29.5V1442.6z"/>
			</g>
		</g>
		<g id="bottom_hacking_copy_4-2">
			<g id="hacking-8">
				<path id="this-8" class="st10" d="M1497.9,1442.6h29.8v188.9h-29.8V1442.6z"/>
				<path id="this_copy-8" class="st10" d="M1569.2,1442.6h29.8v188.9h-29.8V1442.6z"/>
				<path id="this_copy_2-8" class="st10" d="M1635.8,1442.6h29.8v188.9h-29.8V1442.6z"/>
			</g>
		</g>
		<g id="bottom_hacking_copy_5-2">
			<g id="hacking-9">
				<path id="this-9" class="st10" d="M1709.2,1441.6h29.8v188.9h-29.8V1441.6z"/>
				<path id="this_copy-9" class="st10" d="M1780.5,1441.6h29.8v188.9h-29.8V1441.6z"/>
				<path id="this_copy_2-9" class="st10" d="M1847.1,1441.6h29.8v188.9h-29.8V1441.6z"/>
			</g>
		</g>
		<g id="bottom_hacking_copy_6-2">
			<g id="hacking-10">
				<path id="this-10" class="st10" d="M1923.5,1441.6h29.8v188.9h-29.8V1441.6z"/>
				<path id="this_copy-10" class="st10" d="M1994.8,1441.6h29.8v188.9h-29.8V1441.6z"/>
				<path id="this_copy_2-10" class="st10" d="M2061.4,1441.6h29.8v188.9h-29.8V1441.6z"/>
			</g>
		</g>
	</g>
	<g id="new_tables_copy_2">
		<g id="bottom_hacking-3">
			<g id="hacking-11">
				<path id="this-11" class="st10" d="M1080,1173.6h29.8v188.6H1080V1173.6z"/>
				<path id="this_copy-11" class="st10" d="M1151.7,1173.6h29.8v188.6h-29.8V1173.6z"/>
				<path id="this_copy_2-11" class="st10" d="M1218,1173.6h29.8v188.6H1218V1173.6z"/>
			</g>
		</g>
		<g id="bottom_hacking_copy_3-3">
			<g id="hacking-12">
				<path id="this-12" class="st10" d="M1287.6,1174.6h29.8v188.6h-29.8V1174.6z"/>
				<path id="this_copy-12" class="st10" d="M1358.9,1174.6h29.8v188.6h-29.8V1174.6z"/>
				<path id="this_copy_2-12" class="st10" d="M1425.2,1174.6h29.8v188.6h-29.8V1174.6z"/>
			</g>
		</g>
		<g id="bottom_hacking_copy_4-3">
			<g id="hacking-13">
				<path id="this-13" class="st10" d="M1500.9,1174.6h29.8v188.6h-29.8V1174.6z"/>
				<path id="this_copy-13" class="st10" d="M1572.2,1174.6h29.8v94.1h-29.8V1174.6z"/>
				<path id="this_copy_3" class="st10" d="M1558.5,1307.6h51.6v29.8h-51.6V1307.6z"/>
				<path id="this_copy_2-13" class="st10" d="M1638.9,1174.6h29.5v188.6h-29.5V1174.6z"/>
			</g>
		</g>
		<g id="bottom_hacking_copy_5-3">
			<g id="hacking-14">
				<path id="this-14" class="st10" d="M1712.2,1173.6h29.8v188.6h-29.8V1173.6z"/>
				<path id="this_copy-14" class="st10" d="M1783.5,1173.6h29.8v188.6h-29.8V1173.6z"/>
				<path id="this_copy_2-14" class="st10" d="M1850.2,1173.6h29.8v188.6h-29.8V1173.6z"/>
			</g>
		</g>
		<g id="bottom_hacking_copy_6-3">
			<g id="hacking-15">
				<path id="this-15" class="st10" d="M1926.5,1173.6h29.8v188.6h-29.8V1173.6z"/>
				<path id="this_copy-15" class="st10" d="M1997.8,1173.6h29.8v188.6h-29.8V1173.6z"/>
				<path id="this_copy_2-15" class="st10" d="M2064.4,1173.6h29.8v188.6h-29.8V1173.6z"/>
			</g>
		</g>
	</g>
	<g id="NUmbers">
		<text transform="matrix(0.999 0 0 1 1049.2021 1204.2207)" class="st12 st13 st14">1</text>
		<text transform="matrix(0.999 0 0 1 1047.6475 1251.1221)" class="st12 st13 st14">2</text>
		<text transform="matrix(0.999 0 0 1 1048.1484 1298.0234)" class="st12 st13 st14">3</text>
		<text transform="matrix(0.999 0 0 1 1047.751 1344.9248)" class="st12 st13 st14">4</text>
		<text transform="matrix(0.999 0 0 1 1049.2021 1474.2207)" class="st12 st13 st14">5</text>
		<text transform="matrix(0.999 0 0 1 1047.6475 1521.1221)" class="st12 st13 st14">6</text>
		<text transform="matrix(0.999 0 0 1 1048.1484 1568.0234)" class="st12 st13 st14">7</text>
		<text transform="matrix(0.999 0 0 1 1047.751 1614.9248)" class="st12 st13 st14">8</text>
		<text transform="matrix(0.999 0 0 1 1049.2021 1758.4287)" class="st12 st13 st14">9</text>
		<text transform="matrix(0.999 0 0 1 1041.498 1805.3301)" class="st12 st13 st14">10</text>
		<text transform="matrix(0.999 0 0 1 1041.999 1852.2314)" class="st12 st13 st14">11</text>
		<text transform="matrix(0.999 0 0 1 1041.6016 1899.1328)" class="st12 st13 st14">12</text>
	</g>
</g>
<g id="LEGEND">
	<text id="Qualcomm" transform="matrix(0.999 0 0 1 2425.4639 1323.4951)" class="st1 st2 st3">Qualcomm</text>
	<text id="Webroot" transform="matrix(0.999 0 0 1 2425.4639 1422.7949)" class="st1 st2 st3">Webroot</text>
	<text id="USMC_Nexlog" transform="matrix(0.999 0 0 1 508.8398 1764.4292)" class="st1 st2 st3">Leidos</text>
	<text id="DIVR_Edu" transform="matrix(0.999 0 0 1 2424.4697 1223.2012)" class="st1 st2 st3">DIVR Edu</text>
	<text transform="matrix(0.999 0 0 1 2428.4395 1108.0127)" class="st8 st2 st3">SPAWAR</text>
	<text id="ViaSat" transform="matrix(0.999 0 0 1 506.8574 1107.0205)" class="st8 st2 st3">ViaSat</text>
	<text transform="matrix(0.999 0 0 1 222.3999 747.5547)" class="st15 st2 st3">Green Room</text>
	<text id="Hacking_Space" transform="matrix(0.999 0 0 1 1030.4707 1117.9141)" class="st12 st2 st3">Hacking Space</text>
	<text id="Maker_Space" transform="matrix(0.999 0 0 1 1100.4355 2237.0537)" class="st12 st2 st3">Maker Space</text>
	<text id="Stage" transform="matrix(0.999 0 0 1 1539.1084 2236.8057)" class="st12 st2 st3">Stage</text>
	<text transform="matrix(0.999 0 0 1 1898.2715 2201.0605)" class="st12 st2 st3">Hardware Lab</text>
	<text transform="matrix(0.999 0 0 1 1879.124 2251.0605)" class="st12 st2 st3">and Photobooth</text>
	<text id="VR_Space-2" transform="matrix(0.999 0 0 1 1096.1582 850.666)" class="st12 st2 st3">VR Space</text>
	<text id="Lobby" transform="matrix(0.999 0 0 1 635.1709 735.5244)" class="st12 st2 st3">Lobby</text>
	<text transform="matrix(0.999 0 0 1 136.1709 233.5254)" class="st12 st2 st16">Dugout  </text>
	<text transform="matrix(0.999 0 0 1 136.1709 313.5254)" class="st12 st2 st16">Conference  </text>
	<text transform="matrix(0.999 0 0 1 136.1709 393.5254)" class="st12 st2 st16">Room</text>
	<text id="E8_Security" transform="matrix(0.999 0 0 1 508.8398 1234.125)" class="st1 st2 st3">E8 Security</text>
	<text id="AT_T" transform="matrix(0.999 0 0 1 506.8574 1325.4795)" class="st1 st2 st3">AT&amp;T</text>
	<text id="a16z" transform="matrix(0.999 0 0 1 508.8398 1430.7383)" class="st1 st2 st3">a16z</text>
	<text id="DocuSign" transform="matrix(0.999 0 0 1 506.8574 1670.0645)" class="st1 st2 st3">DocuSign</text>
	<text id="Snack_Table-2" transform="matrix(0.999 0 0 1 506.8574 1549)" class="st17 st2 st3">Snack Table</text>
	<text id="Twilio" transform="matrix(0.999 0 0 1 506.8574 1959.7148)" class="st1 st2 st3">Twilio</text>
	<text id="Amazon" transform="matrix(0.999 0 0 1 506.8574 1857.0273)" class="st1 st2 st3">Amazon</text>
	<text id="Leidos" transform="matrix(0.999 0 0 1 506.8574 2054.3408)" class="st1 st2 st3">USMC Nexlog</text>
</g>
<rect x="762.6" y="798" class="st15" width="136" height="130"/>
<text transform="matrix(0.999 0 0 1 1981.416 508.6455)" class="st12 st2 st18">RIMAC Arena</text>
<path class="st19" d="M2405,538v1.5L140,541v-1.5L2405,538z"/>
<path class="st19" d="M0,0"/>
<path class="st19" d="M0,0"/>
<text id="To_Hopkins_Parking_Structure" transform="matrix(0 1.001 -1 0 3120.8086 1198.6758)" class="st12 st2 st20">To Hopkins Parking Structure</text>
<path class="st12" d="M0,0"/>
<text transform="matrix(1.001 0 0 1 229.916 1524.8965)" class="st12 st2 st21">N</text>
<path class="st12" d="M0,0"/>
<rect x="589" y="490" class="st12" width="211" height="96"/>
<text id="Check-In" transform="matrix(0.999 0 0 1 612.1699 549.5244)" class="st15 st2 st3">Check-In</text>
<path d="M258.1,1563.6l33.3,97.3c0.6,1.8,0.3,3.3-1.1,4.7c-0.2,0.2-0.5,0.4-0.9,0.7c-0.9,0.6-1.9,0.8-2.9,0.7c-1-0.1-2-0.6-2.7-1.3
	l-29.5-29l-29,29.5c-0.7,0.8-1.6,1.2-2.7,1.3c-1,0.1-2-0.1-3-0.6c-0.9-0.6-1.6-1.3-1.9-2.3c-0.4-1-0.4-2-0.1-3l31.7-97.8
	c0.2-0.7,0.6-1.3,1.1-1.8c0.9-0.9,2-1.4,3.2-1.3c1,0,1.9,0.2,2.7,0.8C257.2,1561.9,257.8,1562.6,258.1,1563.6z"/>
<path d="M684.6,266.5l-58.3-58.3h28.1c2.4,0,4.4-0.9,6-2.4c3-3,3.6-8.5,0-12.2c-1.6-1.6-3.6-2.4-6-2.4H606c-2,0-4.2,0.2-6.5,2.4
	s-2.4,4.1-2.4,6.4v48.4c0,2.3,0.8,4.3,2.4,6c3.6,3.6,9.2,3,12.2,0c1.6-1.6,2.4-3.6,2.4-6v-28.1l58.3,58.3c3.4,3.4,8.8,3.4,12.2,0
	C688,275.3,688,269.8,684.6,266.5z"/>
<path d="M3129.1,2120.6v80.3l-19.3-19.3c-1.6-1.6-3.6-2.4-5.8-2.4c-4.1,0-8.4,3.4-8.4,8.4c0,2.2,0.8,4.2,2.4,5.8l33.3,33.3
	c1.4,1.4,3.1,2.8,6.1,2.8s4.5-1.2,6-2.7l33.3-33.3c1.6-1.6,2.4-3.5,2.4-5.8c0-5-4.2-8.4-8.4-8.4c-2.2,0-4.1,0.8-5.8,2.4l-19.3,19.3
	v-80.3c0-4.6-3.7-8.4-8.4-8.4S3129.1,2116,3129.1,2120.6z"/>
<line class="st22" x1="762.6" y1="928" x2="898.6" y2="798"/>
<g id="VR_Numbers_1_">
	<text transform="matrix(1 0 0 1 1226.1699 1045.4141)" class="st13 st14">1</text>
	<text transform="matrix(1 0 0 1 1311.2543 1045.4141)" class="st13 st14">2</text>
	<text transform="matrix(1 0 0 1 1474.2739 1045.4141)" class="st13 st14">4</text>
	<text transform="matrix(1 0 0 1 1391.4359 1045.4141)" class="st13 st14">3</text>
	<text transform="matrix(1 0 0 1 1545.769 1045.4139)" class="st13 st14">5</text>
	<text transform="matrix(1 0 0 1 1629.6353 1045.4139)" class="st13 st14">6</text>
	<text transform="matrix(1 0 0 1 1709.3613 1045.4139)" class="st13 st14">7</text>
	<text transform="matrix(1 0 0 1 1793.7213 1045.4138)" class="st13 st14">8</text>
	<text transform="matrix(1 0 0 1 1869.5659 1045.4138)" class="st13 st14">9</text>
	<text transform="matrix(1 0 0 1 1944.2705 1045.4139)" class="st13 st14">10</text>
</g>
<g id="Grid_Letters">
	<text transform="matrix(1 0 0 1 1088.2159 1169.3918)" class="st13 st14">A</text>
	<text transform="matrix(1 0 0 1 1159.4065 1169.3921)" class="st13 st14">B</text>
	<text transform="matrix(1 0 0 1 1292.0001 1169.3922)" class="st13 st14">D</text>
	<text transform="matrix(1 0 0 1 1222.938 1169.3918)" class="st13 st14">C</text>
	<text transform="matrix(1 0 0 1 1364.3641 1169.3918)" class="st13 st14">E</text>
	<text transform="matrix(1 0 0 1 1434.0151 1169.3923)" class="st13 st14">F</text>
	<text transform="matrix(1 0 0 1 1508.2742 1169.3925)" class="st13 st14">G</text>
	<text transform="matrix(1 0 0 1 1579.1743 1169.3926)" class="st13 st14">H</text>
	<text transform="matrix(1 0 0 1 1650.2113 1169.3925)" class="st13 st14">I</text>
	<text transform="matrix(1 0 0 1 1721.1726 1169.3927)" class="st13 st14">J</text>
	<text transform="matrix(1 0 0 1 1792.7128 1168.5)" class="st13 st14">K</text>
	<text transform="matrix(1 0 0 1 1859.0261 1169.3928)" class="st13 st14">L</text>
	<text transform="matrix(1 0 0 1 1932.4602 1169.3927)" class="st13 st14">M</text>
	<text transform="matrix(1 0 0 1 2004.8481 1169.3926)" class="st13 st14">N</text>
</g>
<text transform="matrix(1 0 0 1 2071.2617 1169.3928)" class="st13 st14">O</text>
<g>
	<path class="st23" d="M3179.2,334.1c0,15.4,0.2,30.9,0,46.3c-0.3,18-7.9,32.5-23.1,42c-17,10.6-34.6,20.2-51.9,30.3
		c-10.1,5.8-20.1,11.8-30.3,17.5c-15.9,8.8-32.3,9.2-48.3,0.5c-17.2-9.4-34.1-19.5-51.1-29.4c-10.4-6-20.9-11.8-31.1-18
		c-15.7-9.6-24.1-24-24.3-42.3c-0.4-30.7-0.2-61.4-0.1-92.1c0.1-19.3,8.4-34.4,25.1-44.3c27-15.9,54.1-31.6,81.3-47
		c14.9-8.4,30.6-8.3,45.7-0.8c11.1,5.5,21.5,12.2,32.2,18.4c17.2,9.9,34.5,19.6,51.4,29.7c15.8,9.5,23.8,23.9,24.3,42.3
		C3179.5,302.8,3179.2,318.4,3179.2,334.1z M3053.9,283.5c0,6.5,0,13,0,19.4c0,1.5,0.4,2.1,2,2c5.8-0.1,11.7-0.1,17.5,0
		c1.9,0,2.2-0.7,2.2-2.3c-0.1-5,0-9.9-0.1-14.9c0-1.5,0.3-2.1,1.9-2.1c4.9,0.1,9.8,0,14.6,0c7.5,0,13.2,3.4,17.1,9.7
		c6,9.7,7.2,20.1,4.5,31.1c-2.3,9.4-8.1,15.2-17.6,17.1c-3.6,0.7-7.3,1-10.9,1c-9.6,0.1-19.2,0.1-28.8,0c-1.9,0-2.4,0.6-2.4,2.4
		c0.1,6.3,0.1,12.6,0,19c0,1.6,0.3,2.2,2.1,2.2c8.1-0.1,16.2,0.2,24.2,0c7.2-0.2,14.4-0.3,21.5-1.5c18-3,30.2-13.4,35.8-31
		c3.3-10.4,3.6-21,2.4-31.7c-2.1-18.2-17.8-41.3-45.2-41.8c-12.9-0.3-25.7-0.2-38.6-0.3c-1.7,0-2.2,0.5-2.2,2.2
		C3054,270.5,3053.9,277,3053.9,283.5z M3046.6,262.3c-14.5,0-28.3,0-42,0c-0.6,0-1.1,0-1.7,0c-1,0.1-2.1,0.2-3.1,0.5
		c-7.1,2.1-13.7,5.1-19.4,10c-13.4,11.5-12.6,32.1,1.8,42c3.5,2.4,7.4,4.1,11.2,5.9c6.2,3,12.6,5.8,18.8,9c1.6,0.9,3.2,2.8,3.7,4.6
		c1.6,5.7-2.2,10.8-8.1,11c-6.9,0.3-13.9,0.2-20.9,0.1c-1.9,0-3.3,0.6-4.6,2.1c-5.3,6.4-10.6,12.8-15.9,19.2
		c-0.3,0.4-0.5,0.9-0.9,1.5c14.1,0,27.8,0,41.6,0c2.1,0,4.1-0.2,6.2-0.4c15.2-1.4,26.1-10.8,28.8-25.4c2.1-11.8-0.7-21.9-11.1-29
		c-3.2-2.2-6.6-4.3-10-6.1c-6.6-3.5-13.5-6.6-20.1-10.1c-3.9-2-4.7-5.2-2.5-9c1.8-3,4.4-4.9,8-4.9c6.2-0.1,12.3-0.1,18.5-0.1
		c1.9,0,3.3-0.6,4.6-2c2.5-2.8,5.1-5.5,7.6-8.3C3040.1,269.5,3043.1,266.1,3046.6,262.3z M2973.2,393.9L2973.2,393.9
		c0,4.2-0.1,8.3,0,12.5c0.1,3.5,2.5,6.3,5.6,6.9c1.3,0.3,2.1,0,2-1.6c-0.1-3.1,0-6.2-0.1-9.3c0-1.3,0.4-1.7,1.7-1.6
		c3.2,0.1,6.4,0.1,9.6,0c1.5,0,2,0.4,1.9,1.9c-0.1,3,0.1,5.9-0.1,8.9c-0.1,2.1,0.8,2.3,2.4,1.7c3.3-1.1,5-3.6,5.1-6.9
		c0.2-8.3,0.1-16.6,0.1-24.9c0-1.3-0.6-1.6-1.8-1.3c-3,0.7-5.4,3.4-5.7,6.6c-0.2,2.1,0.4,5.1-0.8,6c-1.3,1.1-4.1,0.3-6.3,0.3
		c-0.2,0-0.3,0-0.5,0c-1.8-0.1-4.1,0.4-5.3-0.5c-0.9-0.8-0.4-3.3-0.4-5c-0.2-3.8-2.1-6.4-5.4-7.3c-1.6-0.5-2.1-0.1-2.1,1.6
		C2973.3,385.8,2973.2,389.9,2973.2,393.9z M3108.7,406.2c-2.5,0-5,0.1-7.4,0c-1.2,0-1.5,0.4-1.3,1.6c0.6,2.9,2.9,5.5,6,5.7
		c4.1,0.3,8.3,0.3,12.4,0c4.9-0.4,8.6-5,8.6-10c0-5.1-3.7-9.6-8.7-10.2c-2.3-0.3-4.6-0.2-6.9-0.2c-2.9-0.1-4.1-0.9-4.1-2.9
		c0-1.9,1.2-2.7,3.9-2.8c1.9,0,3.8,0.1,5.8,0c3.2-0.1,6.3-2.7,6.8-5.4c0.2-1.2,0.2-2.1-1.6-2.1c-4.2,0.1-8.5-0.1-12.7,0.1
		c-5.9,0.3-10,4.9-9.8,10.8c0.2,5.5,4.6,9.7,10.4,9.7c1.9,0,3.8,0,5.8,0c1.9,0,3.3,0.7,3.5,2.8c0.2,1.8-1.2,2.9-3.6,3
		C3113.5,406.2,3111.1,406.2,3108.7,406.2z M3069,392.4C3069.1,392.4,3069,392.4,3069,392.4c0,4.7,0.1,9.4,0.1,14.1
		c0,3.5,2.4,6.3,5.6,6.9c1.4,0.2,2.1,0,2-1.7c-0.1-2.6,0-5.3,0-7.9c0-0.4,0.2-0.9,0.3-1.3c0.5,0.2,1,0.3,1.4,0.7
		c2.8,2.7,5.5,5.6,8.3,8.3c2.7,2.6,6,2.9,9,1.2c1.4-0.9,1.7-1.5,0.3-2.8c-4.5-4.3-8.8-8.8-13.3-13.2c-1-0.9-1-1.5,0-2.4
		c3.8-3.7,7.5-7.4,11.3-11.1c1.3-1.2,0.8-1.7-0.4-2.4c-2.8-1.6-6.1-1.2-8.6,1.1c-2.1,2-4.2,4.2-6.3,6.3c-0.5,0.5-1.1,0.8-1.7,1.2
		c-0.2-0.6-0.5-1.3-0.6-1.9c-0.6-4.2-2.5-6.7-5.5-7.4c-1.5-0.4-2.1,0-2,1.6C3069,385.2,3069,388.8,3069,392.4z M3053,379.8
		c-8,0-14.6,4.9-16.8,12.1c-2.1,6.7,0.6,14.7,6.2,18.5c6.5,4.5,14.4,4.4,20.3-0.3c1.1-0.9,1.9-2.2,2.8-3.3c-1.6-0.8-3-1.9-4.7-2.4
		c-1-0.3-2.3,0.2-3.5,0.5c-0.8,0.2-1.5,0.6-2.2,0.9c-5,1.5-10.4-1.4-11.7-6.3c-1.4-5.2,1.5-10.6,6.7-11.6c2.2-0.4,4.7,0.1,6.9,0.8
		c2.7,0.8,5.1,0.9,7.5-0.9c1.1-0.8,1.3-1.6,0.2-2.7C3061.3,381.5,3057.2,380,3053,379.8z M3019.5,396.7c2.1,4.2,4.2,7.9,5.9,11.8
		s4.5,5.2,8.5,5.2c2,0,2.6-0.2,1.5-2.3c-5.1-9.9-10-19.8-14.9-29.8c-0.3-0.5-0.6-1-1-1.7c-2.8,5.5-5.4,10.8-8,16.1
		c-2.6,5.3-5.3,10.6-7.9,15.9c-0.3,0.6-1.3,1.8,0.5,1.8c3.9,0,7.8,0,11.7-0.3c2.5-0.2,4.9-3,5.3-5.6c0.2-1.1,0-1.7-1.3-1.6
		c-1.5,0.1-3,0-4.8,0C3016.5,403,3017.9,400.1,3019.5,396.7z"/>
	<path class="st24" d="M3053.9,283.5c0-6.5,0.1-13,0-19.4c0-1.7,0.5-2.2,2.2-2.2c12.9,0.1,25.7,0,38.6,0.3
		c27.5,0.6,43.1,23.6,45.2,41.8c1.2,10.8,1,21.4-2.4,31.7c-5.7,17.6-17.8,27.9-35.8,31c-7,1.2-14.3,1.3-21.5,1.5
		c-8.1,0.2-16.2,0-24.2,0c-1.8,0-2.1-0.7-2.1-2.2c0.1-6.3,0.1-12.6,0-19c0-1.9,0.4-2.4,2.4-2.4c9.6,0.1,19.2,0.1,28.8,0
		c3.7-0.1,7.4-0.4,10.9-1c9.5-1.8,15.3-7.7,17.6-17.1c2.7-11,1.5-21.4-4.5-31.1c-3.9-6.3-9.5-9.7-17.1-9.7c-4.9,0-9.8,0.1-14.6,0
		c-1.7,0-2,0.6-1.9,2.1c0.1,5,0,9.9,0.1,14.9c0,1.7-0.2,2.4-2.2,2.3c-5.8-0.1-11.7-0.1-17.5,0c-1.6,0-2-0.5-2-2
		C3054,296.4,3053.9,289.9,3053.9,283.5z"/>
	<path class="st24" d="M3046.6,262.3c-3.5,3.8-6.5,7.2-9.5,10.5c-2.5,2.8-5.2,5.5-7.6,8.3c-1.3,1.5-2.7,2-4.6,2
		c-6.2,0-12.3,0-18.5,0.1c-3.6,0-6.2,1.9-8,4.9c-2.2,3.8-1.5,7,2.5,9c6.6,3.5,13.5,6.6,20.1,10.1c3.5,1.8,6.8,3.9,10,6.1
		c10.4,7.1,13.2,17.2,11.1,29c-2.6,14.6-13.6,24-28.8,25.4c-2.1,0.2-4.1,0.4-6.2,0.4c-13.7,0-27.5,0-41.6,0c0.4-0.7,0.6-1.1,0.9-1.5
		c5.3-6.4,10.7-12.8,15.9-19.2c1.2-1.5,2.7-2.1,4.6-2.1c7,0,13.9,0.1,20.9-0.1c5.9-0.2,9.7-5.3,8.1-11c-0.5-1.8-2.1-3.8-3.7-4.6
		c-6.1-3.2-12.5-5.9-18.8-9c-3.8-1.8-7.8-3.5-11.2-5.9c-14.4-9.9-15.2-30.5-1.8-42c5.7-4.9,12.3-7.9,19.4-10c1-0.3,2-0.4,3.1-0.5
		c0.6-0.1,1.1,0,1.7,0C3018.3,262.3,3032.1,262.3,3046.6,262.3z"/>
	<path class="st24" d="M2973.2,393.9c0-4.1,0.1-8.2,0-12.2c0-1.7,0.5-2.1,2.1-1.6c3.3,1,5.2,3.5,5.4,7.3c0.1,1.7-0.5,4.2,0.4,5
		c1.1,0.9,3.5,0.4,5.3,0.5c0.2,0,0.3,0,0.5,0c2.2,0,4.9,0.7,6.3-0.3c1.1-0.9,0.6-3.9,0.8-6c0.3-3.2,2.7-5.9,5.7-6.6
		c1.2-0.3,1.8,0,1.8,1.3c0,8.3,0.1,16.6-0.1,24.9c-0.1,3.3-1.8,5.7-5.1,6.9c-1.7,0.6-2.5,0.4-2.4-1.7c0.1-2.9,0-5.9,0.1-8.9
		c0-1.5-0.5-1.9-1.9-1.9c-3.2,0.1-6.4,0.1-9.6,0c-1.2,0-1.7,0.4-1.7,1.6c0.1,3.1-0.1,6.2,0.1,9.3c0.1,1.7-0.7,1.9-2,1.6
		c-3.1-0.6-5.5-3.4-5.6-6.9C2973.2,402.2,2973.2,398.1,2973.2,393.9L2973.2,393.9z"/>
	<path class="st24" d="M3108.7,406.2c2.4,0,4.8,0,7.2,0c2.3,0,3.7-1.2,3.6-3c-0.2-2.1-1.6-2.8-3.5-2.8s-3.8,0-5.8,0
		c-5.8-0.1-10.2-4.2-10.4-9.7c-0.2-5.9,3.9-10.5,9.8-10.8c4.2-0.2,8.5,0,12.7-0.1c1.8-0.1,1.8,0.8,1.6,2.1c-0.5,2.8-3.6,5.3-6.8,5.5
		c-1.9,0.1-3.8,0-5.8,0c-2.7,0-3.9,0.9-3.9,2.8c0,2,1.2,2.8,4.1,2.9c2.3,0,4.6,0,6.9,0.2c5,0.6,8.7,5.1,8.7,10.2c0,5-3.7,9.6-8.6,10
		c-4.1,0.4-8.3,0.3-12.4,0c-3.1-0.2-5.4-2.7-6-5.7c-0.2-1.1,0-1.6,1.3-1.5C3103.8,406.2,3106.3,406.2,3108.7,406.2z"/>
	<path class="st24" d="M3069,392.4c0-3.6-0.1-7.2-0.1-10.8c0-1.6,0.6-1.9,2-1.6c3,0.7,4.9,3.2,5.5,7.4c0.1,0.7,0.4,1.3,0.6,1.9
		c0.6-0.4,1.2-0.8,1.7-1.2c2.1-2.1,4.2-4.2,6.3-6.3c2.5-2.4,5.8-2.7,8.6-1.1c1.2,0.7,1.7,1.2,0.4,2.4c-3.8,3.6-7.5,7.4-11.3,11.1
		c-1,1-0.9,1.5,0,2.4c4.5,4.4,8.8,8.8,13.3,13.2c1.4,1.3,1.1,1.9-0.3,2.8c-3,1.8-6.2,1.5-9-1.2s-5.5-5.5-8.3-8.3
		c-0.3-0.3-0.9-0.5-1.4-0.7c-0.1,0.4-0.3,0.9-0.3,1.3c0,2.6-0.1,5.3,0,7.9c0.1,1.6-0.6,1.9-2,1.7c-3.1-0.5-5.5-3.4-5.6-6.9
		C3069.1,401.8,3069,397.1,3069,392.4C3069,392.4,3069.1,392.4,3069,392.4z"/>
	<path class="st24" d="M3053,379.8c4.2,0.2,8.3,1.8,11.7,5.2c1.1,1.1,0.9,1.8-0.2,2.7c-2.3,1.7-4.7,1.7-7.5,0.9
		c-2.2-0.7-4.7-1.2-6.9-0.8c-5.2,1-8.2,6.4-6.7,11.6c1.4,4.9,6.7,7.9,11.7,6.3c0.8-0.2,1.5-0.7,2.2-0.9c1.2-0.3,2.5-0.8,3.5-0.5
		c1.7,0.5,3.1,1.6,4.7,2.4c-0.9,1.1-1.7,2.4-2.8,3.3c-5.9,4.7-13.8,4.8-20.3,0.3c-5.6-3.9-8.2-11.9-6.2-18.5
		C3038.4,384.7,3045,379.8,3053,379.8z"/>
	<path class="st24" d="M3019.5,396.7c-1.6,3.4-3,6.3-4.5,9.5c1.8,0,3.3,0.1,4.8,0c1.3-0.1,1.5,0.5,1.3,1.6c-0.4,2.5-2.8,5.4-5.3,5.6
		c-3.9,0.3-7.8,0.3-11.7,0.3c-1.8,0-0.8-1.1-0.5-1.8c2.6-5.3,5.3-10.6,7.9-15.9c2.6-5.3,5.3-10.6,8-16.1c0.4,0.7,0.7,1.2,1,1.7
		c5,9.9,9.9,19.9,14.9,29.8c1.1,2.1,0.4,2.3-1.5,2.3c-4,0-6.8-1.3-8.5-5.2C3023.7,404.6,3021.6,400.9,3019.5,396.7z"/>
</g>
<line class="st25" x1="679.6" y1="273.6" x2="679.6" y2="413.3"/>
<line class="st25" x1="679.6" y1="424.6" x2="679.6" y2="441.3"/>
<line class="st25" x1="679.6" y1="611.6" x2="679.6" y2="628.3"/>
<line class="st25" x1="679.6" y1="586" x2="679.6" y2="600.2"/>
<line class="st25" x1="679.6" y1="451.4" x2="679.6" y2="468"/>
<line class="st25" x1="679.6" y1="478.8" x2="679.6" y2="490"/>
</svg>
