<?xml version="1.0" encoding="utf-8"?>
<!-- Generator: Adobe Illustrator 17.0.0, SVG Export Plug-In . SVG Version: 6.00 Build 0)  -->
<!DOCTYPE svg PUBLIC "-//W3C//DTD SVG 1.1//EN" "http://www.w3.org/Graphics/SVG/1.1/DTD/svg11.dtd">
<svg version="1.1" id="Layer_1" xmlns="http://www.w3.org/2000/svg" xmlns:xlink="http://www.w3.org/1999/xlink" x="0px" y="0px"
	 width="202.494px" height="200.531px" viewBox="0 0 202.494 200.531" enable-background="new 0 0 202.494 200.531"
	 xml:space="preserve">
<g>
	<path d="M21.45,40.284c4.107-13.026,13.146-21,26.423-24.086c22.439-5.216,44.842-10.604,67.366-15.429
		c10.822-2.318,20.945,0.662,29.013,8.173l50.504,53.941c8.223,9.331,9.375,22.537,5.877,33.981
		c-6.558,21.459-12.888,42.991-19.779,64.343c-4.019,12.453-13.004,20.138-25.766,23.125c-22.431,5.25-44.822,10.704-67.366,15.419
		c-12.126,2.535-22.96-1.154-31.638-10.267l-48.25-51.754c-7.239-7.922-9.32-20.239-6.827-30.423L21.45,40.284z"/>
</g>
</svg>
