<?xml version="1.0" encoding="utf-8"?>
<!-- Generator: Adobe Illustrator 17.0.0, SVG Export Plug-In . SVG Version: 6.00 Build 0)  -->
<!DOCTYPE svg PUBLIC "-//W3C//DTD SVG 1.1//EN" "http://www.w3.org/Graphics/SVG/1.1/DTD/svg11.dtd">
<svg version="1.1" id="Layer_1" xmlns="http://www.w3.org/2000/svg" xmlns:xlink="http://www.w3.org/1999/xlink" x="0px" y="0px"
	 width="308.002px" height="337.149px" viewBox="0 0.501 308.002 337.149" enable-background="new 0 0.501 308.002 337.149"
	 xml:space="preserve">
<g>
	<path fill="#FFFFFF" d="M144.886,0.501c5.995,0,11.99,0,17.987,0c9.331,0.868,17.501,4.78,25.44,9.454
		c26.818,15.788,53.833,31.235,80.816,46.74c6.121,3.517,12.504,6.675,17.916,11.311c9.709,8.315,15.907,18.848,19.428,31.048
		c0.929,3.215,1.301,6.507,1.529,9.832c-0.004,39.907-0.004,79.805,0,119.697c-1.101,15.143-7.881,27.612-18.355,38.227
		c-5.067,5.139-11.444,8.532-17.646,12.092c-19.977,11.46-39.914,22.984-59.85,34.517c-10.291,5.952-20.557,11.948-30.905,17.799
		c-15.014,8.488-38.145,8.452-53.381,0.625c-6.138-3.155-12.007-6.795-17.981-10.242c-23.256-13.42-46.528-26.81-69.744-40.294
		c-9.973-5.791-19.951-10.898-27.256-20.135C5.632,252.004,1.092,241.252,0,229.66c0-40.44,0-80.88,0-121.32
		c0.15-5.871,1.514-11.456,3.855-16.834c5.545-12.734,13.946-22.89,26.17-29.824c17.803-10.102,35.488-20.414,53.203-30.67
		c14.546-8.42,29.061-16.899,43.69-25.173C132.468,2.699,138.479,0.878,144.886,0.501C150.881,0.501,138.479,0.878,144.886,0.501
		C150.881,0.501,138.479,0.878,144.886,0.501z"/>
	<path fill="#19A2C4" d="M134.888,24.762c14.263-5.796,28.591-5.366,42.505,1.234c10.15,4.813,19.503,11.095,29.245,16.658
		c18.408,10.512,36.602,21.399,55.156,31.643c16.124,8.904,28.568,26.291,28.523,45.222c-0.044,16.558-0.022,33.116-0.022,49.674
		c0,15.976,0.164,31.953-0.043,47.926c-0.254,19.657-8.896,34.952-25.716,44.97c-24.781,14.759-49.896,28.956-74.898,43.339
		c-19.705,11.324-39.931,17.073-61.074,4.867c-26.203-15.128-52.388-30.286-78.587-45.417
		c-17.564-10.145-30.515-26.035-30.515-47.258c-0.001-32.2-0.246-64.403,0.09-96.601c0.209-20.094,9.429-35.432,26.861-45.586
		L134.888,24.762z"/>
	<path fill="#FEFEFE" d="M159.952,116.367c0-6.656,0.044-13.311-0.031-19.966c-0.02-1.641,0.324-2.365,2.159-2.368
		c14.061-0.017,28.143-0.659,42.17,0.409c20.948,1.595,35.061,13.201,42.213,32.292c6.282,16.77,5.249,34.032-2.061,50.523
		c-6.685,15.083-19.003,23.004-34.882,25.952c-7.485,1.391-15.061,1.431-22.63,1.472c-8.239,0.043-16.479-0.083-24.721-0.024
		c-1.72,0.012-2.284-0.432-2.257-2.214c0.101-6.654,0.108-13.311-0.004-19.965c-0.034-1.868,0.478-2.383,2.357-2.365
		c9.988,0.094,19.979,0.103,29.97,0.018c4.315-0.039,8.622-0.313,12.857-1.379c8.375-2.106,13.886-7.225,16.396-15.453
		c3.347-10.961,2.707-21.632-2.621-31.912c-4.177-8.058-10.463-12.719-19.847-12.589c-4.826,0.067-9.659,0.108-14.48-0.02
		c-1.859-0.05-2.177,0.649-2.145,2.299c0.096,5.157-0.026,10.316,0.07,15.473c0.029,1.644-0.281,2.326-2.136,2.29
		c-6.075-0.12-12.155-0.114-18.23-0.002c-1.803,0.033-2.21-0.55-2.187-2.257C160.007,129.844,159.952,123.104,159.952,116.367z"/>
	<path fill="#FEFEFE" d="M152.212,94.575c-4.567,5.012-8.757,9.612-12.951,14.208c-1.178,1.29-2.532,2.454-3.521,3.875
		c-2.045,2.939-4.786,3.639-8.211,3.529c-5.736-0.185-11.487-0.058-17.229,0.091c-4.282,0.111-7.15,2.515-8.779,6.317
		c-1.494,3.491-0.485,6.036,2.773,8.02c6.835,4.159,14.316,7.016,21.416,10.644c4.457,2.277,8.643,4.943,12.588,8.037
		c7.465,5.855,10.299,13.797,9.898,22.861c-0.82,18.506-12.954,30.79-31.423,32.021c-16.046,1.069-32.12,0.318-48.181,0.411
		c-0.137,0.001-0.274-0.12-0.72-0.329c0.694-0.858,1.331-1.671,1.991-2.462c5.159-6.205,10.364-12.369,15.456-18.627
		c1.281-1.574,2.716-2.234,4.707-2.22c6.495,0.051,12.989,0.013,19.483-0.024c2.158-0.013,4.32-0.019,6.316-1.093
		c3.163-1.701,4.645-4.379,4.783-7.896c0.138-3.487-1.221-6.027-4.394-7.714c-8.666-4.608-17.884-8.026-26.618-12.48
		c-10.831-5.522-16.301-14.396-16.109-26.521c0.126-7.935,3.822-14.355,9.61-19.583c5.923-5.348,13.021-8.543,20.617-10.705
		c1.185-0.336,2.464-0.474,3.7-0.477c14.405-0.031,28.81-0.02,43.214-0.016C150.942,94.443,151.254,94.494,152.212,94.575z"/>
	<path fill="#FEFEFE" d="M75.943,231.418c-0.003-4.239,0.054-8.479-0.03-12.718c-0.033-1.728,0.46-2.223,2.181-1.706
		c2.938,0.882,5.02,3.11,5.453,6.144c0.059,0.41,0.039,0.831,0.1,1.24c0.28,1.878-0.755,4.361,0.499,5.515
		c1.439,1.323,3.967,0.381,6.017,0.446c2.24,0.073,4.969,0.741,6.603-0.271c1.864-1.155,0.434-4.095,0.706-6.242
		c0.412-3.268,2.598-5.949,5.717-6.82c1.496-0.417,2.176-0.162,2.168,1.536c-0.04,8.478,0.057,16.959-0.056,25.437
		c-0.05,3.722-2.126,6.312-5.292,7.391c-1.694,0.577-2.64,0.462-2.542-1.739c0.139-3.152-0.012-6.317,0.056-9.475
		c0.027-1.283-0.395-1.759-1.708-1.732c-3.41,0.068-6.823,0.088-10.23-0.008c-1.535-0.041-1.771,0.662-1.746,1.95
		c0.062,3.074-0.095,6.157,0.058,9.225c0.11,2.209-0.932,2.304-2.569,1.833c-3.189-0.917-5.295-3.663-5.363-7.288
		C75.885,239.898,75.946,235.658,75.943,231.418z"/>
	<path fill="#FEFEFE" d="M217.208,244.137c2.522-0.001,9.408,1.331,10.722-1.663c2.173-4.949-4.95-4.301-7.46-4.311
		c-7.39-0.029-14.039-4.53-12.514-12.773c1.64-8.867,10.325-8.812,17.545-8.745c2.961,0.027,8.945-1.397,6.963,3.318
		c-1.565,3.721-5.468,4.52-9.063,4.512c-2.531-0.006-7.847-0.948-7.744,3.063c0.107,4.164,6.793,2.79,9.384,2.918
		c7.119,0.351,12.519,6.199,10.621,13.544c-2.236,8.659-12.095,8.416-19.281,7.883c-3.972-0.294-7.246-1.664-8.343-5.855
		C207.169,242.72,215.219,244.138,217.208,244.137C219.703,244.136,214.628,244.138,217.208,244.137z"/>
	<path fill="#FEFEFE" d="M175.565,231.563c0-4.322,0.044-8.644-0.021-12.965c-0.046-3.227,3.802-1.297,5.1-0.068
		c2.01,1.903,2.54,4.575,2.726,7.201c0.179,2.525,5.751-3.759,6.268-4.277c2.447-2.452,4.878-5.187,8.692-4.778
		c4.245,0.455,4.606,2.153,1.909,4.784c-2.856,2.787-5.649,5.637-8.516,8.412c-3.654,3.536-1.794,4.298,1.471,7.531
		c2.954,2.925,5.846,5.911,8.83,8.806c2.533,2.458,3.605,4.177-0.562,5.435c-6.118,1.847-12.869-6.657-16.192-10.858
		c-2.114-2.672-1.639,4.786-1.64,5.331c-0.008,2.764,0.961,6.665-3.107,5.225c-2.724-0.964-4.65-3.696-4.709-6.575
		C175.787,243.412,175.934,231.563,175.565,231.563C175.565,227.241,175.641,231.563,175.565,231.563z"/>
	<path fill="#FEFEFE" d="M140.753,232.64c0.736-6.511,4.229-11.854,11.008-14.601c6.569-2.663,12.73-1.477,18.203,2.988
		c2.736,2.232,2.446,3.695-0.884,4.95c-2.316,0.872-4.499,0.36-6.746-0.544c-6.392-2.571-12.472,0.874-13.637,7.602
		c-1.125,6.498,5.14,12.414,11.563,10.869c1.201-0.289,2.347-0.812,3.504-1.265c2.563-1.007,4.877-0.398,7.101,0.999
		c1.319,0.826,1.325,1.651,0.304,2.803c-7.934,8.938-23.863,6.515-28.706-4.41C141.242,239.277,140.593,236.382,140.753,232.64z"/>
	<path fill="#FEFEFE" d="M124.142,216.696c2.979,5.932,5.811,11.564,8.636,17.2c2.642,5.274,5.24,10.571,7.938,15.816
		c0.815,1.585,0.91,2.233-1.266,2.261c-4.326,0.054-7.489-1.273-9.292-5.568c-1.691-4.03-3.88-7.852-6.042-12.148
		c-1.644,3.43-3.101,6.47-4.736,9.883c1.905,0,3.523,0.049,5.135-0.016c1.187-0.046,1.4,0.52,1.265,1.533
		c-0.372,2.79-3.069,5.595-5.943,5.996c-3.892,0.544-7.813,0.172-11.72,0.268c-1.274,0.033-1.366-0.467-0.838-1.518
		C112.869,239.275,118.428,228.13,124.142,216.696z"/>
</g>
</svg>
