<svg id="Layer_1" data-name="Layer 1" xmlns="http://www.w3.org/2000/svg" viewBox="0 0 327.81 75.48"><defs><style>.cls-1{fill:#15284b;}.cls-2{fill:#c9920e;}</style></defs><title>UCSDLogo_JSOE_BlueGold</title><path class="cls-1" d="M31.61,25.68c0,7.67-1.12,13.49-12.77,13.49S5.46,33.57,5.46,25.68V7c0-4.2-1.79-4.59-4.87-4.59V1.32H15.32V2.44c-3,0-4.87.39-4.87,4.59V25.68c0,5.71,1.35,11.3,8.62,11.3,8.07,0,9.35-4.64,9.35-11.3V7c0-4.2-1.84-4.59-4.87-4.59V1.32H36.48V2.44c-3.08,0-4.87.39-4.87,4.59Z" transform="translate(-0.59 -0.76)"/><path class="cls-1" d="M62.57,37.65a28.35,28.35,0,0,1-10,1.51C41.35,39.17,36,30.66,36,18.73c0-10.36,3.35-18,15.34-18A40.88,40.88,0,0,1,62.07,2.33l.5,8.79h-1.4c-.73-3.14-3-8.18-9.91-8.18-9,0-9.74,9.57-9.74,15.34,0,7.22,1.57,18.36,13.83,18.36a17.63,17.63,0,0,0,7.22-1.4Z" transform="translate(-0.59 -0.76)"/><path class="cls-1" d="M92.64,9.38c-.51-3-2.75-6.44-8.74-6.44-3.75,0-7.06,2.41-7.06,6.1,0,5,6.67,6.61,11.54,9.46,4.42,2.58,7.38,4.87,7.38,10.19,0,7.11-6.16,10.47-13.83,10.47a61.83,61.83,0,0,1-9.63-1.07l-.39-7.89h1.4c.45,3,3.08,6.44,9.07,6.44,4.93,0,8.12-3.19,8.12-7.05,0-6-9.29-7.89-14.5-11.87a8.4,8.4,0,0,1-3.64-7.5C72.37,3.51,77.91.76,85,.76a39.87,39.87,0,0,1,8.68,1L94,9.38Z" transform="translate(-0.59 -0.76)"/><path class="cls-1" d="M118.65,38.65a14.33,14.33,0,0,1-3.63.45c-2.89,0-3.74-1.49-3.74-3.63h-.1a7.92,7.92,0,0,1-7.07,3.63,5.65,5.65,0,0,1-6-5.63c0-7.22,9.36-7.22,13.15-7.57V24c0-3.49-.05-7.17-4.23-7.17-3.09,0-3.49,1.3-3.49,2.89a2.35,2.35,0,0,1-2.34,2.59,2.24,2.24,0,0,1-2.39-2.24c0-3.24,4.83-4.88,8.27-4.88,6.82,0,8.06,3.28,8.06,7.91V35.47c0,1.74.6,2.34,2.14,2.34a6.3,6.3,0,0,0,1.34-.2Zm-7.37-11.11c-2.34.05-8.72.5-8.72,5.13,0,2.59,1.7,4.33,3.39,4.33,3.24,0,5.33-3.14,5.33-6.52Z" transform="translate(-0.59 -0.76)"/><path class="cls-1" d="M119.75,37.76c2.09,0,3.78-.45,3.78-3.68V20.48c0-3-2.34-3.14-3.78-3.24v-.85l7.67-1.19v6.57h.1c.69-1.84,2.93-6.57,7.86-6.57,5.28,0,5.78,2.88,5.78,7.52V34.07c0,3.24,1.69,3.68,3.78,3.68v.85H133.49v-.85c2.09,0,3.79-.45,3.79-3.68V23.81c0-4.28,0-6.23-3.34-6.23-2.93,0-6.52,5.63-6.52,10.36v6.13c0,3.24,1.69,3.68,3.79,3.68v.85H119.75Z" transform="translate(-0.59 -0.76)"/><path class="cls-1" d="M150.64,37.48c3,0,4.87-.39,4.87-4.59V7c0-4.2-1.85-4.59-4.87-4.59V1.32h13.1c9.29,0,19.14,2,19.14,18.7s-10.35,18.59-19.14,18.59h-13.1Zm9.85-5.76c0,4.09.45,4.7,3.25,4.7,9.63,0,13.6-5.15,13.6-16.4,0-10.3-3-16.51-13.6-16.51-2.8,0-3.25.34-3.25,4.7Z" transform="translate(-0.59 -0.76)"/><path class="cls-1" d="M184.92,37.76c2.1,0,3.79-.45,3.79-3.68V20.48c0-3-2.29-3.14-3.79-3.24v-.85l7.67-1.19V34.07c0,3.24,1.69,3.68,3.78,3.68v.85H184.92Zm2.75-30a2.84,2.84,0,1,1,2.83,2.84A2.8,2.8,0,0,1,187.66,7.78Z" transform="translate(-0.59 -0.76)"/><path class="cls-1" d="M214.41,38.2a16,16,0,0,1-5.93.9c-7.72,0-12-4.23-12-12.6,0-7.27,2.94-11.3,10.11-11.3,4.48,0,8.52,2.49,8.52,8.26v1.1H200.56c0,4.18,2,12.7,10.36,12.7a8.23,8.23,0,0,0,3.49-.65Zm-3.79-15.29c0-2.64-.9-6.07-4.73-6.07s-5.33,4.23-5.33,6.07Z" transform="translate(-0.59 -0.76)"/><path class="cls-1" d="M231.24,34.62c2.38,0,7.92.1,7.92,5.63,0,5.68-5.58,8.86-12.2,8.86-4.88,0-10-1.84-10-6.32,0-3.09,2.29-4.43,3.89-5.23A3.86,3.86,0,0,1,218.74,34c0-1.84,1.59-3.73,2.14-4.33C219.73,28.74,218,27.25,218,23c0-6.42,4.68-7.82,9.41-7.82a9.6,9.6,0,0,1,5.14,1.24c.79-1.89,2-5.33,5-5.33A2.25,2.25,0,0,1,240,13.5a2.12,2.12,0,0,1-2.34,2.25c-1.29,0-1.59-.7-2.24-.7-1.09,0-1.54,1.45-1.79,2.24a8.37,8.37,0,0,1,2.24,6c0,5-3.13,7.87-9.11,7.87a11,11,0,0,1-4.53-.75,3.58,3.58,0,0,0-.9,2.24c0,2,2.49,2,4.08,2Zm-8.62,3.54c-1,.75-2.39,1.59-2.39,3.83,0,2.94,2.63,5.48,7,5.48,4.53,0,8.72-2.34,8.72-5.92,0-2.54-2.09-3.39-4.58-3.39ZM227,29.49c4.18,0,4.73-3.28,4.73-5.93,0-3.73-1.29-6.72-4.88-6.72-3.94,0-4.68,2.89-4.68,5.78C222.12,26.4,223.37,29.49,227,29.49Z" transform="translate(-0.59 -0.76)"/><path class="cls-1" d="M239.21,27.15c0-7.47,4-12,10.4-12S260,19.68,260,27.15,256,39.1,249.61,39.1,239.21,34.62,239.21,27.15Zm10.4,10.3c5,0,6-6.17,6-10.3s-1-10.31-6-10.31-6,6.17-6,10.31S244.63,37.46,249.61,37.46Z" transform="translate(-0.59 -0.76)"/><g id="line"><path class="cls-2" d="M214.45,47.19H.59v1.26H215.66A8.07,8.07,0,0,1,214.45,47.19Z" transform="translate(-0.59 -0.76)"/><path class="cls-2" d="M259.62,47.19H240a11.38,11.38,0,0,1-1.48,1.26h21.15Z" transform="translate(-0.59 -0.76)"/></g><path class="cls-1" d="M9.23,61.86h3.19V70.8c0,4-1.93,5.44-5,5.44a8.3,8.3,0,0,1-2.33-.34l.36-2.58A5.28,5.28,0,0,0,7,73.57c1.34,0,2.18-.61,2.18-2.81Z" transform="translate(-0.59 -0.76)"/><path class="cls-1" d="M18.06,72.37,17,76H13.73l4.33-14.15h4.2L26.64,76H23.2l-1.09-3.63ZM21.65,70l-.88-3c-.25-.84-.5-1.89-.71-2.73h0c-.21.84-.42,1.91-.65,2.73l-.84,3Z" transform="translate(-0.59 -0.76)"/><path class="cls-1" d="M38.38,75.61a9.14,9.14,0,0,1-3.63.61c-4.89,0-7.41-3-7.41-7.08,0-4.83,3.44-7.52,7.73-7.52a8.32,8.32,0,0,1,3.49.63L37.9,64.8a6.92,6.92,0,0,0-2.69-.52c-2.54,0-4.51,1.53-4.51,4.68,0,2.83,1.68,4.62,4.54,4.62a8,8,0,0,0,2.67-.46Z" transform="translate(-0.59 -0.76)"/><path class="cls-1" d="M53.09,68.78c0,4.64-2.81,7.45-6.95,7.45s-6.66-3.17-6.66-7.2c0-4.24,2.71-7.41,6.89-7.41C50.72,61.62,53.09,64.88,53.09,68.78ZM42.87,69c0,2.77,1.3,4.72,3.44,4.72s3.4-2.06,3.4-4.81c0-2.54-1.22-4.72-3.42-4.72S42.87,66.22,42.87,69Z" transform="translate(-0.59 -0.76)"/><path class="cls-1" d="M55.4,62a25.52,25.52,0,0,1,4.14-.29,7.82,7.82,0,0,1,4.18.8,3.08,3.08,0,0,1,1.7,2.77,3.2,3.2,0,0,1-2.33,3v0a3.54,3.54,0,0,1,2.81,3.48,3.77,3.77,0,0,1-1.47,3c-1,.82-2.75,1.28-5.56,1.28a24.87,24.87,0,0,1-3.46-.21Zm3.17,5.42h1c1.68,0,2.58-.69,2.58-1.74s-.82-1.64-2.27-1.64a8.74,8.74,0,0,0-1.36.08Zm0,6.28a10.1,10.1,0,0,0,1.24,0c1.45,0,2.73-.55,2.73-2s-1.28-2-2.88-2H58.57Z" transform="translate(-0.59 -0.76)"/><path class="cls-1" d="M68.13,72.71a8.16,8.16,0,0,0,3.55.88c1.47,0,2.25-.61,2.25-1.53s-.67-1.39-2.37-2c-2.35-.82-3.88-2.12-3.88-4.18,0-2.42,2-4.26,5.35-4.26a8.65,8.65,0,0,1,3.61.71l-.71,2.58a6.72,6.72,0,0,0-3-.67c-1.39,0-2.06.63-2.06,1.37,0,.9.8,1.3,2.62,2,2.5.92,3.67,2.23,3.67,4.22,0,2.37-1.83,4.39-5.71,4.39a9.27,9.27,0,0,1-4-.86Z" transform="translate(-0.59 -0.76)"/><path class="cls-1" d="M84.13,72.71a8.16,8.16,0,0,0,3.55.88c1.47,0,2.25-.61,2.25-1.53s-.67-1.39-2.37-2c-2.35-.82-3.88-2.12-3.88-4.18,0-2.42,2-4.26,5.35-4.26a8.65,8.65,0,0,1,3.61.71l-.71,2.58a6.72,6.72,0,0,0-3-.67c-1.39,0-2.06.63-2.06,1.37,0,.9.8,1.3,2.62,2,2.5.92,3.67,2.23,3.67,4.22,0,2.37-1.83,4.39-5.71,4.39a9.27,9.27,0,0,1-4-.86Z" transform="translate(-0.59 -0.76)"/><path class="cls-1" d="M105.78,75.61a9.14,9.14,0,0,1-3.63.61c-4.89,0-7.41-3-7.41-7.08,0-4.83,3.44-7.52,7.73-7.52a8.32,8.32,0,0,1,3.49.63l-.65,2.54a6.92,6.92,0,0,0-2.69-.52c-2.54,0-4.51,1.53-4.51,4.68,0,2.83,1.68,4.62,4.54,4.62a8,8,0,0,0,2.67-.46Z" transform="translate(-0.59 -0.76)"/><path class="cls-1" d="M111.11,61.86v5.44h5.27V61.86h3.19V76h-3.19V70.09h-5.27V76H107.9V61.86Z" transform="translate(-0.59 -0.76)"/><path class="cls-1" d="M135.5,68.78c0,4.64-2.81,7.45-6.95,7.45s-6.66-3.17-6.66-7.2c0-4.24,2.71-7.41,6.89-7.41C133.13,61.62,135.5,64.88,135.5,68.78ZM125.28,69c0,2.77,1.3,4.72,3.44,4.72s3.4-2.06,3.4-4.81c0-2.54-1.22-4.72-3.42-4.72S125.28,66.22,125.28,69Z" transform="translate(-0.59 -0.76)"/><path class="cls-1" d="M150.71,68.78c0,4.64-2.81,7.45-7,7.45s-6.66-3.17-6.66-7.2c0-4.24,2.71-7.41,6.89-7.41C148.34,61.62,150.71,64.88,150.71,68.78ZM140.49,69c0,2.77,1.3,4.72,3.44,4.72s3.4-2.06,3.4-4.81c0-2.54-1.22-4.72-3.42-4.72S140.49,66.22,140.49,69Z" transform="translate(-0.59 -0.76)"/><path class="cls-1" d="M153,61.86h3.21V73.32h5.63V76H153Z" transform="translate(-0.59 -0.76)"/><path class="cls-1" d="M180.53,68.78c0,4.64-2.81,7.45-6.95,7.45s-6.66-3.17-6.66-7.2c0-4.24,2.71-7.41,6.89-7.41C178.15,61.62,180.53,64.88,180.53,68.78ZM170.3,69c0,2.77,1.3,4.72,3.44,4.72s3.4-2.06,3.4-4.81c0-2.54-1.22-4.72-3.42-4.72S170.3,66.22,170.3,69Z" transform="translate(-0.59 -0.76)"/><path class="cls-1" d="M182.83,61.86h8.65v2.62H186v3.23h5.08v2.6H186V76h-3.21Z" transform="translate(-0.59 -0.76)"/><path class="cls-1" d="M207,70h-5.21v3.36h5.82V76h-9V61.86h8.73v2.62h-5.52v2.94H207Z" transform="translate(-0.59 -0.76)"/><path class="cls-1" d="M210.06,76V61.86h3.74L216.73,67A41,41,0,0,1,219,71.89h.06a52.52,52.52,0,0,1-.27-5.9V61.86h2.94V76h-3.36l-3-5.46a52.39,52.39,0,0,1-2.46-5l-.06,0c.08,1.87.13,3.86.13,6.17V76Z" transform="translate(-0.59 -0.76)"/><path class="cls-1" d="M236.49,75.36a15.84,15.84,0,0,1-4.72.8A7.89,7.89,0,0,1,226,74.24a6.85,6.85,0,0,1-2-5.14c0-4.7,3.44-7.39,8.08-7.39a9.75,9.75,0,0,1,3.93.69L235.35,65a7.85,7.85,0,0,0-3.3-.61c-2.67,0-4.68,1.51-4.68,4.58s1.83,4.64,4.45,4.64a4.28,4.28,0,0,0,1.57-.21v-3h-2.18V67.9h5.27Z" transform="translate(-0.59 -0.76)"/><path class="cls-1" d="M242.48,61.86V76h-3.21V61.86Z" transform="translate(-0.59 -0.76)"/><path class="cls-1" d="M245.43,76V61.86h3.74L252.11,67a41,41,0,0,1,2.31,4.85h.06a52.53,52.53,0,0,1-.27-5.9V61.86h2.94V76h-3.36l-3-5.46a52.63,52.63,0,0,1-2.46-5l-.06,0c.08,1.87.13,3.86.13,6.17V76Z" transform="translate(-0.59 -0.76)"/><path class="cls-1" d="M268.55,70h-5.21v3.36h5.82V76h-9V61.86h8.73v2.62h-5.52v2.94h5.21Z" transform="translate(-0.59 -0.76)"/><path class="cls-1" d="M280,70h-5.21v3.36h5.82V76h-9V61.86h8.73v2.62h-5.52v2.94H280Z" transform="translate(-0.59 -0.76)"/><path class="cls-1" d="M283.13,62a28.14,28.14,0,0,1,4.26-.29c2.1,0,3.57.31,4.58,1.11a3.59,3.59,0,0,1,1.3,3,3.76,3.76,0,0,1-2.5,3.49v.06A3.57,3.57,0,0,1,292.66,72c.44,1.6.88,3.44,1.16,4h-3.28a17.64,17.64,0,0,1-1-3.3c-.38-1.76-1-2.25-2.29-2.27h-1V76h-3.17Zm3.17,6.09h1.26c1.6,0,2.54-.8,2.54-2s-.88-2-2.35-2a8.1,8.1,0,0,0-1.45.1Z" transform="translate(-0.59 -0.76)"/><path class="cls-1" d="M299,61.86V76h-3.21V61.86Z" transform="translate(-0.59 -0.76)"/><path class="cls-1" d="M302,76V61.86h3.74L308.65,67A41,41,0,0,1,311,71.89H311a52.76,52.76,0,0,1-.27-5.9V61.86h2.94V76h-3.36l-3-5.46a52.39,52.39,0,0,1-2.46-5l-.06,0c.08,1.87.13,3.86.13,6.17V76Z" transform="translate(-0.59 -0.76)"/><path class="cls-1" d="M328.41,75.36a15.84,15.84,0,0,1-4.72.8,7.89,7.89,0,0,1-5.75-1.91,6.85,6.85,0,0,1-2-5.14c0-4.7,3.44-7.39,8.08-7.39a9.75,9.75,0,0,1,3.93.69L327.27,65a7.85,7.85,0,0,0-3.3-.61c-2.67,0-4.68,1.51-4.68,4.58s1.83,4.64,4.45,4.64a4.28,4.28,0,0,0,1.57-.21v-3h-2.18V67.9h5.27Z" transform="translate(-0.59 -0.76)"/></svg>