<svg id="Layer_1" data-name="Layer 1" xmlns="http://www.w3.org/2000/svg" xmlns:xlink="http://www.w3.org/1999/xlink" viewBox="0 0 746.38 1033.46"><defs><style>.cls-1,.cls-2{fill:none;}.cls-2{clip-rule:evenodd;}.cls-3{clip-path:url(#clip-path);}.cls-4{clip-path:url(#clip-path-2);}.cls-5{fill:#57068c;}.cls-6{clip-path:url(#clip-path-3);}.cls-7{fill:#fff;}.cls-8{clip-path:url(#clip-path-5);}.cls-9{clip-path:url(#clip-path-7);}.cls-10{clip-path:url(#clip-path-9);}.cls-11{fill:#5a5d5a;}.cls-12{clip-path:url(#clip-path-11);}.cls-13{clip-path:url(#clip-path-13);}</style><clipPath id="clip-path" transform="translate(-607.63 -59.99)"><rect class="cls-1" x="648.64" y="101" width="660.99" height="670.93"/></clipPath><clipPath id="clip-path-2" transform="translate(-607.63 -59.99)"><rect class="cls-1" x="-4756.17" y="-1096.42" width="11482.15" height="7873.47"/></clipPath><clipPath id="clip-path-3" transform="translate(-607.63 -59.99)"><polygon class="cls-2" points="987.35 528.67 819.69 358.67 819.72 265.34 987.35 435.73 1154.99 265.34 1154.99 358.7 987.35 528.67"/></clipPath><clipPath id="clip-path-5" transform="translate(-607.63 -59.99)"><polygon class="cls-2" points="1090.19 463.85 1090.19 607.59 1154.97 607.59 1154.97 398.16 1090.19 463.85"/></clipPath><clipPath id="clip-path-7" transform="translate(-607.63 -59.99)"><polygon class="cls-2" points="819.7 398.16 819.7 607.59 884.49 607.59 884.49 463.86 819.7 398.16"/></clipPath><clipPath id="clip-path-9" transform="translate(-607.63 -59.99)"><path class="cls-2" d="M934.54,890.72h60.25q21,0,37.37,5.78a78.63,78.63,0,0,1,27.67,16.19,69.27,69.27,0,0,1,17.18,24.8,82.39,82.39,0,0,1,5.91,31.6v.45a82.63,82.63,0,0,1-6,31.83,71.5,71.5,0,0,1-17.4,25.25,80.36,80.36,0,0,1-27.89,16.65q-16.52,6-37.71,6H934.54Zm60.92,119.6q19.42,0,31.24-10.42t11.82-29.67v-.45q0-19-11.82-29.56t-31.24-10.53H977.83v80.64Z"/></clipPath><clipPath id="clip-path-11" transform="translate(-607.63 -59.99)"><path class="cls-2" d="M1248.29,1052.44q-20.75,0-35.93-6.8a98.57,98.57,0,0,1-27.44-18.35l24.77-29.45a92.91,92.91,0,0,0,18.75,12.68,42.64,42.64,0,0,0,19.19,4.53q10.71,0,16.85-5t6.14-13.59V996q0-8.6-6.36-13.47t-16.62-4.87a38.09,38.09,0,0,0-13.28,2.27,67.07,67.07,0,0,0-11.72,5.66L1197,971.13l4.46-80.41h104.62v36.47h-70.48L1234.23,951a69.14,69.14,0,0,1,11.27-4.08,53.23,53.23,0,0,1,13.72-1.59,67.42,67.42,0,0,1,20.24,3.06,50.18,50.18,0,0,1,17.16,9.18,44.63,44.63,0,0,1,11.89,15.63q4.49,9.51,4.49,22.42V996a57.39,57.39,0,0,1-4.71,23.67,49,49,0,0,1-13.35,17.78,60.52,60.52,0,0,1-20.5,11.1,84.53,84.53,0,0,1-26.15,3.85"/></clipPath><clipPath id="clip-path-13" transform="translate(-607.63 -59.99)"><polygon class="cls-2" points="651.58 890.72 697.33 890.72 734.6 952.1 771.86 890.72 817.61 890.72 817.61 1049.27 774.54 1049.27 774.54 958.21 734.6 1020.28 733.71 1020.28 693.99 958.67 693.99 1049.27 651.58 1049.27 651.58 890.72"/></clipPath></defs><title>MD5_Logo_Stacked_Colour</title><g class="cls-3"><g class="cls-4"><rect class="cls-5" width="743.01" height="752.95"/></g></g><g class="cls-6"><g class="cls-4"><rect class="cls-7" x="171.04" y="164.34" width="417.32" height="345.35"/></g></g><g class="cls-8"><g class="cls-4"><rect class="cls-7" x="441.55" y="297.16" width="146.8" height="291.44"/></g></g><g class="cls-9"><g class="cls-4"><rect class="cls-7" x="171.06" y="297.16" width="146.8" height="291.45"/></g></g><g class="cls-10"><g class="cls-4"><rect class="cls-11" x="285.9" y="789.72" width="230.41" height="240.57"/></g></g><g class="cls-12"><g class="cls-4"><rect class="cls-11" x="536.28" y="789.71" width="210.1" height="243.74"/></g></g><g class="cls-13"><g class="cls-4"><rect class="cls-11" x="2.94" y="789.72" width="248.04" height="240.57"/></g></g></svg>