<?xml version="1.0" encoding="utf-8"?>
<!-- Generator: Adobe Illustrator 21.1.0, SVG Export Plug-In . SVG Version: 6.00 Build 0)  -->
<svg version="1.1" id="Layer_1" xmlns="http://www.w3.org/2000/svg" xmlns:xlink="http://www.w3.org/1999/xlink" x="0px" y="0px"
	 viewBox="0 0 694.1 142.1" style="enable-background:new 0 0 694.1 142.1;" xml:space="preserve">
<style type="text/css">
	.st0{fill:#FFFFFF;}
	.st1{fill:#E31C3A;}
</style>
<g>
	<path class="st0" d="M0,142.7c0-47.5,0-95,0-142.6c231.5,0,463,0,694.6,0c0,47.5,0,95,0,142.6C463.1,142.7,231.6,142.7,0,142.7z
		 M66.5,89.7c-0.5-0.6-0.7-0.9-1-1.2C47.7,64.5,29.8,40.6,11.9,16.7c-0.8-1.1-1.9-2.1-3.1-2.7c-4-2.1-8.5,0.5-8.5,4.9
		c0,27.6,0,55.1,0,82.7c0,1.9,1,3.3,2.7,4.2c3.2,1.7,8.2,0,8.2-5c-0.1-15.4,0-30.7-0.1-46.1c0-4.9-0.4-9.7-0.6-14.6
		c-0.1-2.8-0.3-5.5-0.5-8.7c0.5,0.6,0.8,1,1,1.3C28.5,56.2,46,79.6,63.5,103c1.8,2.4,5.4,3.4,8.5,2.4c2.8-0.9,4.1-2.9,4.1-6.3
		c0-13,0-26.1,0-39.1c0-13.8,0-27.6,0-41.4c0-1.1-0.3-2.3-0.9-3.2c-1.2-1.8-4.2-2.4-6.7-1.5c-2.3,0.8-3.3,2.3-3.3,4.9
		c0,15,0,29.9,0,44.9c0,4.5,0.3,9,0.6,13.5C65.9,81.1,66.3,85.2,66.5,89.7z M352.1,61.3c0.3,2,0.5,5.5,1.2,8.9
		c2.1,10.6,7,19.6,15.5,26.4c9.8,7.9,21.1,10.8,33.4,9.8c12.7-1.1,23.2-6.6,31.1-16.6c8.9-11.2,11.9-24.2,9.9-38.2
		c-2.2-15.7-10.9-27-24.9-34.2c-8.3-4.2-17.3-5.3-26.5-4.4c-10.7,1.1-19.8,5.5-27.2,13.3C355.8,35.7,352,47,352.1,61.3z M530.6,65
		c0,0.3,0.1,0.5,0.1,0.7c0,5.8,0,11.7,0,17.5c0,0.5-0.2,1-0.6,1.4c-8.4,9.6-19,13.3-31.5,11.6c-8.9-1.2-16-6-21.6-12.9
		c-6.5-8-9.7-17.2-8.6-27.5c1.2-12.1,7.4-21.3,17.7-27.7c7.6-4.7,15.9-6.8,24.9-5.1c7.2,1.3,13.4,4.6,18.3,10.2
		c2.1,2.4,5.1,2.5,7.3,0.1c1.8-1.9,2-4.6,0.3-6.7c-2.5-3.1-5.6-5.5-9-7.4c-6.1-3.5-12.7-5.2-19.6-5.9c-10.8-1.1-20.7,1.1-29.6,7.4
		c-14.2,10.1-21.4,23.8-20.8,41.4c0.5,12.8,5.3,23.7,14.7,32.4c11.4,10.5,25,14.1,40.2,11.1c10.7-2.1,19.6-7.4,26.3-16.1
		c1.2-1.6,1.6-3.3,1.6-5.1c0-7.2,0-14.3,0-21.5c0-0.9,0-1.8-0.1-2.8c-0.3-2.7-1.8-4.2-4.5-4.4c-0.4,0-0.7,0-1.1,0
		c-9.9,0-19.8,0-29.6,0c-0.7,0-1.5,0.1-2.2,0.4c-2.1,0.8-3.3,3.2-2.8,5.6c0.4,2,2.1,3.4,4.5,3.4c8.1,0,16.2,0,24.2,0
		C529.7,65,530.1,65,530.6,65z M109.7,23.7c0.5,0,0.9,0,1.3,0c12,0,24.1,0,36.1,0c6.2,0,12.5,0,18.7,0c2.3,0,3.9-1.2,4.4-3.3
		c0.9-3.3-1.2-5.8-4.8-5.8c-19.7,0-39.4,0-59,0c-4,0-7.1,2.3-7.1,7.1c0.1,25.4,0,50.9,0,76.3c0,0.6,0,1.1,0.1,1.7
		c0.3,2.5,1.9,4.5,4.4,5.1c0.9,0.2,1.9,0.3,2.8,0.3c19.5,0,39,0,58.4,0c0.6,0,1.3,0,1.9-0.1c1.8-0.3,3.2-1.5,3.5-3.3
		c0.7-3.4-1.5-6.1-5.1-6.1c-18.1,0-36.2,0-54.2,0c-0.5,0-0.9,0-1.5,0c0-10.3,0-20.5,0-30.8c0.6,0,1.1,0,1.6,0c16.8,0,33.7,0,50.5,0
		c0.7,0,1.4,0,2.2-0.1c1.8-0.3,3.1-1.6,3.4-3.4c0.5-2.8-1.1-5.7-4.8-5.7c-17.1,0.1-34.2,0-51.4,0c-0.5,0-1,0-1.5,0
		C109.7,44.9,109.7,34.4,109.7,23.7z M592.9,82.4c0.5-0.1,0.7-0.1,0.9-0.1c2.4-0.1,4.9-0.3,7.3-0.4c0.3,0,0.7,0.4,1,0.6
		c-0.3,0.2-0.6,0.4-0.9,0.5c-2.3,0.3-4.5,0.6-6.8,1c-1,0.1-2.1,0.3-2.3,1.4c-0.4,2-0.7,4-1,6c0.5-0.1,0.8-0.1,1.1-0.2
		c3.7-0.4,7.4-0.9,11.1-1.3c0.7-0.1,1.4,0,2.1,0.2c0.2,0,0.3,0.4,0.5,0.5c-0.2,0.1-0.4,0.4-0.6,0.4c-0.3,0.1-0.6,0-1,0
		c-4.1,0-8.1,0.8-12.1,1.8c-0.8,0.2-1.2,0.7-1.1,1.5c0.2,1.9,0.4,3.7,0.6,5.7c1-0.2,1.8-0.4,2.6-0.4c3.5-0.3,7.1-0.6,10.6-0.9
		c0.6,0,1.3-0.1,1.1,0.9c-4.6,0.7-9.3,0.6-14,2.2c0.9,2.1,1.8,4.2,2.7,6.2c0.3,0.8,0.9,1,1.6,0.8c1.3-0.2,2.6-0.5,3.9-0.6
		c2.3-0.2,4.6-0.2,6.9-0.2c0.3,0,0.6,0.4,0.9,0.6c-0.3,0.2-0.5,0.4-0.8,0.5c-1,0.1-2,0.1-3,0.3c-2.6,0.4-5.2,0.8-8.1,1.2
		c0.5,0.7,0.7,1.1,1,1.4c1.4,1.6,2.8,3.1,4.1,4.7c0.7,0.8,1.5,0.9,2.6,0.8c2.4-0.2,4.8-0.3,7.2-0.4c0.3,0,0.7,0.3,1.1,0.5
		c-0.4,0.2-0.7,0.4-1.1,0.6c-0.1,0.1-0.3,0-0.5,0c-2,0.3-3.9,0.5-6.1,0.8c11,8.6,27.6,7.5,36.2,0.7c-1.8-0.4-3.5-0.7-5.2-1.1
		c-0.4-0.1-0.7-0.4-1-0.7c0.4-0.1,0.8-0.4,1.2-0.4c2.2,0.2,4.3,0.4,6.4,0.6c0.6,0,1.3-0.2,1.7-0.5c1.4-1.3,2.8-2.6,4.1-4
		c0.6-0.6,1-1.3,1.6-2c-0.7-0.2-1.2-0.3-1.7-0.4c-1.7-0.4-3.4-0.7-5.1-1.1c-0.2-0.1-0.4-0.4-0.6-0.5c0.3-0.2,0.5-0.4,0.8-0.5
		c0.3-0.1,0.6,0,1,0c2.3,0.3,4.6,0.6,7,0.9c1.1-2.3,2.1-4.6,3.3-7c-1.8-0.5-3.5-0.9-5.2-1.4c0-0.2,0-0.3,0.1-0.5
		c1.8-0.9,3.7,0.3,5.6-0.2c0.2-1.6,0.4-3.2,0.7-4.8c0.3-1.8,0.3-1.9-1.5-2.2c-2.5-0.5-5-1-7.5-1.5c-0.3-0.1-0.5-0.4-0.8-0.6
		c0.3-0.2,0.6-0.4,0.9-0.5c0.2-0.1,0.4,0,0.6,0.1c2.8,0.3,5.7,0.6,8.6,0.9c-0.3-1.8-0.6-3.7-0.8-5.5c-0.1-0.9-0.6-1.3-1.4-1.5
		c-4-0.7-8-1.5-12-2.2c-0.4-0.1-0.9-0.2-1.3-0.3c0-0.2,0-0.3,0-0.5c0.4-0.1,0.9-0.3,1.3-0.3c2.7,0.2,5.3,0.4,8,0.7
		c1.5,0.2,3,0.6,4.8,0.9c-0.9-1.9-1.7-3.6-2.4-5.3c-0.4-1-1-1.5-2-1.7c-3.7-0.7-7.4-1.3-11.1-2c-0.4-0.1-0.7-0.3-1-0.5
		c0.4-0.2,0.7-0.5,1.1-0.5c2.6,0.1,5.2,0.3,7.8,0.5c1,0.1,1.9,0.3,3.2,0.6c-1.2-1.4-2.3-2.5-3.2-3.7c-1.4-1.9-3.3-2.9-5.6-3.2
		c-2.3-0.3-4.6-0.6-6.9-1c-0.3,0-0.6-0.4-0.8-0.6c0.3-0.2,0.5-0.5,0.8-0.5c0.4-0.1,0.9,0,1.3,0c1.6,0,3.2,0,4.7,0
		c-6.4-5.9-24.7-6.2-29.7-2c0.5,0.9,1.3,0.6,1.9,0.4c3.1-1,6.3-1.2,9.6-1.3c0.7,0,1.4,0.2,2,0.4c-1,0.8-2,1.3-2.9,1.8
		c-0.6,0.3-0.9,0.9-0.2,1.3c1.5,1,3.1,1.9,4.6,2.8c0.2-0.3,0.3-0.8,0.6-0.9c1.1-0.4,1.1-1,0.6-1.8c-0.2-0.3-0.2-0.6-0.4-1.1
		c2.6,0.4,4.5,2,6.7,3c-0.8,0.5-1.6,0.8-2.2,1.3c-1.1,1-2.2,2.1-3.2,3.2c-0.2,0.3-0.6,0.6-0.6,0.9c0.1,1.4-0.9,2.2-1.7,3
		c-0.7,0.7-0.7,1.4-0.2,2.3c0.3,0.5,0.7,1,0.9,1.6c0.3,0.8,0.3,1.6,0.5,2.5c-1.4-0.2-1.8-0.5-2.4-1.8c-0.3-0.7-0.6-1.6-1.5-1.5
		c-1.7,0.2-3.4,0.5-5,0.8c-0.3,0.1-0.8,0.6-0.8,0.9c0,1.6,0.1,3.2,0.2,4.8c0,0.3,0.5,0.7,0.7,0.7c0.9,0.1,1.9,0.1,2.7-0.7
		c0.2-0.3,0.8-0.3,1.3-0.4c-0.1,0.9-0.1,1.4-0.2,2c0.1-0.1,0.3-0.1,0.4-0.2c0.4,0.5,0.9,1.1,1.3,1.6c0.2,0.3,0.6,0.6,0.9,0.6
		c1.2-0.2,2.4-0.2,3.2-1.3c0.3-0.4,1-0.7,1.5-0.8c2.6-0.1,5.2,0,7.4,1.6c0.5,0.4,1.1,0.6,1.6,1c1.7,1.2,3.9,1.8,4.9,3.8
		c0.1,0.2,0.3,0.3,0.5,0.3c1.8,0.2,2.7,1.7,4,2.7c0.7,0.6,0.7,1.1,0.2,1.8c-1.3,1.8-2.6,3.7-3.9,5.5c-0.3,0.4-0.6,0.7-1,1
		c-0.8,0.8-1.6,1.5-2.3,2.3c-0.8,0.9-1.6,1.9-2.4,2.8c-0.5,0.5-1.1,0.9-1.5,1.5c-1.2,1.7-2.4,3.4-3.6,5.1c-0.4,0.6-0.9,1.3-1.4,1.9
		c-1.4-0.9-1.2-2.2-1-3.3c0.5-3.4,1-6.8,1.5-10.2c0.2-1.1-0.2-2-1.2-2.5c-0.8-0.4-1.6-0.8-2.3-1.2c-2.5-1.4-3.4-3.6-2.5-6.3
		c0.2-0.5,0.3-1,0.4-1.5c0.4-1.8-0.4-2.9-2.2-2.7c-1.2,0.2-2.2,0.4-2.3-1.3c0-0.1-0.2-0.3-0.3-0.3c-1.2-0.4-2.4-0.6-3.6-1
		c-1.8-0.6-3.5-1.2-5.2-1.8c-0.3-0.1-0.4-0.6-0.6-0.9c-0.9-1.3-1.8-2.7-2.8-4c-0.2-0.3-0.9-0.3-1.4-0.4c0,0.1-0.1,0.2-0.1,0.4
		c0.7,1.1,1.3,2.3,2,3.4c-0.1,0.1-0.2,0.2-0.3,0.3c-0.4-0.2-0.9-0.2-1.2-0.5c-1.8-1.6-3.6-3.2-5.2-4.9c-1.8-1.8-2.4-5.5-1.1-7.2
		c1.2-1.6,0.7-3.1,0.5-4.7c-0.1-0.1-0.2-0.1-0.3-0.2c-1.6,1.7-3.2,3.4-4.8,5.2c0.8,0.3,1.5,0.2,2.1,0.3c0.3,0,0.6,0.3,0.9,0.5
		c-0.3,0.2-0.5,0.6-0.8,0.6c-0.8,0.2-1.7,0.2-2.4,0.5c-0.7,0.3-1.5,0.6-1.8,1.2C594.6,78.6,593.9,80.4,592.9,82.4z M628.8,28.6
		c-1.2-1.1-2.7-0.7-4.2,0.4c-1.1,0.8-2.1,0.3-3-0.3c-1.1-0.7-2.2-1-3.5-0.2c-0.3,0.2-0.7,0.1-1,0c-0.7-0.3-1.4-0.9-2.1-1.1
		c-1.4-0.4-2.9-0.7-4.4-1.1c-1.6-0.4-1.8-0.6-1.6-2.2c0.2-1.5-0.2-2.4-1.6-3c-0.3-0.1-0.5-0.3-0.7-0.5c-1.6-1.4-3.2-1.3-5-0.4
		C591.4,25.5,581,30.7,570.7,36c-0.7,0.3-1.4,0.6-2,1c-0.7,0.4-0.7,1-0.1,1.4c0.7,0.5,1.4,1,2.1,1.5c2.9,1.9,6.1,2,9.4,2.1
		c3.6,0.2,6.5-0.8,9.3-2.9c3.1-2.4,6.4-4.4,9.6-6.6c0.7-0.5,1.5-0.9,2.1,0.3c-3.3,3-6.6,6.1-10.1,9.3c1.3,0,2.4-0.1,3.4,0
		c2.3,0.2,4.1-0.6,5.6-2.3c1.2-1.3,2.5-2.5,3.9-3.7c0.3-0.3,1.1-0.2,1.6-0.2c-0.1,0.5,0,1-0.2,1.4c-0.9,1.4-2,2.7-3,4.1
		c-1.9,2.5-1.7,3,1.3,4c0.3,0.1,0.5,0.2,0.8,0.2c1.9,0.1,3.8,0.2,5.7,0.3c0.9,0.1,1.3-0.4,1.6-1.1c0.4-1.1,0.7-2.2,1.2-3.3
		c0.2-0.4,0.8-1,0.9-1c0.5,0.2,1.1,0.6,1.3,1.1c0.4,1.1,0.5,2.4,1,3.5c0.9,2.2,0.4,3.9-1,5.7c-2,2.6-3.9,5.2-5.8,7.8
		c-0.9,1.2-0.1,3,1.3,3.3c1.2,0.3,4.4-1.1,5.1-2.2c0.8-1.4,1.6-2.8,2.4-4.2c0.3-0.5,0.5-1,1.3-0.7c0.8,0.3,0.8,0.8,0.6,1.4
		c-0.3,1.1-0.5,2.2-0.8,3.4c2.9,0,5.7,0,8.6,0c-0.3-1.2-0.5-2.4-0.8-3.5c-0.2-0.6-0.1-1.2,0.6-1.3c0.4,0,1,0.2,1.2,0.5
		c0.5,0.7,1,1.5,1.4,2.4c0.9,2.4,2.8,3.5,5.3,4c1.3,0.3,1.9-0.5,2.5-1.4c0.6-0.8,0.1-1.3-0.4-1.9c-2-2.7-4-5.4-6-8.1
		c-0.6-0.9-1.4-2.1-1.2-3c0.3-2.1,1-4.2,1.6-6.3c0.1-0.3,0.6-0.6,0.9-0.6c0.3,0,0.7,0.3,0.9,0.5c0.2,0.3,0.3,0.7,0.4,1
		c0.5,1.2,0.7,3,1.6,3.6c0.9,0.6,2.6,0.2,4,0.2c1.8,0,3.7-0.1,5.3-1.2c1.1-0.7,1.2-1,0.4-2.1c-1.3-1.8-2.7-3.6-4-5.4
		c-0.2-0.2-0.3-0.8-0.2-0.9c0.3-0.2,0.7-0.4,1.1-0.3c0.4,0.1,0.7,0.3,1,0.6c1.3,1.2,2.7,2.4,3.9,3.7c2.4,2.6,5.4,1.8,8.4,1.7
		c-3.3-3-6.6-6-9.8-9.1c0.7-1.2,1.5-0.7,2.2-0.2c4,2.7,8,5.4,11.9,8.1c1.3,0.9,2.7,1.4,4.2,1.4c1.5,0,3,0.1,4.4,0
		c3.5-0.1,6.7-1.1,9.4-3.3c1-0.8,1-1.4-0.2-2.1c-0.2-0.1-0.4-0.2-0.6-0.3c-10.4-5.2-20.8-10.4-31.1-15.7c-2.4-1.2-4.3-1.5-6.6,0.3
		c-1.1,0.9-1.9,1.5-1.6,3.1c0.3,1.5-0.1,1.8-1.7,2.2c-1.5,0.4-3,0.6-4.4,1.1C630.8,27.6,630,28.1,628.8,28.6z M247.7,23.3
		c-0.4,0.5-0.5,0.7-0.7,0.9c-8.2,9.5-16.4,18.9-24.5,28.4c-8.4,9.7-16.8,19.5-25.2,29.2c-4.6,5.3-9.1,10.6-13.7,15.9
		c-1.2,1.4-1.7,3-1.2,4.8c0.5,1.9,1.7,3.2,3.6,3.7c2,0.5,3.8,0.1,5.1-1.5c2.2-2.5,4.3-5.1,6.5-7.7c3.6-4.2,7.3-8.3,10.9-12.5
		c7.4-8.5,14.8-17.1,22.2-25.7c5.9-6.8,11.8-13.7,17.7-20.5c2.1-2.4,4.1-4.8,6.4-7.4c0,0.8,0,1.2,0,1.6c0,8,0,16.1,0,24.1
		c0,2.2,1,3.8,2.8,4.5c3.3,1.3,6.3-0.7,6.3-4.3c0-10.2,0-20.5,0-30.7c0-2.3-0.1-4.6,0-6.8c0.2-3.8-1.9-6.1-5.8-6.1
		c-6.4,0-12.9,0-19.3,0c-5.1,0-10.2,0-15.4,0c-2.7,0-5,1.8-5.3,4.3c-0.5,3.3,1.8,5.9,5.4,5.9c7.5,0,15,0,22.6,0
		C246.6,23.3,247,23.3,247.7,23.3z M292.2,95.6c0-0.7,0-1.2,0-1.7c0-24.8,0-49.7,0-74.5c0-0.6,0-1.2,0-1.8c-0.1-1.8-1-3.2-2.6-4
		c-3.2-1.6-8,0-8,4.9c0.1,26.8,0,53.6,0,80.4c0,4.7,1.4,6.1,6.2,6.1c0,0,0.1,0,0.1,0c18.8,0,37.7,0,56.5,0c0.8,0,1.5,0,2.3-0.1
		c2.2-0.3,3.8-1.9,4.1-3.9c0.3-2.1-0.7-4.1-2.7-4.8c-1-0.4-2.1-0.5-3.2-0.5c-17,0-34.1,0-51.1,0C293.3,95.6,292.8,95.6,292.2,95.6z
		 M568.1,114.2c1.1,3.8,3.2,7.1,5.2,10.4c0.6,0.9,1.6,1.8,2.5,2.3c6.2,3.5,12.7,6.4,19.6,8.3c3.4,0.9,6.8,1.6,10.3,2.4
		c-0.3,1.5-0.7,3-1.1,4.4c5.7,2.1,17.8-3.7,20.5-9.9c-7.2-0.4-13.6-3.3-20.3-6.3c0.3,1.2,0.5,2.1,0.7,3c0.4,1.8,1.3,3,3.4,3.1
		c0.8,0,1.6,0.3,2.5,0.4c1.6,0.2,3.1,0.3,5.1,0.5c-0.5,0.4-0.8,0.8-1.1,0.9c-3.4,0.8-6.9,0.6-10.4,0.5c0.3-2.6-1.1-4-3.1-5.1
		c-2.3-1.3-4.6-2.7-6.7-4.2c-2.7-1.9-5.3-3.9-7.9-6c-1.4-1.2-1.4-2.1-0.7-3.7c0.1-0.3,0.3-0.7,0.2-1c-0.6-1.6-1.3-3.2-1.9-4.8
		c-0.5-1.4-1-2.9-1.5-4.5c-0.4,0-1,0-1.6,0c-1.1-0.1-1.8,0.3-2.4,1.4c-0.4,0.8-1.3,1.3-2,1.9c-0.6,0.5-1.3,0.8-1.8,1.4
		c-0.8,0.9-1.6,1.7-3,1.8c-0.3,0-0.8,0.3-1,0.6C570.7,113.2,569.6,114,568.1,114.2z M240.5,54.9c-6.6,7.6-13,15-19.5,22.6
		c1.5-0.5,2.6-1,3.8-1.3c2.6-0.7,4.7-0.3,6.5,1.9c3.2,3.8,6.7,7.5,10.1,11.3c4.4,4.9,8.8,9.8,13.2,14.7c1.8,2,3.9,2.6,6,1.8
		c3.3-1.2,4.4-5.3,2-8c-4.5-5.3-9.1-10.4-13.6-15.7c-2.7-3.2-5.4-6.4-7.8-9.7c-2.6-3.6-3.4-7.8-2.5-12.2
		C239.2,58.6,239.9,56.9,240.5,54.9z M224.9,42.2c-1.4,0.5-2.5,0.9-3.7,1.3c-2.6,0.8-4.8,0.3-6.7-2c-5.4-6.2-11-12.3-16.5-18.4
		c-2.3-2.6-4.6-5.2-6.9-7.8c-2.1-2.3-5.4-2.5-7.5-0.5c-2.1,1.9-2.1,4.9-0.1,7.3c2.7,3.1,5.4,6.1,8,9.2c3.9,4.6,7.9,9.1,11.7,13.8
		c4.6,5.7,5.5,12.1,2.4,18.8c-0.1,0.2-0.1,0.4-0.2,0.6c0,0,0.1,0,0.1,0.1C212,57.3,218.4,49.8,224.9,42.2z M652.3,63.8
		c0.6,1.3,1.2,2.4,1.7,3.6c0.4,1.2,1.3,1.5,2.4,1.9c2.3,0.8,4.5,1.8,6.7,2.9c2,0.9,3.9,2,5.8,3.1c1.9,1,3.8,1.7,5.5,3.1
		c5.7,4.7,13.8,3.3,17.8-2.8c4.9-7.4,0.8-18.8-7.7-21.4c-0.1,0-0.3,0-0.5,0c-0.4,2.4,0.6,4.4,2.1,6c2,2.1,3.4,4.3,3.7,7.2
		c0.4,3.6-1.2,6.8-4.2,8.4c-2.8,1.5-6.2,1-9-1.4c-0.7-0.6-1.1-1.2-0.9-2.2c0.2-1.5-0.2-2.9-1.4-3.8c-1.4-1-1.4-2.2-1.3-3.6
		c0.1-0.9,0.1-1.9-0.2-2.7c-0.7-1.4-1.4-2.7-1.3-4.4c-0.4,0.3-0.7,0.7-1,1.1c-1.6,2.3-2.2,4.9-2.2,7.7c0,0.6-0.1,1.3-0.5,1.6
		c-0.9,0.8-2,1.3-3.1,2c-1.6-3.5-3.1-6.6-4.6-9.9C657.5,61.4,655,62.6,652.3,63.8z M646.3,9c0,0.6-0.1,1.1,0.2,1.5
		c0.3,0.5,0.8,1.1,1.2,1.2c3,0.2,5.4-1.3,8.1-3.1c-0.6-0.1-0.9-0.3-1.2-0.3c-0.8,0-1.6,0.3-2.4,0.2c-0.5,0-1.1-0.4-1.5-0.8
		c-0.1-0.1,0.3-0.8,0.5-1.2c0.4-0.7,1.2-1.3,0.9-2.4C651,4.7,650,5.1,649,5.6c-0.9,0.4-1.4,0.2-1.4-0.9c-0.1-1.5-0.3-1.7-1.8-1.7
		c-6.1,0-12.1-0.1-18.2,0c-4.2,0.1-8.3-0.2-12.1-2.3c-0.4-0.2-1-0.4-1.4-0.2c-1.2,0.4-2.4,0.9-3.5,1.5c-1.9,1.2-2.1,2.8-0.7,4.6
		c1.5,1.8,3,3.5,4.6,5.2c0.3,0.3,0.8,0.5,1.1,0.7c0.1-0.1,0.1-0.2,0.2-0.3c-0.5-1.1-1.1-2.2-1.6-3.3c-0.2-0.3-0.3-1-0.1-1.2
		c0.3-0.3,0.8-0.5,1.3-0.4c0.4,0,0.9,0.3,1.3,0.6c1.3,0.9,2.7,1.1,4.2,1.1c8,0,15.9,0,23.9,0C645.2,8.9,645.7,8.9,646.3,9z
		 M582.5,81.2c0,0-0.1,0-0.1,0c0-0.6-0.1-1.1-0.2-1.7c0-0.3-0.1-0.6-0.2-0.9c-0.4-1.4-0.9-1.8-2.4-1.7c-1.4,0.1-2.2,0.8-3,1.9
		c-5.2,8.3-8.4,17.5-10.7,27c-0.1,0.4-0.1,0.8,0,1.2c0.1,0.3,0.2,0.9,0.4,0.9c0.3,0.1,0.8-0.1,1.1-0.3c0.5-0.4,1-0.9,1.5-1.3
		c2-1.3,4.1-2.5,6-4c2.7-2.2,5-4.8,5.4-8.6c0.1-1.3,0.4-2.5,0.6-3.8C581.5,87,582,84.1,582.5,81.2z M571.9,74c1.2,0.5,2.3,1,3.4,1.5
		c1.1,0.5,2.1,0.6,3.2,0.2c3.5-1,4.1-0.7,5.2,2.8c0.6,1.9,1.7,3.4,3.3,4.5c1.3-3.3,2.5-6.6,4-9.8c1.5-3.2,3.3-6.2,5-9.3
		C588.3,62.4,576.6,66.1,571.9,74z M652,75.3c1.3,2.8,2.4,5.3,3.6,7.8c1.6-0.7,3.1-1.4,4.7-2.1c1.6,3.5,3.3,7,4.9,10.5
		c0.1,0.2-0.2,0.6-0.2,0.9c0.1,0.7,0.1,1.3,0.4,1.9c0.1,0.2,0.9,0.3,1.2,0.2c2.7-1.2,5.4-2.5,8-3.7c0.9-0.4,0.9-0.9,0.5-1.6
		c-0.3-0.7-0.6-1.3-1.6-0.8c-0.9,0.4-1.8,0.8-2.8,1.3c-0.4-1.7,1.2-1.7,1.9-2.5c-0.5-1.1-0.9-2.3-1.6-3.1c-0.4-0.5-1.4-0.5-2.2-0.8
		c-0.3-0.1-0.5-0.2-0.8-0.3c-3.8-1.7-7-4.3-10.9-5.8c-0.1-0.1-0.3-0.2-0.4-0.2C655.3,76.3,653.8,75.8,652,75.3z M616.9,26.7
		c0.4-0.2,0.7-0.2,0.8-0.3c1.4-1,2.8-0.9,4.2,0.1c1,0.8,2.1,0.6,3.1-0.1c1.2-0.8,2.3-0.9,3.6-0.2c0.3,0.2,0.8,0.3,1.4,0.5
		c-0.8-3.2-1.8-6.1-2.3-9c-0.5-2.9-2.8-3.7-4.9-4.7c-0.4-0.2-1.1,0-2,0.1c1,0.8,1.7,1.3,2.5,1.9c-1.6,1.2-2,1.1-2.8-0.3
		c-0.4-0.7-0.9-1.2-1.8-1.2c-0.9,0-1.8-0.2-2.6-0.1c-0.5,0-1,0.3-1.3,0.7c-0.6,0.7-1,1.5-1.4,2.1c1.4,0.8,2.8,1.7,4.2,2.3
		c1.2,0.5,1.3,1.2,0.9,2.4C618.1,22.7,617.6,24.5,616.9,26.7z M403.8,134.4c-0.7-3.1-1.4-5.9-2-8.7c-0.5,0-1,0-1.5,0
		c0.8,3.2,1.7,6.4,2.4,9.5c0.3,1.1,0.7,1.5,1.9,1.1c0.7-2.7,1.5-5.4,2.3-8.5c0.7,3,1.4,5.8,2.1,8.5c0.6,0,1,0,1.5,0
		c1-3.6,2-7.1,3-10.7c-0.5,0-1,0-1.5,0c-0.7,2.8-1.5,5.6-2.2,8.6c-0.7-2.7-1.2-5.2-1.8-7.6c-0.1-0.5-0.1-1.1-1-1.1
		c-0.9,0-0.9,0.5-1.1,1.1C405.2,129.2,404.5,131.6,403.8,134.4z M145.4,133.9c-1.6-2.5-3.1-4.9-4.6-7.4c-0.5-0.9-1.2-1.2-2.1-0.8
		c0,3.6,0,7.1,0,10.6c0.4,0,0.8,0,1.3,0c0-2.8,0-5.6,0-8.5c1.7,2.7,3.2,5.2,4.7,7.7c0.5,0.8,1,1.1,2,0.8c0-3.5,0-7.1,0-10.7
		c-0.4,0-0.8,0-1.3,0C145.4,128.4,145.4,131.1,145.4,133.9z M653.3,58.9c0-2.4,2.3-1.9,3.1-3.1c-0.3-1-1-1.2-1.9-0.7
		c-0.9,0.5-1.8,0.9-2.7,1.3c-0.7,0.3-1,0.7-0.8,1.5c0.2,1,0.1,1.8-0.7,2.5c-0.8,0.7-0.2,1.5,0.2,2c0.2,0.3,1,0.3,1.4,0.2
		c2.6-1.1,5.1-2.3,7.6-3.5c0.9-0.4,1.1-0.9,0.7-1.9c-0.4-1-1-0.9-1.8-0.6C656.8,57.4,655.2,58.1,653.3,58.9z M202,130.4
		c-0.1-1.7-0.7-3.6-2.8-4.5c-1.8-0.8-3.7-0.6-5.2,0.7c-1.9,1.7-2.2,3.9-1.7,6.3c0.4,1.8,1.5,3.2,3.4,3.6
		C199.3,137.3,202,134.8,202,130.4z M332,130.9c0-2.6-1.1-4.4-2.9-5.2c-2.7-1.1-5.5,0.2-6.5,3c-1.2,3.3,0.2,6.8,2.9,7.6
		c0.1,0,0.2,0.1,0.4,0.1C329.4,137.2,332,134.9,332,130.9z M216.3,131.9c0,0.9,0.1,1.8,0,2.6c0,0.3-0.4,0.7-0.7,0.7
		c-0.8,0.1-1.7,0.1-2.5-0.1c-1.8-0.5-2.8-2.1-2.7-4.3c0.1-2.1,1.2-3.7,3.1-3.9c1-0.1,2.1,0.1,3.2,0.2c0.1,0,0.2,0,0.4,0
		c0.1-0.3,0.2-0.7,0.2-1c-1.5-0.6-2.9-0.6-4.4-0.3c-2.4,0.5-4,2.6-4.1,5.2c-0.1,2.7,1.3,4.9,3.7,5.3c1.5,0.3,3.1,0,4.6-0.1
		c0.2,0,0.6-0.4,0.6-0.6c0-1.6,0-3.2,0-4.8c-1.3,0-2.4,0-3.5,0c0,0.4,0,0.7,0,1.1C214.9,131.9,215.6,131.9,216.3,131.9z
		 M478.7,131.9c0.4,3.3-0.3,4.1-3.1,3.2c-1.8-0.6-2.8-2.2-2.7-4.4c0.1-1.9,1.2-3.5,3-3.8c1.1-0.2,2.2,0.1,3.3,0.1c0.1,0,0.2,0,0.4,0
		c0.1-0.4,0.2-0.7,0.4-1.4c-1.6,0-3-0.2-4.4,0c-2.6,0.4-4.2,2.6-4.2,5.3c0,2.7,1.3,4.8,3.8,5.3c1.4,0.2,3,0,4.5-0.2
		c0.2,0,0.6-0.4,0.6-0.7c0.1-1.5,0-3.1,0-4.7c-1.3,0-2.4,0-3.6,0c0,0.4,0.1,0.7,0.1,1.1C477.4,131.9,478,131.9,478.7,131.9z
		 M161.6,131.8c0,0.9,0,1.7,0,2.4c0,0.8-0.3,1-1,1c-0.4,0-0.7,0-1.1,0c-2.3-0.1-3.7-1.5-3.9-4c-0.2-2.3,1.2-4.2,3.4-4.5
		c1.1-0.1,2.2,0,3.4,0c0-0.1,0.1-0.5,0.2-0.8c-2.7-1.1-5.9-0.4-7.4,1.6c-1.5,2-1.5,5.3,0.1,7.2c1.6,1.9,4.9,2.4,7.6,1.1
		c0-1.7,0-3.4,0-5.2c-0.9,0-1.7,0-2.5,0c-0.3,0-0.6,0-1,0c0,0.4,0,0.8,0,1.2C160.1,131.8,160.8,131.8,161.6,131.8z M532.6,131.9
		c2.4-0.3,3,0.1,3.5,2.2c0.1,0.4,0.2,0.9,0.3,1.3c0.3,1.2,0.3,1.2,1.8,0.9c-0.8-1.7-0.5-3.7-2.1-5c1.6-1.1,2.1-2.2,1.7-3.6
		c-0.4-1.3-1.4-2-3.2-2.1c-1.1-0.1-2.1,0-3.2,0c0,3.8,0,7.3,0,10.8c0.5,0,0.9,0,1.3,0C532.6,134.9,532.6,133.4,532.6,131.9z
		 M368.9,131.4c0,1.7,0,3.3,0,4.9c0.5,0,0.9,0,1.4,0c0-3.6,0-7.1,0-10.7c-0.5,0-0.9,0-1.4,0c0,1.5,0,2.9,0,4.3c-1.7,0-3.4,0-5.1,0
		c0-1.5,0-2.9,0-4.3c-0.5,0-0.9,0-1.4,0c0,3.6,0,7.1,0,10.7c0.5,0,0.9,0,1.5,0c0-1.7,0-3.3,0-4.9
		C365.6,131.4,367.2,131.4,368.9,131.4z M88,131.9c2.3-0.3,3,0.1,3.4,2.1c0.1,0.4,0.2,0.8,0.3,1.2c0.1,1.1,0.7,1.6,1.9,1.1
		c-0.7-1.7-0.5-3.8-2.1-5.1c1.6-1.1,2-2.2,1.7-3.6c-0.3-1.3-1.3-2-3.1-2.1c-0.8-0.1-1.6,0.1-2.4,0c-0.8,0-1.1,0.3-1.1,1.2
		c0,2.9,0,5.8,0,8.7c0,0.3,0.1,0.6,0.1,0.9c0.5,0,0.9,0,1.4,0C88,134.9,88,133.4,88,131.9z M427.9,136.3c-1.1-3.4-2.2-6.7-3.4-10
		c-0.1-0.3-0.7-0.6-1.1-0.7c-0.6-0.2-0.9,0.2-1.1,0.8c-0.7,2.2-1.5,4.4-2.2,6.6c-0.4,1.1-0.7,2.2-1.1,3.3c1.1,0.4,1.6,0,1.8-1
		c0.1-0.3,0.2-0.6,0.3-0.9c0.2-1.2,0.9-1.5,2-1.4c2.3,0.1,2.3,0,3,2.2C426.3,136.2,426.8,136.7,427.9,136.3z M439.9,131.3
		c1.6-1.2,2.1-2.2,1.7-3.7c-0.3-1.2-1.5-1.9-3.3-2c-0.7,0-1.4,0.1-2,0c-0.9,0-1.2,0.3-1.2,1.3c0.1,2.7,0,5.4,0,8.1
		c0,0.5,0,0.9,0,1.5c0.6,0,1,0,1.5-0.1c0-1.6,0-3,0-4.5c2.2-0.4,2.9,0.1,3.4,2c0.1,0.4,0.2,0.9,0.3,1.3c0.1,1.1,0.7,1.5,1.9,1.1
		C441.2,134.6,441.6,132.6,439.9,131.3z M495.9,125.7c-0.5,0-0.9,0-1.4,0c0,1.5,0,2.9,0,4.3c-1.8,0-3.4,0-5.1,0c0-1.5,0-2.9,0-4.3
		c-0.5,0-0.9,0-1.3,0c0,3.6,0,7.1,0,10.8c0.5,0,0.9,0,1.4-0.1c0-1.7,0-3.3,0-4.9c1.7,0,3.4,0,5.2,0c0,1.7,0,3.2,0,4.9
		c0.5,0,0.9,0,1.3,0C495.9,132.7,495.9,129.2,495.9,125.7z M100.3,136.3c1.1,0.4,1.7,0,1.8-1c0.1-0.3,0.2-0.6,0.3-0.9
		c0.2-1.1,0.7-1.5,1.9-1.4c2.4,0.1,2.4,0,3.1,2.3c0.3,1,0.8,1.3,1.9,1c-1.2-3.4-2.3-6.9-3.5-10.3c-0.1-0.3-0.8-0.4-1.2-0.4
		c-0.3,0-0.7,0.3-0.8,0.6C102.6,129.6,101.5,132.9,100.3,136.3z M11,136.4c-1.2-3.5-2.3-6.9-3.5-10.2c-0.1-0.3-0.7-0.5-1-0.5
		c-0.3,0-0.9,0.2-1,0.5c-1.2,3.4-2.3,6.8-3.5,10.2c1.1,0.4,1.6,0,1.9-1c0.7-2.3,0.7-2.2,3.2-2.3c0.9,0,1.5,0.2,1.7,1.2
		c0.2,0.8,0.5,1.5,0.8,2.2C10,136.4,10.4,136.4,11,136.4z M523.4,130.1c-1.5,0-2.8,0-4.1,0c0-1.1,0-2.1,0-3.3c1.5,0,2.9,0,4.4,0
		c0-0.5,0-0.8-0.1-1.1c-2,0-3.9,0-5.8,0c0,3.6,0,7.1,0,10.7c2,0,4,0,6.1,0c0-0.4,0-0.7-0.1-1.2c-1.6,0-3.1,0-4.6,0
		c0-1.3,0-2.5,0-3.8c1.4,0,2.8,0,4.1,0C523.4,130.9,523.4,130.6,523.4,130.1z M73.3,125.6c0,3.7,0,7.2,0,10.8c2,0,4,0,6,0
		c0-0.4-0.1-0.7-0.1-1.2c-1.5,0-3,0-4.5,0c0-1.3,0-2.5,0-3.8c1.4,0,2.7,0,4.1,0c0-0.4-0.1-0.8-0.1-1.2c-1.4,0-2.7,0-4,0
		c0-1.1,0-2.2,0-3.3c1.5,0,2.9,0,4.3,0c0.1-0.1,0.1-0.3,0.2-0.4c-0.3-0.3-0.6-0.8-0.9-0.8C76.7,125.6,75.1,125.6,73.3,125.6z
		 M46.9,136.4c2.1,0,4,0,6,0c0-0.4,0-0.7-0.1-1.2c-1.5,0-3,0-4.5,0c0-1.3,0-2.5,0-3.8c1.4,0,2.7,0,4,0c0-0.4,0-0.8,0-1.2
		c-1.4,0-2.7,0-4,0c0-1.2,0-2.2,0-3.4c1.5,0,2.9,0,4.3,0c0-0.4-0.1-0.8-0.1-1.1c-1.9,0-3.8,0-5.7,0
		C46.9,129.3,46.9,132.8,46.9,136.4z M384,130.1c-1.4,0-2.7,0-4,0c0-1.2,0-2.2,0-3.3c1.5,0,2.8,0,4.3,0c0-0.5-0.1-0.8-0.1-1.1
		c-2,0-3.8,0-5.7,0c0,3.6,0,7.1,0,10.7c2,0,4,0,5.9,0c0-0.4,0-0.7,0-1.2c-1.5,0-3,0-4.5,0c0-1.3,0-2.5,0-3.8c1.4,0,2.7,0,4,0
		C384,130.9,384,130.6,384,130.1z M240.6,125.8c-1-0.1-2-0.4-2.9-0.3c-1.7,0.1-2.8,1.1-3.1,2.5c-0.2,1.3,0.5,2.5,2,3.2
		c0.6,0.3,1.3,0.5,1.9,0.8c0.7,0.4,1.1,1.1,0.9,1.9c-0.2,0.9-0.7,1.4-1.6,1.4c-1,0-2-0.2-3.2-0.3c-0.1,0.2-0.2,0.5-0.3,1.2
		c1.4,0.1,2.6,0.3,3.7,0.3c1.6-0.1,2.6-1.1,2.8-2.5c0.3-1.4-0.4-2.6-1.8-3.3c-0.6-0.3-1.3-0.6-2-0.9c-0.7-0.4-1.2-1-1-1.8
		c0.2-0.9,0.9-1.3,1.8-1.3c0.7,0,1.5,0.2,2.3,0.3C240.3,126.7,240.4,126.3,240.6,125.8z M292.4,125.7c-1.2-0.1-2.3-0.3-3.4-0.2
		c-1.5,0.2-2.4,1.2-2.6,2.4c-0.2,1.2,0.5,2.3,1.9,3c0.6,0.3,1.2,0.5,1.8,0.8c0.8,0.4,1.3,1.1,1.1,2c-0.2,1-0.9,1.4-1.8,1.4
		c-0.9,0-1.9-0.3-2.9-0.4c-0.1,0.3-0.2,0.6-0.3,1.3c1.4,0.1,2.6,0.3,3.9,0.2c1.5-0.1,2.4-1.1,2.7-2.4c0.3-1.5-0.3-2.6-1.7-3.4
		c-0.7-0.4-1.4-0.6-2.1-1c-0.7-0.4-1.2-0.9-1-1.8c0.2-0.9,0.9-1.3,1.8-1.3c0.7,0,1.5,0.2,2.3,0.3
		C292.1,126.7,292.2,126.3,292.4,125.7z M25,135c-2.2,0.5-4.2,0.7-5.6-1.3c-1-1.4-1-4,0-5.4c1.5-1.9,3.4-1.9,5.6-1.3
		c0.1-0.4,0.2-0.7,0.3-1.1c-2.6-1.1-5.6-0.4-7.1,1.6c-1.5,2-1.4,5.4,0.2,7.3c1.5,1.8,4.7,2.3,7,1.1C25.2,135.7,25.1,135.4,25,135z
		 M39.6,126c-1.9-1.1-5.4-0.7-7,1.4c-1.5,2-1.6,5.4-0.1,7.3c1.5,1.9,4.5,2.4,7.1,1.3c-0.1-0.3-0.2-0.6-0.3-1c-3.5,0.6-5.5,0.1-6-2.1
		c-1.2-5,1.1-6.9,6-6C39.4,126.6,39.5,126.3,39.6,126z M279.3,126c-2.5-1.1-5.5-0.5-7,1.4c-1.6,2-1.7,5.4-0.1,7.4
		c1.4,1.8,4.5,2.4,7,1.3c-0.1-0.3-0.1-0.6-0.2-1c-3.8,0.6-5.7,0-6.1-2.3c-1-4.9,1.3-6.7,6.1-5.8C279.1,126.6,279.2,126.3,279.3,126z
		 M450.8,136.4c0-1.6,0-3.2,0-4.9c1.1,0,2.1,0,3.1,0c0.9,0,1.2-0.3,0.8-1.2c-1.3,0-2.5,0-3.8,0c0-1.2,0-2.3,0-3.5c1.5,0,2.8,0,4.3,0
		c0-0.4,0-0.8,0-1.1c-1.9,0-3.8,0-5.7,0c0,3.6,0,7.2,0,10.7C449.9,136.4,450.3,136.4,450.8,136.4z M316.3,125.7c-2.7,0-5.4,0-8,0
		c0,0.4,0.1,0.8,0.1,1.2c1.1,0,2.1,0,3.2,0c0,3.2,0,6.3,0,9.5c0.6,0,1,0,1.5,0c0-3.2,0-6.3,0-9.6c1.1,0,2.2,0,3.2,0
		C316.3,126.4,316.3,126.1,316.3,125.7z M252,136.4c0-3.2,0-6.3,0-9.6c1.1,0,2.2,0,3.2,0c0-0.4,0-0.8,0-1.1c-2.7,0-5.3,0-8,0
		c0,0.4,0.1,0.8,0.1,1.2c1.1,0,2.1,0,3.3,0c0,3.2,0,6.4,0,9.5C251.2,136.4,251.5,136.4,252,136.4z M506.2,126.8c0,3.3,0,6.4,0,9.6
		c0.6,0,1,0,1.5-0.1c0-3.2,0-6.4,0-9.6c1.1,0,2.2,0,3.3,0c0-0.4-0.1-0.8-0.1-1.2c-2.5,0-4.8,0-7.2,0c-1,0-0.9,0.5-0.7,1.2
		C504,126.8,505,126.8,506.2,126.8z M350.8,126.8c0,3.3,0,6.4,0,9.5c0.5,0,0.9,0,1.4,0c0-3.2,0-6.3,0-9.6c1.2,0,2.2,0,3.3,0
		c0-0.4,0-0.8-0.1-1.1c-2.7,0-5.2,0-7.9,0c0,0.4,0,0.7,0,1.2C348.6,126.8,349.6,126.8,350.8,126.8z M117.5,126.8c0,3.3,0,6.4,0,9.5
		c0.6,0,1,0,1.5,0c0-3.2,0-6.3,0-9.5c1.1,0,2.1,0,3.2,0c0-0.5-0.1-0.8-0.1-1.1c-2.7,0-5.2,0-7.9,0c0,0.4,0,0.7,0.1,1.1
		C115.4,126.8,116.3,126.8,117.5,126.8z M181.4,135.2c0-3.3,0-6.4,0-9.5c-0.5,0-0.9,0-1.3,0c0,3.6,0,7.1,0,10.7c2,0,3.9,0,5.9,0
		c0-0.4,0-0.7-0.1-1.2C184.5,135.2,183,135.2,181.4,135.2z M66.2,135.2c-1.6,0-3,0-4.6,0c0-3.2,0-6.3,0-9.5c-0.5,0-0.9,0-1.4,0
		c0,1.8,0,3.6,0,5.3c0,1.8,0,3.6,0,5.4c2.1,0,4,0,6,0C66.2,136,66.2,135.7,66.2,135.2z M614.9,24.5c-0.1-2.2,1-4.2-0.1-6.4
		c-0.9,0.8-1.8,1.5-2.4,2.5c-1.8,2.8-1.5,3.5,1.8,3.8C614.3,24.4,614.5,24.5,614.9,24.5z M563.8,122c-0.8-1.7-1.4-3.2-2.1-4.9
		c-1.3,1.8-3.4,2.6-4,4.9C559.7,122,561.6,122,563.8,122z M225.6,125.7c0,3.7,0,7.2,0,10.8c0.5,0,0.9,0,1.3-0.1c0-3.6,0-7.2,0-10.7
		C226.5,125.7,226.1,125.7,225.6,125.7z M129.2,125.7c0,3.6,0,7.2,0,10.7c0.5,0,0.8,0,1.3,0c0-3.6,0-7.1,0-10.7
		C130,125.7,129.7,125.7,129.2,125.7z M463.8,136.4c0-3.6,0-7.2,0-10.7c-0.5,0-0.8,0-1.3,0c0,3.6,0,7.1,0,10.7
		C463,136.4,463.4,136.4,463.8,136.4z M594.7,110.9c-1.2-2.7-2.4-5.5-3.7-8.2c-0.6,3-0.2,5.6,1.6,8.1
		C593.3,111.6,593.9,111.6,594.7,110.9z M679.4,63.8c-2.8,2.2-3.6,4.3-2.2,5.9c0.6-0.5,1.2-1.2,1.9-1.6c1.9-1.3,2-1.5,0.8-3.4
		C679.8,64.3,679.6,64.1,679.4,63.8z M681.9,68.2c-3.5,2.2-4.3,3.2-3.5,5.2c1.1-0.5,2.2-0.9,3.3-1.4c0.8-0.4,1.1-1,0.9-1.9
		C682.4,69.5,682.1,68.9,681.9,68.2z M683.9,71.4c1.1-0.6,2.2-1.1,3.2-1.8c0.4-0.3,0.8-0.9,0.8-1.3c-0.2-0.9-0.6-1.7-1-2.7
		c-0.8,0.8-1.4,1.3-2,1.8C683.6,68.5,683.3,69.9,683.9,71.4z M580.6,138.6c0.1-1,0.2-1.8,0.4-2.6c0.3-1.6-0.5-3-1.9-3.4
		c-0.3,1-0.6,2-1,2.9c-0.6,1.3-0.4,1.9,0.8,2.5C579.4,138.3,580.1,138.5,580.6,138.6z M679.4,59.2c3.3-2.6,4-4,2.9-5.7
		c-0.7,0.4-1.3,1-2,1.3c-2.2,1.1-2.3,1.1-1.3,3.5C679.1,58.6,679.2,58.8,679.4,59.2z M575.4,107.8c-3.8-1.6-5.3-1.5-6.5,0.2
		c0.9,0.5,1.8,0.9,2.5,1.5c1.3,1,1.7,1,2.8-0.3C574.6,108.7,575,108.3,575.4,107.8z M677.1,55.8c-1.1,0.5-2.2,1-3.1,1.5
		c-0.5,0.3-1.2,0.9-1.2,1.3c0.1,1,0.5,1.9,0.9,3c0.6-0.7,0.9-1.3,1.4-1.5C677.4,59.3,677.1,57.4,677.1,55.8z M684.5,61.4
		c-0.7,0.9-1.4,1.7-2,2.5c-0.8,1.1-0.8,2.5,0,3.7c0.6-0.6,1.1-1.3,1.8-1.7c2.4-1.2,1.8-2,0.7-3.7C684.9,62,684.6,61.7,684.5,61.4z
		 M582.1,91.7c0.9-0.4,1.8-0.7,2.6-1.1c0.6-0.3,1.5-0.6,1.7-1.2c0.4-1-0.2-2-0.7-2.9c-0.6,0.5-1.1,0.9-1.6,1.2
		C582.2,88.8,581.8,89.6,582.1,91.7z M590.6,136.1c0.4,1.1,0.7,2,1.1,2.9c0.3,0.7,0.7,1.6,1.2,1.8c0.9,0.4,1.9-0.1,2.8-0.7
		c-0.4-0.6-1-0.9-1.1-1.4C594.2,136.4,592.3,136.5,590.6,136.1z M579.5,99.5c0.5,0,1,0,1.5,0c0.5,0,1,0.1,1.5,0.2
		c1.4,0.3,1.9,0,2.2-1.4c0.1-0.6,0.1-1.3,0.1-1.9c-1,0.2-1.9,0.3-2.7,0.4C580.6,97,579.6,98,579.5,99.5z M586.8,135.9
		c0.1,0.7,0.2,1.3,0.3,2c0,0.7-0.1,1.4,0.1,2c0.1,0.4,0.5,0.9,0.8,1c0.9,0.1,1.8,0,2.6,0c-0.2-0.8-0.5-1.5-0.6-2.2
		C589.7,137.1,588.7,136.1,586.8,135.9z M654.5,74.7c-0.1-0.9-0.2-1.8-0.2-2.8c0-2.3-1.2-3.1-3.3-2.3c0.2,0.7,0.4,1.4,0.5,2.1
		C651.7,73.4,652.6,74.4,654.5,74.7z M586.1,91.8c-3.8,0.9-4.8,1.8-4.6,3.9c0.9-0.1,1.8-0.2,2.7-0.3C586.4,95.1,587,94,586.1,91.8z
		 M582.7,134.7c-0.1,1.1-0.2,2.2-0.3,3.2c-0.1,0.8-0.2,1.6,0.7,2c0.8,0.3,1.7,0.4,2.6,0.5c-0.2-0.9-0.4-1.6-0.4-2.2
		C585.3,136.2,584.5,135.2,582.7,134.7z M578.9,104.6c-0.8-0.2-1.5-0.3-2.2-0.6c-1.6-0.7-3.2-0.1-4,1.3c0.9,0.4,1.9,0.8,2.8,1.3
		c1.2,0.6,1.9,0.5,2.6-0.6C578.5,105.6,578.7,105,578.9,104.6z M668.5,76.2c-0.1,1.1-0.2,2-0.4,2.9c-0.5,2.4,0.5,3.4,2.9,3
		c-0.1-0.5-0.3-1.1-0.2-1.6C671.3,78.4,670.1,77.2,668.5,76.2z M582.5,100.8c-4.5-0.3-5.6,0.1-5.9,1.9c1.1,0.3,2.2,0.6,3.3,1
		c0.9,0.3,1.6,0.1,2-0.8C582.1,102.3,582.3,101.6,582.5,100.8z M576.6,136.4c0.1-0.9,0.1-1.5,0.2-2c0.1-0.6,0.5-1.1,0.6-1.7
		c0.3-1.2-0.6-2.5-1.7-2.8c-0.5,1-1,1.9-1.3,2.9c-0.2,0.5-0.3,1.2-0.1,1.5C574.9,135,575.7,135.6,576.6,136.4z M655.7,70.3
		c0.1,1.3,0.2,2.3,0.4,3.4c0.2,1.4,1.2,2.3,2.6,2.3c0.1-1,0.1-2,0.2-3c0.1-0.9-0.2-1.5-0.9-1.9C657.2,70.7,656.5,70.6,655.7,70.3z
		 M262.3,136.3c0.4,0,0.8,0,1.3,0c0-3.6,0-7.1,0-10.7c-0.5,0-0.8,0-1.3,0C262.3,129.3,262.3,132.8,262.3,136.3z M585.7,108.3
		c0.9-0.5,1.7-1,2.5-1.5c1.1-0.7,1.6-2.1,1.2-3.5c-0.7,0.3-1.4,0.7-2.1,0.9c-2.3,0.6-2.6,1.1-1.8,3.4
		C585.5,107.8,585.6,108,585.7,108.3z M573.1,126.3c-0.4,0.7-0.8,1.5-1.3,2.2c-1.3,1.7-0.8,3.2,1.1,4c0.4-0.9,0.8-1.7,1.2-2.5
		C574.7,128.6,574.4,127.3,573.1,126.3z M677.9,59.7c-0.8,0.7-1.4,1.3-2.1,1.8c-1.7,1.2-1.8,2.6-0.5,3.9c0.9-0.8,1.7-1.5,2.5-2.2
		c0.7-0.5,0.9-1.2,0.6-2C678.4,60.8,678.2,60.3,677.9,59.7z M666.3,80.5c0.2-1,0.2-1.9,0.4-2.7c0.5-1.9-0.5-3.2-2.5-3.1
		c0,0.8,0.2,1.6,0.1,2.3C663.9,79.4,664.1,79.7,666.3,80.5z M585.3,102.8c3.7,0,5.6-1.1,5.1-2.8c-1-0.1-2-0.2-3-0.3
		c-1.4-0.1-1.9,0.3-2,1.7C585.3,101.9,585.3,102.3,585.3,102.8z M680.9,63.5c0.7-0.7,1.3-1.4,2-2c1.4-1.2,1.4-2.5,0.2-3.6
		c-0.7,0.6-1.3,1.2-1.9,1.7C679.6,60.8,679.5,62.3,680.9,63.5z M589.7,107.1c-0.9,0.7-1.8,1.3-2.5,2.1c-0.4,0.4-0.6,1.2-0.5,1.8
		c0.1,0.7,0.5,1.4,0.8,2.2c0.7-0.8,1.3-1.6,1.9-2.3C590.5,109.7,590.6,108.4,589.7,107.1z M598.8,125.9c0.7-0.8,1.5-1.5,2.1-2.4
		c0.3-0.4,0.4-1.2,0.2-1.6c-0.4-0.7-1.1-1.3-1.6-1.9c-0.5,0.9-0.9,1.6-1.4,2.3C597.2,123.5,597.4,124.7,598.8,125.9z M591,110.8
		c-0.7,0.9-1.4,1.8-2,2.8c-0.2,0.4-0.3,1-0.1,1.4c0.4,0.8,1,1.4,1.4,2.1c0.6-1.1,1.1-2.1,1.6-3.1C592.5,112.8,592.1,111.5,591,110.8
		z M596.4,122.7c0.5-0.9,1-1.6,1.3-2.4c0.2-0.6,0.5-1.4,0.3-1.8c-0.4-0.8-1.1-1.4-1.7-2.1c-0.4,1-0.6,1.9-1,2.7
		C594.6,120.6,595,122,596.4,122.7z M567,115.2c-0.8,0.7-1.6,1.4-2.3,2c-1.1,0.9-1.3,1.4-0.6,2.6c0.2,0.4,0.6,0.8,0.8,1.2
		c0.6-0.7,1-1.4,1.6-2C567.8,117.7,568,116.6,567,115.2z M562.8,117c0.3-0.5,0.5-0.8,0.7-1.1c0.3-0.3,0.7-0.6,1-0.8
		c1.5-1,1.7-2.1,0.9-3.6c-0.4,0.3-0.8,0.6-1.2,0.9c-0.4,0.3-0.9,0.5-1.4,0.7c-1.1,0.5-1.4,1.3-0.9,2.3
		C562.2,115.9,562.5,116.4,562.8,117z M567.2,124.9c0.4-0.6,0.7-1.3,1.1-1.8c1.4-1.5,1.5-2.4,0.3-4.2c-0.6,0.7-1,1.5-1.7,1.9
		C565.1,121.9,565.5,124,567.2,124.9z M569.9,86c-0.8-0.4-1.6-0.7-2.3-1.1c-1.9-1.2-3-0.9-3.7,1.3c0.8,0.3,1.6,0.5,2.3,0.9
		C567.8,87.8,568.9,87.5,569.9,86z M569.6,128.7c0.5-0.9,1.1-1.7,1.6-2.5c0.7-1.1,0.4-2.5-0.7-3.3c-0.5,0.6-0.8,1.3-1.4,1.9
		C567.6,126.4,567.7,127.5,569.6,128.7z M572.4,83.6c-2.5-3.1-3.4-3.2-5.4-0.9c0.8,0.5,1.7,1,2.4,1.6
		C570.6,85.3,571.6,85.1,572.4,83.6z M561.7,90.1c0.9,0.1,1.7,0.1,2.4,0.3c1.8,0.5,2.9-0.1,3.4-1.7c-0.8-0.2-1.6-0.3-2.4-0.6
		C563,87.2,561.9,87.8,561.7,90.1z M660.3,72.6c0,0.9,0.1,1.7,0,2.5c-0.1,1.8,0.5,2.7,2.2,3.1c0.1-0.9,0.2-1.7,0.3-2.6
		C663.2,73.5,662.4,72.5,660.3,72.6z M593.5,119.7c0.4-0.8,0.7-1.6,1.1-2.3c1.2-1.9,0.8-3-1.3-3.6c-0.3,0.8-0.6,1.6-0.9,2.4
		C591.8,117.7,592.1,118.9,593.5,119.7z M561.1,112.2c0.9-0.5,1.7-1.1,2.6-1.6c1.3-0.7,1.6-1.9,0.8-3.3c-0.8,0.4-1.6,0.8-2.4,1.3
		c-0.1,0.1-0.3,0.2-0.4,0.2C560.5,109.7,560.3,111.2,561.1,112.2z M564.2,99.5c-0.7,0.2-1.4,0.4-2.1,0.5c-2.3,0.2-3,1.1-2.7,3.3
		c0.8-0.3,1.6-0.7,2.4-0.8C563.8,102.2,564.4,101.6,564.2,99.5z M564.1,103.3c-0.8,0.3-1.5,0.7-2.2,0.9c-2,0.6-2.5,1.8-1.7,3.6
		c0.8-0.4,1.5-0.9,2.4-1.2C564.1,106,564.7,105,564.1,103.3z M676,83.1c-0.3-2.4-1.8-3.8-3.8-4.8c0.1,1.3,0.1,2.5,0.3,3.8
		c0.1,0.4,0.5,0.9,0.9,0.9C674.3,83.2,675.2,83.1,676,83.1z M564.6,95.6c-1,0.1-1.9,0.2-2.8,0.2c-1.9,0.1-2.7,1.1-2.4,2.9
		c0.8-0.1,1.7-0.4,2.5-0.4C563.9,98.2,564.6,97.5,564.6,95.6z M560.2,94.4c0.9,0,1.8-0.2,2.6-0.1c1.8,0.1,2.7-0.5,2.9-2.3
		c-0.9,0-1.8-0.1-2.7-0.1C561.1,91.6,560.2,92.5,560.2,94.4z M571.1,110.8c-1-0.6-1.8-1.1-2.7-1.4c-0.6-0.2-1.2-0.1-2.2-0.2
		c0.8,1.5,0.4,3.2,2,3.6C569.6,113.1,570.2,111.5,571.1,110.8z M678,54.3c1.2-0.6,2.4-1.1,3.5-1.7c0.3-0.2,0.6-0.7,0.5-1
		c-0.1-0.3-0.6-0.7-0.9-0.8C678.9,50.4,677.4,52,678,54.3z M672.8,56.3c0.9-0.5,1.8-1,2.6-1.4c0.3-0.1,0.6-0.2,0.8-0.4
		c0.2-0.2,0.5-0.6,0.5-0.9c-0.1-0.3-0.4-0.7-0.7-0.8c-1.1-0.3-2.1-0.1-2.9,0.9C672.3,54.5,672.3,55.4,672.8,56.3z M668.5,95
		c0.4,1.1,1,1.4,2,0.9c1-0.5,2-0.9,3-1.4c0.3-0.2,0.3-0.7,0.5-1.1c-0.4-0.1-0.8-0.5-1.1-0.4C671.5,93.6,670,94.4,668.5,95z
		 M595.5,136.6c-0.1,0.1-0.2,0.2-0.3,0.4c0.8,0.8,1.5,2,2.5,2.3c0.7,0.2,1.8-0.7,2.7-1.2c-0.1-0.1-0.1-0.2-0.2-0.4
		C598.6,137.3,597.1,137,595.5,136.6z M583.7,81.9c-0.3,1.7-0.6,3.3-1,5C585.8,85.4,586,84.7,583.7,81.9z M602,124.1
		c-0.8,1-1.5,1.7-2.2,2.5c0.7,0.4,1.3,0.8,1.9,1.1c0.9,0.4,1.6,0,1.4-1C603,125.9,602.4,125.1,602,124.1z M587.1,98.2
		c1,0.2,2,0.3,3.2,0.5c-0.3-1.1,0.4-2.7-0.9-3c-1.4-0.4-1.6,1.2-2.2,2.1C587.1,97.9,587.1,98,587.1,98.2z M574.7,79.5
		c-1.5-0.6-2.5,0-3.5,0.9c0.7,0.6,1.3,1.2,2,1.8C573.7,81.3,574.2,80.5,574.7,79.5z M683.4,73c-1.5,0.6-2.8,1-4.3,1.6
		c1.5,0.7,2.8,1.2,4,0.5C683.4,74.9,683.3,73.7,683.4,73z M677.1,81.4c-0.1,0.1-0.2,0.2-0.3,0.4c0.5,0.6,0.8,1.4,1.4,1.6
		c1,0.3,1.9-0.1,2.8-1C679.6,82,678.4,81.7,677.1,81.4z M685.1,74.6c1.6-0.8,2.4-2,3-3.6C685.6,71.6,684.7,72.7,685.1,74.6z
		 M647.1,69.4c1,1.1,1.8,2,2.8,3.2C650,69.5,649.6,69.1,647.1,69.4z"/>
	<path d="M66.5,89.7c-0.3-4.5-0.6-8.6-0.8-12.7c-0.2-4.5-0.6-9-0.6-13.5c-0.1-15,0-29.9,0-44.9c0-2.6,1-4.1,3.3-4.9
		c2.5-0.9,5.5-0.3,6.7,1.5c0.6,0.9,0.9,2.2,0.9,3.2c0.1,13.8,0,27.6,0,41.4C76,73,76,86,76,99c0,3.4-1.3,5.4-4.1,6.3
		c-3.1,1-6.7,0-8.5-2.4C46,79.6,28.5,56.2,11,32.7c-0.3-0.3-0.5-0.7-1-1.3c0.2,3.1,0.4,5.9,0.5,8.7c0.2,4.9,0.6,9.7,0.6,14.6
		c0.1,15.4,0,30.7,0.1,46.1c0,5-4.9,6.7-8.2,5c-1.7-0.9-2.7-2.3-2.7-4.2c0-27.6,0-55.1,0-82.7c0-4.4,4.5-7,8.5-4.9
		c1.2,0.6,2.3,1.6,3.1,2.7c17.9,23.9,35.8,47.8,53.7,71.7C65.8,88.7,66.1,89.1,66.5,89.7z"/>
	<path d="M352.1,61.3c-0.1-14.3,3.6-25.7,12.5-35c7.4-7.8,16.5-12.2,27.2-13.3c9.2-0.9,18.1,0.2,26.5,4.4
		c14.1,7.1,22.7,18.5,24.9,34.2c2,14-1,27-9.9,38.2c-7.9,10-18.4,15.5-31.1,16.6c-12.4,1-23.7-1.9-33.4-9.8
		c-8.5-6.8-13.4-15.9-15.5-26.4C352.7,66.8,352.4,63.3,352.1,61.3z M362.9,58.7c-0.1,0-0.2,0-0.3,0.1c0.5,3.6,0.8,7.3,1.6,10.9
		c4.3,18.2,19.3,28.1,36.3,27c13.3-0.9,23.1-7.3,28.8-19.4c4.3-9,5.1-18.5,2.7-28.2c-2.6-10.6-8.8-18.4-18.6-23.2
		c-6.4-3.2-13.3-4-20.3-3.2c-9.4,1-17.2,5-23,12.6C364.9,42.2,362.9,50.2,362.9,58.7z"/>
	<path d="M530.6,65c-0.5,0-1,0-1.4,0c-8.1,0-16.2,0-24.2,0c-2.3,0-4.1-1.4-4.5-3.4c-0.5-2.4,0.6-4.8,2.8-5.6
		c0.7-0.3,1.5-0.4,2.2-0.4c9.9,0,19.8,0,29.6,0c0.4,0,0.7,0,1.1,0c2.7,0.2,4.2,1.6,4.5,4.4c0.1,0.9,0.1,1.8,0.1,2.8
		c0,7.2,0,14.3,0,21.5c0,1.9-0.3,3.6-1.6,5.1c-6.8,8.7-15.7,13.9-26.3,16.1c-15.2,3-28.8-0.6-40.2-11.1
		c-9.4-8.7-14.3-19.6-14.7-32.4c-0.6-17.6,6.6-31.3,20.8-41.4c8.8-6.3,18.8-8.5,29.6-7.4c6.9,0.7,13.5,2.5,19.6,5.9
		c3.4,2,6.5,4.3,9,7.4c1.7,2.1,1.5,4.7-0.3,6.7c-2.2,2.3-5.2,2.3-7.3-0.1c-4.9-5.6-11.1-8.8-18.3-10.2c-9-1.7-17.3,0.4-24.9,5.1
		c-10.3,6.4-16.5,15.6-17.7,27.7c-1,10.3,2.1,19.5,8.6,27.5c5.6,6.9,12.7,11.7,21.6,12.9c12.5,1.7,23.1-2,31.5-11.6
		c0.3-0.4,0.6-0.9,0.6-1.4c0-5.8,0-11.7,0-17.5C530.7,65.5,530.7,65.3,530.6,65z"/>
	<path d="M109.7,23.7c0,10.7,0,21.3,0,32c0.5,0,1,0,1.5,0c17.1,0,34.2,0,51.4,0c3.7,0,5.3,2.9,4.8,5.7c-0.3,1.8-1.6,3.1-3.4,3.4
		c-0.7,0.1-1.4,0.1-2.2,0.1c-16.8,0-33.7,0-50.5,0c-0.5,0-1,0-1.6,0c0,10.3,0,20.5,0,30.8c0.5,0,1,0,1.5,0c18.1,0,36.2,0,54.2,0
		c3.5,0,5.8,2.7,5.1,6.1c-0.4,1.8-1.7,3-3.5,3.3c-0.6,0.1-1.3,0.1-1.9,0.1c-19.5,0-39,0-58.4,0c-0.9,0-1.9-0.1-2.8-0.3
		c-2.5-0.6-4.1-2.6-4.4-5.1c-0.1-0.6-0.1-1.1-0.1-1.7c0-25.4,0-50.9,0-76.3c0-4.8,3.1-7.1,7.1-7.1c19.7,0,39.4,0,59,0
		c3.7,0,5.7,2.5,4.8,5.8c-0.5,2.1-2.2,3.3-4.4,3.3c-6.2,0-12.5,0-18.7,0c-12,0-24.1,0-36.1,0C110.6,23.7,110.2,23.7,109.7,23.7z"/>
	<path d="M592.9,82.4c0.9-1.9,1.6-3.7,2.6-5.4c0.3-0.6,1.1-1,1.8-1.2c0.8-0.3,1.6-0.3,2.4-0.5c0.3-0.1,0.5-0.4,0.8-0.6
		c-0.3-0.2-0.6-0.5-0.9-0.5c-0.6-0.1-1.3,0-2.1-0.3c1.6-1.7,3.2-3.4,4.8-5.2c0.1,0.1,0.2,0.1,0.3,0.2c0.1,1.6,0.6,3.1-0.5,4.7
		c-1.3,1.8-0.6,5.5,1.1,7.2c1.7,1.7,3.5,3.3,5.2,4.9c0.3,0.3,0.8,0.3,1.2,0.5c0.1-0.1,0.2-0.2,0.3-0.3c-0.7-1.1-1.3-2.3-2-3.4
		c0-0.1,0.1-0.2,0.1-0.4c0.5,0.1,1.2,0.1,1.4,0.4c1,1.3,1.9,2.7,2.8,4c0.2,0.3,0.3,0.8,0.6,0.9c1.7,0.7,3.5,1.3,5.2,1.8
		c1.2,0.4,2.4,0.7,3.6,1c0.1,0,0.3,0.2,0.3,0.3c0.1,1.6,1.1,1.4,2.3,1.3c1.8-0.2,2.7,0.9,2.2,2.7c-0.1,0.5-0.3,1-0.4,1.5
		c-0.9,2.7,0,4.9,2.5,6.3c0.8,0.4,1.6,0.8,2.3,1.2c1,0.6,1.3,1.4,1.2,2.5c-0.5,3.4-1,6.8-1.5,10.2c-0.2,1.2-0.4,2.4,1,3.3
		c0.5-0.6,0.9-1.3,1.4-1.9c1.2-1.7,2.3-3.4,3.6-5.1c0.4-0.6,1-1,1.5-1.5c0.8-0.9,1.5-1.9,2.4-2.8c0.7-0.8,1.6-1.5,2.3-2.3
		c0.3-0.3,0.7-0.7,1-1c1.3-1.8,2.5-3.7,3.9-5.5c0.5-0.7,0.6-1.3-0.2-1.8c-1.3-1-2.2-2.5-4-2.7c-0.2,0-0.4-0.2-0.5-0.3
		c-1.1-2-3.2-2.7-4.9-3.8c-0.5-0.4-1.1-0.6-1.6-1c-2.2-1.7-4.8-1.8-7.4-1.6c-0.5,0-1.2,0.4-1.5,0.8c-0.8,1.1-2.1,1.1-3.2,1.3
		c-0.3,0-0.6-0.3-0.9-0.6c-0.5-0.5-0.9-1.1-1.3-1.6c-0.1,0.1-0.3,0.1-0.4,0.2c0.1-0.6,0.1-1.1,0.2-2c-0.5,0.1-1.1,0.1-1.3,0.4
		c-0.8,0.9-1.7,0.8-2.7,0.7c-0.3,0-0.7-0.4-0.7-0.7c-0.1-1.6-0.2-3.2-0.2-4.8c0-0.3,0.4-0.9,0.8-0.9c1.7-0.3,3.3-0.6,5-0.8
		c0.9-0.1,1.2,0.8,1.5,1.5c0.6,1.3,1,1.7,2.4,1.8c-0.2-0.9-0.3-1.7-0.5-2.5c-0.2-0.6-0.6-1.1-0.9-1.6c-0.5-0.8-0.5-1.6,0.2-2.3
		c0.8-0.8,1.8-1.6,1.7-3c0-0.3,0.3-0.6,0.6-0.9c1.1-1.1,2.1-2.2,3.2-3.2c0.6-0.5,1.4-0.9,2.2-1.3c-2.2-1-4.1-2.6-6.7-3
		c0.2,0.5,0.2,0.9,0.4,1.1c0.5,0.8,0.6,1.5-0.6,1.8c-0.3,0.1-0.4,0.6-0.6,0.9c-1.5-0.9-3.1-1.8-4.6-2.8c-0.7-0.4-0.4-1,0.2-1.3
		c0.9-0.5,1.9-1,2.9-1.8c-0.7-0.1-1.4-0.4-2-0.4c-3.2,0.1-6.5,0.4-9.6,1.3c-0.6,0.2-1.4,0.4-1.9-0.4c5-4.2,23.3-4,29.7,2
		c-1.5,0-3.1,0-4.7,0c-0.4,0-0.9-0.1-1.3,0c-0.3,0.1-0.6,0.3-0.8,0.5c0.3,0.2,0.5,0.6,0.8,0.6c2.3,0.4,4.6,0.7,6.9,1
		c2.3,0.3,4.2,1.3,5.6,3.2c0.9,1.2,2,2.3,3.2,3.7c-1.3-0.2-2.2-0.5-3.2-0.6c-2.6-0.2-5.2-0.4-7.8-0.5c-0.4,0-0.7,0.3-1.1,0.5
		c0.3,0.2,0.7,0.4,1,0.5c3.7,0.7,7.4,1.3,11.1,2c1,0.2,1.6,0.7,2,1.7c0.7,1.7,1.5,3.3,2.4,5.3c-1.8-0.3-3.3-0.7-4.8-0.9
		c-2.7-0.3-5.3-0.5-8-0.7c-0.4,0-0.9,0.2-1.3,0.3c0,0.2,0,0.3,0,0.5c0.4,0.1,0.8,0.2,1.3,0.3c4,0.7,8,1.5,12,2.2
		c0.8,0.2,1.3,0.6,1.4,1.5c0.2,1.9,0.5,3.7,0.8,5.5c-2.9-0.3-5.8-0.6-8.6-0.9c-0.2,0-0.4-0.1-0.6-0.1c-0.3,0.1-0.6,0.3-0.9,0.5
		c0.3,0.2,0.5,0.5,0.8,0.6c2.5,0.5,5,1,7.5,1.5c1.8,0.3,1.8,0.4,1.5,2.2c-0.2,1.6-0.4,3.2-0.7,4.8c-1.9,0.4-3.8-0.7-5.6,0.2
		c0,0.2,0,0.3-0.1,0.5c1.7,0.4,3.3,0.9,5.2,1.4c-1.1,2.4-2.2,4.7-3.3,7c-2.4-0.3-4.7-0.6-7-0.9c-0.3,0-0.7-0.1-1,0
		c-0.3,0.1-0.5,0.3-0.8,0.5c0.2,0.2,0.4,0.5,0.6,0.5c1.7,0.4,3.4,0.7,5.1,1.1c0.5,0.1,0.9,0.2,1.7,0.4c-0.6,0.8-1,1.4-1.6,2
		c-1.3,1.4-2.7,2.7-4.1,4c-0.4,0.4-1.2,0.6-1.7,0.5c-2.2-0.1-4.3-0.4-6.4-0.6c-0.4,0-0.8,0.3-1.2,0.4c0.3,0.2,0.7,0.6,1,0.7
		c1.7,0.4,3.4,0.7,5.2,1.1c-8.6,6.8-25.2,7.9-36.2-0.7c2.2-0.3,4.1-0.5,6.1-0.8c0.2,0,0.3,0,0.5,0c0.4-0.2,0.7-0.4,1.1-0.6
		c-0.4-0.2-0.7-0.5-1.1-0.5c-2.4,0.1-4.8,0.2-7.2,0.4c-1,0.1-1.9,0-2.6-0.8c-1.4-1.6-2.8-3.1-4.1-4.7c-0.3-0.4-0.5-0.8-1-1.4
		c2.9-0.4,5.5-0.8,8.1-1.2c1-0.1,2-0.1,3-0.3c0.3,0,0.5-0.3,0.8-0.5c-0.3-0.2-0.6-0.6-0.9-0.6c-2.3,0-4.6,0.1-6.9,0.2
		c-1.3,0.1-2.6,0.4-3.9,0.6c-0.8,0.1-1.3,0-1.6-0.8c-0.9-2-1.8-4.1-2.7-6.2c4.7-1.6,9.4-1.5,14-2.2c0.1-1-0.6-1-1.1-0.9
		c-3.5,0.3-7.1,0.5-10.6,0.9c-0.8,0.1-1.6,0.3-2.6,0.4c-0.2-2-0.4-3.8-0.6-5.7c-0.1-0.9,0.3-1.3,1.1-1.5c4-1,7.9-1.8,12.1-1.8
		c0.3,0,0.7,0.1,1,0c0.2-0.1,0.4-0.3,0.6-0.4c-0.2-0.2-0.3-0.5-0.5-0.5c-0.7-0.1-1.4-0.2-2.1-0.2c-3.7,0.4-7.4,0.8-11.1,1.3
		c-0.3,0-0.6,0.1-1.1,0.2c0.3-2.1,0.6-4.1,1-6c0.2-1.1,1.3-1.3,2.3-1.4c2.3-0.3,4.5-0.6,6.8-1c0.3-0.1,0.6-0.3,0.9-0.5
		c-0.3-0.2-0.7-0.6-1-0.6c-2.4,0.1-4.9,0.2-7.3,0.4C593.7,82.3,593.4,82.3,592.9,82.4z"/>
	<path d="M628.8,28.6c1.2-0.5,2-1,2.9-1.2c1.5-0.4,2.9-0.7,4.4-1.1c1.5-0.4,1.9-0.7,1.7-2.2c-0.3-1.6,0.5-2.2,1.6-3.1
		c2.2-1.9,4.2-1.6,6.6-0.3c10.3,5.3,20.7,10.5,31.1,15.7c0.2,0.1,0.4,0.2,0.6,0.3c1.2,0.6,1.3,1.2,0.2,2.1c-2.7,2.2-5.9,3.2-9.4,3.3
		c-1.5,0-3,0-4.4,0c-1.6,0-2.9-0.5-4.2-1.4c-3.9-2.8-7.9-5.4-11.9-8.1c-0.7-0.5-1.4-0.9-2.2,0.2c3.3,3,6.6,6,9.8,9.1
		c-3,0.1-6,0.9-8.4-1.7c-1.2-1.3-2.6-2.5-3.9-3.7c-0.3-0.3-0.6-0.6-1-0.6c-0.3-0.1-0.8,0.1-1.1,0.3c-0.1,0.1,0,0.7,0.2,0.9
		c1.3,1.8,2.6,3.6,4,5.4c0.8,1.1,0.7,1.3-0.4,2.1c-1.6,1.1-3.4,1.2-5.3,1.2c-1.4,0-3,0.4-4-0.2c-0.9-0.6-1.1-2.4-1.6-3.6
		c-0.1-0.3-0.2-0.7-0.4-1c-0.2-0.3-0.6-0.5-0.9-0.5c-0.3,0-0.8,0.3-0.9,0.6c-0.6,2.1-1.3,4.1-1.6,6.3c-0.1,0.9,0.6,2.1,1.2,3
		c1.9,2.8,4,5.4,6,8.1c0.4,0.6,1,1.1,0.4,1.9c-0.6,0.8-1.2,1.6-2.5,1.4c-2.4-0.5-4.3-1.6-5.3-4c-0.3-0.8-0.8-1.6-1.4-2.4
		c-0.2-0.3-0.8-0.6-1.2-0.5c-0.7,0.1-0.8,0.7-0.6,1.3c0.3,1.1,0.5,2.2,0.8,3.5c-2.9,0-5.7,0-8.6,0c0.3-1.2,0.5-2.3,0.8-3.4
		c0.1-0.6,0.1-1.2-0.6-1.4c-0.8-0.3-1,0.2-1.3,0.7c-0.8,1.4-1.6,2.8-2.4,4.2c-0.6,1.1-3.8,2.4-5.1,2.2c-1.4-0.3-2.1-2.1-1.3-3.3
		c1.9-2.6,3.8-5.3,5.8-7.8c1.4-1.8,1.9-3.5,1-5.7c-0.5-1.1-0.5-2.3-1-3.5c-0.2-0.5-0.8-0.9-1.3-1.1c-0.1-0.1-0.7,0.6-0.9,1
		c-0.5,1.1-0.8,2.2-1.2,3.3c-0.3,0.8-0.7,1.2-1.6,1.1c-1.9-0.1-3.8-0.2-5.7-0.3c-0.3,0-0.5-0.1-0.8-0.2c-3-1-3.2-1.5-1.3-4
		c1-1.3,2-2.7,3-4.1c0.2-0.3,0.2-0.9,0.2-1.4c-0.5,0.1-1.3-0.1-1.6,0.2c-1.4,1.2-2.7,2.4-3.9,3.7c-1.5,1.7-3.3,2.5-5.6,2.3
		c-1-0.1-2,0-3.4,0c3.5-3.2,6.8-6.3,10.1-9.3c-0.7-1.2-1.4-0.8-2.1-0.3c-3.2,2.2-6.5,4.3-9.6,6.6c-2.8,2.2-5.8,3.1-9.3,2.9
		c-3.3-0.2-6.6-0.2-9.4-2.1c-0.7-0.5-1.4-0.9-2.1-1.5c-0.6-0.5-0.6-1,0.1-1.4c0.6-0.4,1.3-0.7,2-1c10.4-5.3,20.7-10.5,31.1-15.8
		c1.8-0.9,3.4-1,5,0.4c0.2,0.2,0.4,0.4,0.7,0.5c1.3,0.6,1.8,1.5,1.6,3c-0.2,1.6,0.1,1.9,1.6,2.2c1.5,0.4,3,0.6,4.4,1.1
		c0.7,0.2,1.4,0.8,2.1,1.1c0.3,0.1,0.8,0.2,1,0c1.2-0.7,2.3-0.5,3.5,0.2c0.9,0.6,1.9,1,3,0.3C626.1,27.9,627.6,27.5,628.8,28.6z"/>
	<path d="M247.7,23.3c-0.7,0-1.1,0-1.6,0c-7.5,0-15,0-22.6,0c-3.6,0-5.9-2.6-5.4-5.9c0.4-2.4,2.6-4.3,5.3-4.3c5.1,0,10.2,0,15.4,0
		c6.4,0,12.9,0,19.3,0c3.9,0,6,2.3,5.8,6.1c-0.1,2.3,0,4.6,0,6.8c0,10.2,0,20.5,0,30.7c0,3.6-3,5.6-6.3,4.3
		c-1.8-0.7-2.8-2.2-2.8-4.5c0-8,0-16.1,0-24.1c0-0.4,0-0.8,0-1.6c-2.3,2.7-4.4,5-6.4,7.4c-5.9,6.8-11.8,13.7-17.7,20.5
		c-7.4,8.6-14.8,17.1-22.2,25.7c-3.6,4.2-7.3,8.3-10.9,12.5c-2.2,2.5-4.3,5.2-6.5,7.7c-1.4,1.6-3.2,2-5.1,1.5
		c-1.9-0.5-3.1-1.8-3.6-3.7c-0.5-1.8,0-3.4,1.2-4.8c4.6-5.3,9.1-10.6,13.7-15.9c8.4-9.7,16.8-19.5,25.2-29.2
		c8.2-9.5,16.4-18.9,24.5-28.4C247.2,24,247.4,23.7,247.7,23.3z"/>
	<path d="M292.2,95.6c0.7,0,1.2,0,1.6,0c17,0,34.1,0,51.1,0c1.1,0,2.2,0.2,3.2,0.5c2,0.8,3,2.7,2.7,4.8c-0.3,2-1.9,3.6-4.1,3.9
		c-0.7,0.1-1.5,0.1-2.3,0.1c-18.8,0-37.7,0-56.5,0c0,0-0.1,0-0.1,0c-4.7,0-6.2-1.4-6.2-6.1c0-26.8,0-53.6,0-80.4
		c0-4.9,4.7-6.5,8-4.9c1.6,0.8,2.5,2.2,2.6,4c0,0.6,0,1.2,0,1.8c0,24.8,0,49.7,0,74.5C292.2,94.5,292.2,95,292.2,95.6z"/>
	<path d="M568.1,114.2c1.5-0.1,2.6-1,3.5-2.1c0.2-0.3,0.6-0.6,1-0.6c1.3-0.1,2.1-0.9,3-1.8c0.5-0.6,1.3-0.9,1.8-1.4
		c0.7-0.6,1.6-1.1,2-1.9c0.6-1,1.2-1.5,2.4-1.4c0.6,0,1.3,0,1.6,0c0.5,1.6,1,3.1,1.5,4.5c0.6,1.6,1.3,3.2,1.9,4.8
		c0.1,0.3,0,0.7-0.2,1c-0.8,1.7-0.8,2.6,0.7,3.7c2.6,2.1,5.2,4.1,7.9,6c2.2,1.5,4.4,2.9,6.7,4.2c2,1.1,3.4,2.5,3.1,5.1
		c3.6,0.1,7,0.2,10.4-0.5c0.3-0.1,0.5-0.4,1.1-0.9c-1.9-0.2-3.5-0.3-5.1-0.5c-0.8-0.1-1.7-0.4-2.5-0.4c-2.1,0-2.9-1.3-3.4-3.1
		c-0.2-0.9-0.4-1.8-0.7-3c6.7,3,13.1,5.9,20.3,6.3c-2.7,6.2-14.8,12.1-20.5,9.9c0.4-1.5,0.7-3,1.1-4.4c-3.5-0.8-7-1.5-10.3-2.4
		c-6.9-1.9-13.4-4.8-19.6-8.3c-1-0.6-2-1.4-2.5-2.3C571.3,121.3,569.2,118,568.1,114.2z"/>
	<path class="st1" d="M240.5,54.9c-0.6,2-1.3,3.7-1.6,5.4c-1,4.4-0.1,8.6,2.5,12.2c2.4,3.4,5.1,6.6,7.8,9.7
		c4.5,5.3,9.1,10.4,13.6,15.7c2.3,2.7,1.2,6.8-2,8c-2.1,0.8-4.3,0.1-6-1.8c-4.4-4.9-8.8-9.8-13.2-14.7c-3.4-3.7-6.8-7.4-10.1-11.3
		c-1.8-2.2-4-2.6-6.5-1.9c-1.2,0.3-2.3,0.8-3.8,1.3C227.5,70,233.9,62.6,240.5,54.9z"/>
	<path class="st1" d="M224.9,42.2c-6.6,7.6-13,15.1-19.4,22.5c0,0-0.1,0-0.1-0.1c0.1-0.2,0.1-0.4,0.2-0.6c3.2-6.8,2.2-13.1-2.4-18.8
		c-3.8-4.7-7.8-9.2-11.7-13.8c-2.6-3.1-5.3-6.2-8-9.2c-2-2.4-2-5.4,0.1-7.3c2.1-2,5.3-1.8,7.5,0.5c2.4,2.6,4.6,5.2,6.9,7.8
		c5.5,6.1,11.1,12.2,16.5,18.4c1.9,2.2,4.1,2.7,6.7,2C222.4,43.1,223.5,42.7,224.9,42.2z"/>
	<path d="M652.3,63.8c2.7-1.2,5.2-2.4,7.8-3.6c1.5,3.3,3,6.4,4.6,9.9c1.1-0.7,2.2-1.2,3.1-2c0.4-0.3,0.4-1.1,0.5-1.6
		c0-2.8,0.7-5.4,2.2-7.7c0.3-0.4,0.6-0.7,1-1.1c-0.2,1.7,0.6,3,1.3,4.4c0.4,0.7,0.3,1.8,0.2,2.7c-0.1,1.4-0.1,2.6,1.3,3.6
		c1.2,0.8,1.6,2.3,1.4,3.8c-0.1,1,0.2,1.6,0.9,2.2c2.8,2.4,6.2,2.9,9,1.4c2.9-1.5,4.5-4.8,4.2-8.4c-0.3-2.9-1.7-5.1-3.7-7.2
		c-1.5-1.6-2.5-3.5-2.1-6c0.2,0,0.4,0,0.5,0c8.5,2.6,12.6,13.9,7.7,21.4c-4,6.1-12.1,7.5-17.8,2.8c-1.7-1.4-3.7-2.1-5.5-3.1
		c-1.9-1-3.8-2.1-5.8-3.1c-2.2-1.1-4.4-2.1-6.7-2.9c-1.1-0.4-1.9-0.7-2.4-1.9C653.5,66.2,652.9,65.1,652.3,63.8z"/>
	<path d="M646.3,9c-0.5,0-1.1-0.1-1.6-0.1c-8,0-15.9,0-23.9,0c-1.5,0-2.9-0.2-4.2-1.1c-0.4-0.3-0.9-0.5-1.3-0.6
		c-0.4,0-1,0.1-1.3,0.4c-0.2,0.2-0.1,0.8,0.1,1.2c0.5,1.1,1.1,2.2,1.6,3.3c-0.1,0.1-0.1,0.2-0.2,0.3c-0.4-0.2-0.9-0.4-1.1-0.7
		c-1.6-1.7-3.1-3.4-4.6-5.2c-1.4-1.7-1.2-3.4,0.7-4.6c1.1-0.7,2.3-1.1,3.5-1.5c0.4-0.1,1,0,1.4,0.2c3.8,2.1,7.8,2.4,12.1,2.3
		c6.1-0.1,12.1,0,18.2,0c1.5,0,1.7,0.1,1.8,1.7c0.1,1.1,0.5,1.3,1.4,0.9c1-0.4,2-0.9,3.1-1.4c0.4,1.1-0.5,1.7-0.9,2.4
		c-0.2,0.4-0.6,1.1-0.5,1.2c0.4,0.4,1,0.7,1.5,0.8c0.8,0.1,1.6-0.2,2.4-0.2c0.3,0,0.6,0.1,1.2,0.3c-2.7,1.7-5.1,3.3-8.1,3.1
		c-0.4,0-0.9-0.7-1.2-1.2C646.2,10.1,646.3,9.5,646.3,9z"/>
	<path d="M582.5,81.2c-0.5,2.9-1,5.8-1.5,8.7c-0.2,1.3-0.5,2.5-0.6,3.8c-0.4,3.8-2.7,6.4-5.4,8.6c-1.9,1.5-4,2.6-6,4
		c-0.6,0.4-1,0.9-1.5,1.3c-0.3,0.2-0.7,0.4-1.1,0.3c-0.2,0-0.3-0.6-0.4-0.9c-0.1-0.4,0-0.8,0-1.2c2.3-9.5,5.4-18.7,10.7-27
		c0.7-1.1,1.6-1.8,3-1.9c1.5-0.1,2,0.3,2.4,1.7c0.1,0.3,0.2,0.6,0.2,0.9c0.1,0.6,0.1,1.1,0.2,1.7C582.4,81.1,582.5,81.1,582.5,81.2z
		"/>
	<path d="M571.9,74c4.7-7.9,16.4-11.6,24-10c-1.7,3.1-3.5,6.1-5,9.3c-1.5,3.2-2.6,6.5-4,9.8c-1.6-1.2-2.7-2.7-3.3-4.5
		c-1.1-3.4-1.7-3.8-5.2-2.8c-1.1,0.3-2.2,0.3-3.2-0.2C574.2,75,573.1,74.5,571.9,74z"/>
	<path d="M652,75.3c1.7,0.5,3.2,1,4.7,1.5c0.1,0,0.3,0.2,0.4,0.2c3.9,1.5,7.1,4.1,10.9,5.8c0.3,0.1,0.5,0.3,0.8,0.3
		c0.7,0.2,1.8,0.3,2.2,0.8c0.7,0.9,1.1,2.1,1.6,3.1c-0.7,0.8-2.4,0.8-1.9,2.5c1-0.4,1.9-0.8,2.8-1.3c1-0.5,1.2,0.1,1.6,0.8
		c0.4,0.7,0.4,1.2-0.5,1.6c-2.7,1.2-5.4,2.5-8,3.7c-0.3,0.1-1.1,0-1.2-0.2c-0.3-0.6-0.3-1.3-0.4-1.9c0-0.3,0.3-0.7,0.2-0.9
		c-1.6-3.5-3.2-6.9-4.9-10.5c-1.6,0.7-3.1,1.4-4.7,2.1C654.4,80.6,653.3,78.1,652,75.3z"/>
	<path d="M616.9,26.7c0.6-2.1,1.1-4,1.8-5.8c0.4-1.1,0.3-1.8-0.9-2.4c-1.4-0.7-2.8-1.5-4.2-2.3c0.4-0.6,0.8-1.4,1.4-2.1
		c0.3-0.4,0.8-0.6,1.3-0.7c0.9-0.1,1.8,0.1,2.6,0.1c0.9,0,1.4,0.5,1.8,1.2c0.7,1.4,1.2,1.4,2.8,0.3c-0.8-0.6-1.5-1.2-2.5-1.9
		c0.9,0,1.5-0.3,2-0.1c2.1,1.1,4.4,1.8,4.9,4.7c0.5,3,1.5,5.9,2.3,9c-0.6-0.2-1.1-0.3-1.4-0.5c-1.2-0.8-2.4-0.6-3.6,0.2
		c-1,0.7-2.1,0.9-3.1,0.1c-1.4-1-2.8-1.1-4.2-0.1C617.6,26.5,617.4,26.5,616.9,26.7z"/>
	<path d="M403.8,134.4c0.7-2.8,1.4-5.2,2-7.7c0.2-0.6,0.2-1.1,1.1-1.1c0.8,0,0.8,0.5,1,1.1c0.6,2.4,1.2,4.9,1.8,7.6
		c0.8-3,1.5-5.8,2.2-8.6c0.5,0,0.9,0,1.5,0c-1,3.6-2,7.1-3,10.7c-0.5,0-1,0-1.5,0c-0.7-2.8-1.3-5.5-2.1-8.5c-0.8,3-1.6,5.8-2.3,8.5
		c-1.2,0.4-1.6,0-1.9-1.1c-0.7-3.1-1.6-6.3-2.4-9.5c0.6,0,1,0,1.5,0C402.4,128.5,403.1,131.3,403.8,134.4z"/>
	<path d="M145.4,133.9c0-2.8,0-5.5,0-8.3c0.4,0,0.8,0,1.3,0c0,3.6,0,7.1,0,10.7c-0.9,0.3-1.5,0-2-0.8c-1.5-2.5-3.1-5-4.7-7.7
		c0,2.9,0,5.7,0,8.5c-0.5,0-0.9,0-1.3,0c0-3.6,0-7.1,0-10.6c1-0.4,1.6-0.1,2.1,0.8C142.2,129,143.8,131.4,145.4,133.9z"/>
	<path d="M653.3,58.9c1.9-0.9,3.5-1.6,5.1-2.3c0.8-0.4,1.4-0.4,1.8,0.6c0.4,1,0.2,1.4-0.7,1.9c-2.5,1.1-5.1,2.4-7.6,3.5
		c-0.4,0.2-1.2,0.1-1.4-0.2c-0.4-0.5-1-1.3-0.2-2c0.8-0.7,1-1.5,0.7-2.5c-0.2-0.8,0.1-1.2,0.8-1.5c0.9-0.4,1.8-0.8,2.7-1.3
		c1-0.5,1.6-0.3,1.9,0.7C655.6,57,653.3,56.6,653.3,58.9z"/>
	<path d="M202,130.4c0,4.5-2.7,6.9-6.2,6c-1.9-0.5-3-1.8-3.4-3.6c-0.5-2.4-0.2-4.6,1.7-6.3c1.5-1.3,3.3-1.5,5.2-0.7
		C201.3,126.8,201.9,128.7,202,130.4z M200.6,130.8c-0.2-0.7-0.3-1.5-0.6-2.2c-0.5-1.2-1.5-1.9-2.9-1.9c-1.4,0-2.5,0.7-2.8,2
		c-0.3,1.3-0.5,2.7-0.3,4c0.2,1.7,1.7,2.8,3.1,2.8c1.5,0,2.8-1.1,3.2-2.9C200.4,132,200.4,131.5,200.6,130.8z"/>
	<path d="M332,130.9c0,3.9-2.6,6.3-6.2,5.5c-0.1,0-0.2,0-0.4-0.1c-2.7-0.8-4.1-4.4-2.9-7.6c1-2.7,3.8-4,6.5-3
		C330.9,126.5,332,128.4,332,130.9z M330.6,130.7c-0.2-0.7-0.4-1.6-0.8-2.4c-0.5-1.1-1.5-1.7-2.7-1.7c-1.3,0-2.4,0.6-2.8,1.7
		c-0.4,1.2-0.6,2.6-0.5,3.9c0.1,1.8,1.6,3.1,3.2,3.2c1.5,0,2.8-1.1,3.3-3C330.4,132,330.5,131.5,330.6,130.7z"/>
	<path d="M216.3,131.9c-0.7,0-1.4,0-2.1,0c0-0.4,0-0.8,0-1.1c1.1,0,2.2,0,3.5,0c0,1.6,0,3.2,0,4.8c0,0.2-0.4,0.6-0.6,0.6
		c-1.5,0.1-3.1,0.4-4.6,0.1c-2.4-0.4-3.8-2.6-3.7-5.3c0.1-2.6,1.7-4.7,4.1-5.2c1.5-0.3,2.9-0.3,4.4,0.3c-0.1,0.4-0.2,0.7-0.2,1
		c-0.2,0-0.3,0-0.4,0c-1.1-0.1-2.2-0.3-3.2-0.2c-1.9,0.3-3.1,1.8-3.1,3.9c-0.1,2.1,0.9,3.8,2.7,4.3c0.8,0.2,1.7,0.2,2.5,0.1
		c0.3,0,0.6-0.5,0.7-0.7C216.4,133.6,216.3,132.8,216.3,131.9z"/>
	<path d="M478.7,131.9c-0.7,0-1.2,0-1.9,0c0-0.4-0.1-0.7-0.1-1.1c1.2,0,2.3,0,3.6,0c0,1.6,0,3.2,0,4.7c0,0.2-0.4,0.6-0.6,0.7
		c-1.5,0.1-3,0.4-4.5,0.2c-2.4-0.4-3.8-2.6-3.8-5.3c0-2.7,1.7-4.9,4.2-5.3c1.4-0.2,2.8,0,4.4,0c-0.2,0.7-0.3,1-0.4,1.4
		c-0.2,0-0.3,0-0.4,0c-1.1-0.1-2.2-0.3-3.3-0.1c-1.8,0.3-2.9,1.9-3,3.8c-0.1,2.2,0.9,3.9,2.7,4.4C478.3,136,479.1,135.2,478.7,131.9
		z"/>
	<path d="M161.6,131.8c-0.8,0-1.5,0-2.1,0c0-0.4,0-0.7,0-1.2c0.4,0,0.7,0,1,0c0.8,0,1.6,0,2.5,0c0,1.8,0,3.5,0,5.2
		c-2.7,1.3-6.1,0.8-7.6-1.1c-1.5-1.9-1.6-5.2-0.1-7.2c1.5-2,4.7-2.7,7.4-1.6c-0.1,0.3-0.1,0.6-0.2,0.8c-1.2,0-2.3-0.1-3.4,0
		c-2.2,0.3-3.6,2.1-3.4,4.5c0.2,2.5,1.6,3.9,3.9,4c0.4,0,0.7,0,1.1,0c0.7,0,1-0.3,1-1C161.6,133.5,161.6,132.8,161.6,131.8z"/>
	<path d="M532.6,131.9c0,1.5,0,3,0,4.5c-0.5,0-0.9,0-1.3,0c0-3.5,0-7.1,0-10.8c1.1,0,2.2,0,3.2,0c1.9,0.1,2.9,0.8,3.2,2.1
		c0.4,1.4-0.1,2.4-1.7,3.6c1.7,1.3,1.4,3.3,2.1,5c-1.4,0.4-1.4,0.4-1.8-0.9c-0.1-0.4-0.2-0.8-0.3-1.3
		C535.5,132,534.9,131.6,532.6,131.9z M532.7,126.7c0,1.4,0,2.6,0,3.8c1.3,0.1,2.7,0.3,3.4-1c0.3-0.5,0.3-1.6-0.1-2.1
		C535.2,126.4,533.9,126.6,532.7,126.7z"/>
	<path d="M368.9,131.4c-1.8,0-3.3,0-5.1,0c0,1.6,0,3.2,0,4.9c-0.6,0-1,0-1.5,0c0-3.6,0-7.1,0-10.7c0.5,0,0.9,0,1.4,0
		c0,1.4,0,2.8,0,4.3c1.7,0,3.3,0,5.1,0c0-1.4,0-2.8,0-4.3c0.5,0,1,0,1.4,0c0,3.6,0,7.1,0,10.7c-0.5,0-0.9,0-1.4,0
		C368.9,134.7,368.9,133.2,368.9,131.4z"/>
	<path d="M88,131.9c0,1.5,0,3,0,4.5c-0.5,0-0.9,0-1.4,0c0-0.3-0.1-0.6-0.1-0.9c0-2.9,0-5.8,0-8.7c0-0.8,0.2-1.2,1.1-1.2
		c0.8,0,1.6-0.1,2.4,0c1.8,0.1,2.8,0.8,3.1,2.1c0.4,1.4-0.1,2.5-1.7,3.6c1.6,1.3,1.4,3.4,2.1,5.1c-1.2,0.4-1.7,0-1.9-1.1
		c-0.1-0.4-0.2-0.8-0.3-1.2C91,132,90.3,131.6,88,131.9z M88.2,126.7c0,1.4,0,2.6,0,3.9c1.4,0.1,2.7,0.2,3.4-1.1
		c0.3-0.5,0.2-1.5-0.1-2C90.7,126.4,89.4,126.6,88.2,126.7z"/>
	<path d="M427.9,136.3c-1.2,0.4-1.6-0.1-1.9-1.1c-0.6-2.2-0.7-2.1-3-2.2c-1.1,0-1.8,0.2-2,1.4c0,0.3-0.2,0.6-0.3,0.9
		c-0.2,1-0.7,1.4-1.8,1c0.4-1.1,0.7-2.2,1.1-3.3c0.7-2.2,1.5-4.4,2.2-6.6c0.2-0.6,0.5-0.9,1.1-0.8c0.4,0.1,1,0.4,1.1,0.7
		C425.7,129.6,426.8,132.9,427.9,136.3z M424.9,131.8c-0.5-1.5-1-3-1.6-4.7c-0.6,1.7-1,3.2-1.5,4.7
		C423,131.8,423.9,131.8,424.9,131.8z"/>
	<path d="M439.9,131.3c1.7,1.3,1.3,3.4,2.2,5c-1.1,0.4-1.7,0.1-1.9-1.1c-0.1-0.4-0.2-0.9-0.3-1.3c-0.5-2-1.2-2.4-3.4-2
		c0,1.4,0,2.9,0,4.5c-0.5,0-0.9,0-1.5,0.1c0-0.5,0-1,0-1.5c0-2.7,0-5.4,0-8.1c0-0.9,0.3-1.3,1.2-1.3c0.7,0,1.4-0.1,2,0
		c1.9,0.1,3,0.8,3.3,2C442,129,441.5,130.1,439.9,131.3z M436.5,130.8c1.1-0.2,2-0.2,2.7-0.5c1-0.4,1.2-1.3,0.9-2.3
		c-0.3-1-1.7-1.6-3-1.3c-1.1,0.2-0.6,1-0.7,1.6C436.4,129,436.5,129.7,436.5,130.8z"/>
	<path d="M495.9,125.7c0,3.5,0,7,0,10.6c-0.4,0-0.8,0-1.3,0c0-1.6,0-3.2,0-4.9c-1.8,0-3.4,0-5.2,0c0,1.6,0,3.2,0,4.9
		c-0.5,0-0.9,0-1.4,0.1c0-3.6,0-7.1,0-10.8c0.4,0,0.8,0,1.3,0c0,1.4,0,2.8,0,4.3c1.7,0,3.4,0,5.1,0c0-1.4,0-2.8,0-4.3
		C495,125.7,495.4,125.7,495.9,125.7z"/>
	<path d="M100.3,136.3c1.1-3.4,2.3-6.7,3.4-10.1c0.1-0.3,0.5-0.6,0.8-0.6c0.4,0,1.1,0.1,1.2,0.4c1.2,3.4,2.4,6.8,3.5,10.3
		c-1.1,0.4-1.6,0.1-1.9-1c-0.7-2.3-0.7-2.2-3.1-2.3c-1.2-0.1-1.7,0.3-1.9,1.4c0,0.3-0.2,0.6-0.3,0.9
		C102,136.3,101.5,136.7,100.3,136.3z M106.3,131.8c-0.5-1.6-1-3-1.6-4.7c-0.5,1.7-1,3.1-1.5,4.7
		C104.4,131.8,105.3,131.8,106.3,131.8z"/>
	<path d="M11,136.4c-0.6,0-1,0-1.5,0c-0.2-0.7-0.6-1.4-0.8-2.2C8.5,133.2,8,133,7,133c-2.5,0.1-2.5,0-3.2,2.3c-0.3,1-0.8,1.4-1.9,1
		c1.1-3.4,2.3-6.8,3.5-10.2c0.1-0.3,0.7-0.5,1-0.5c0.4,0,0.9,0.2,1,0.5C8.6,129.5,9.8,132.9,11,136.4z M7.9,131.9
		c-0.5-1.6-1-3.1-1.6-4.7c-0.5,1.7-1,3.2-1.5,4.7C5.9,131.9,6.8,131.9,7.9,131.9z"/>
	<path d="M523.4,130.1c0,0.5,0,0.8,0,1.2c-1.3,0-2.7,0-4.1,0c0,1.3,0,2.5,0,3.8c1.5,0,3,0,4.6,0c0,0.5,0,0.8,0.1,1.2
		c-2.1,0-4,0-6.1,0c0-3.6,0-7.1,0-10.7c1.9,0,3.8,0,5.8,0c0,0.3,0,0.7,0.1,1.1c-1.5,0-2.9,0-4.4,0c0,1.1,0,2.2,0,3.3
		C520.6,130.1,521.9,130.1,523.4,130.1z"/>
	<path d="M73.3,125.6c1.7,0,3.4,0,5.1,0c0.3,0,0.6,0.5,0.9,0.8c-0.1,0.1-0.1,0.3-0.2,0.4c-1.4,0-2.8,0-4.3,0c0,1.2,0,2.2,0,3.3
		c1.3,0,2.6,0,4,0c0,0.4,0.1,0.8,0.1,1.2c-1.4,0-2.7,0-4.1,0c0,1.3,0,2.5,0,3.8c1.5,0,2.9,0,4.5,0c0,0.4,0.1,0.8,0.1,1.2
		c-2,0-4,0-6,0C73.3,132.8,73.3,129.3,73.3,125.6z"/>
	<path d="M46.9,136.4c0-3.6,0-7.1,0-10.7c1.9,0,3.8,0,5.7,0c0,0.3,0.1,0.7,0.1,1.1c-1.5,0-2.8,0-4.3,0c0,1.2,0,2.2,0,3.4
		c1.3,0,2.6,0,4,0c0,0.5,0,0.8,0,1.2c-1.4,0-2.7,0-4,0c0,1.3,0,2.5,0,3.8c1.5,0,2.9,0,4.5,0c0,0.5,0.1,0.8,0.1,1.2
		C50.9,136.4,48.9,136.4,46.9,136.4z"/>
	<path d="M384,130.1c0,0.5,0,0.8,0,1.3c-1.3,0-2.6,0-4,0c0,1.3,0,2.5,0,3.8c1.5,0,2.9,0,4.5,0c0,0.5,0,0.8,0,1.2c-2,0-3.9,0-5.9,0
		c0-3.6,0-7.1,0-10.7c1.9,0,3.7,0,5.7,0c0,0.3,0.1,0.7,0.1,1.1c-1.5,0-2.8,0-4.3,0c0,1.1,0,2.2,0,3.3
		C381.3,130.1,382.6,130.1,384,130.1z"/>
	<path d="M240.6,125.8c-0.2,0.6-0.3,0.9-0.4,1.2c-0.8-0.1-1.5-0.3-2.3-0.3c-0.8,0-1.6,0.4-1.8,1.3c-0.2,0.9,0.3,1.5,1,1.8
		c0.6,0.3,1.3,0.6,2,0.9c1.4,0.8,2.1,1.9,1.8,3.3c-0.3,1.4-1.2,2.4-2.8,2.5c-1.2,0.1-2.4-0.2-3.7-0.3c0.2-0.7,0.3-1.1,0.3-1.2
		c1.2,0.1,2.2,0.3,3.2,0.3c0.8,0,1.4-0.5,1.6-1.4c0.2-0.8-0.2-1.5-0.9-1.9c-0.6-0.3-1.2-0.6-1.9-0.8c-1.5-0.7-2.3-1.9-2-3.2
		c0.2-1.4,1.4-2.4,3.1-2.5C238.6,125.4,239.5,125.6,240.6,125.8z"/>
	<path d="M292.4,125.7c-0.2,0.6-0.3,1-0.4,1.3c-0.8-0.1-1.5-0.3-2.3-0.3c-0.9,0-1.6,0.4-1.8,1.3c-0.2,0.9,0.3,1.5,1,1.8
		c0.7,0.3,1.4,0.6,2.1,1c1.4,0.7,2,1.9,1.7,3.4c-0.2,1.3-1.2,2.3-2.7,2.4c-1.2,0.1-2.5-0.1-3.9-0.2c0.2-0.7,0.3-1.1,0.3-1.3
		c1,0.2,2,0.4,2.9,0.4c0.9,0,1.6-0.4,1.8-1.4c0.2-1-0.3-1.6-1.1-2c-0.6-0.3-1.2-0.5-1.8-0.8c-1.4-0.7-2-1.8-1.9-3
		c0.2-1.3,1.1-2.3,2.6-2.4C290,125.4,291.1,125.6,292.4,125.7z"/>
	<path d="M25,135c0.1,0.4,0.2,0.7,0.3,1c-2.3,1.2-5.5,0.6-7-1.1c-1.6-1.9-1.6-5.2-0.2-7.3c1.5-2,4.5-2.7,7.1-1.6
		c-0.1,0.3-0.2,0.7-0.3,1.1c-2.2-0.6-4.1-0.7-5.6,1.3c-1.1,1.4-1.1,4,0,5.4C20.8,135.7,22.8,135.5,25,135z"/>
	<path d="M39.6,126c-0.1,0.4-0.2,0.7-0.3,0.9c-4.9-0.9-7.2,1-6,6c0.5,2.2,2.5,2.8,6,2.1c0.1,0.3,0.2,0.6,0.3,1
		c-2.6,1.1-5.6,0.6-7.1-1.3c-1.5-1.9-1.5-5.3,0.1-7.3C34.2,125.3,37.8,124.9,39.6,126z"/>
	<path d="M279.3,126c-0.1,0.4-0.2,0.7-0.3,1c-4.8-0.9-7.1,0.9-6.1,5.8c0.5,2.3,2.3,2.9,6.1,2.3c0.1,0.3,0.1,0.7,0.2,1
		c-2.5,1.1-5.6,0.5-7-1.3c-1.6-2-1.5-5.4,0.1-7.4C273.8,125.5,276.8,124.9,279.3,126z"/>
	<path d="M450.8,136.4c-0.5,0-0.9,0-1.4,0c0-3.5,0-7.1,0-10.7c1.9,0,3.8,0,5.7,0c0,0.4,0,0.7,0,1.1c-1.4,0-2.8,0-4.3,0
		c0,1.2,0,2.3,0,3.5c1.3,0,2.6,0,3.8,0c0.4,0.9,0.1,1.2-0.8,1.2c-1,0-2,0-3.1,0C450.8,133.2,450.8,134.8,450.8,136.4z"/>
	<path d="M316.3,125.7c0,0.4,0,0.7,0,1.1c-1.1,0-2.1,0-3.2,0c0,3.2,0,6.4,0,9.6c-0.5,0-1,0-1.5,0c0-3.1,0-6.3,0-9.5
		c-1.1,0-2.1,0-3.2,0c0-0.4-0.1-0.7-0.1-1.2C310.9,125.7,313.5,125.7,316.3,125.7z"/>
	<path d="M252,136.4c-0.5,0-0.9,0-1.4,0c0-3.1,0-6.3,0-9.5c-1.1,0-2.2,0-3.3,0c0-0.4-0.1-0.8-0.1-1.2c2.7,0,5.3,0,8,0
		c0,0.4,0,0.7,0,1.1c-1.1,0-2.1,0-3.2,0C252,130.1,252,133.2,252,136.4z"/>
	<path d="M506.2,126.8c-1.2,0-2.2,0-3.2,0c-0.2-0.7-0.3-1.2,0.7-1.2c2.4,0,4.7,0,7.2,0c0,0.4,0.1,0.7,0.1,1.2c-1.1,0-2.1,0-3.3,0
		c0,3.2,0,6.4,0,9.6c-0.5,0-0.9,0-1.5,0.1C506.2,133.3,506.2,130.1,506.2,126.8z"/>
	<path d="M350.8,126.8c-1.2,0-2.2,0-3.2,0c0-0.4,0-0.8,0-1.2c2.6,0,5.2,0,7.9,0c0,0.4,0,0.7,0.1,1.1c-1.1,0-2.1,0-3.3,0
		c0,3.2,0,6.4,0,9.6c-0.5,0-0.9,0-1.4,0C350.8,133.2,350.8,130.1,350.8,126.8z"/>
	<path d="M117.5,126.8c-1.2,0-2.1,0-3.2,0c0-0.4,0-0.7-0.1-1.1c2.7,0,5.2,0,7.9,0c0,0.3,0,0.7,0.1,1.1c-1.1,0-2.1,0-3.2,0
		c0,3.2,0,6.3,0,9.5c-0.5,0-0.9,0-1.5,0C117.5,133.2,117.5,130.1,117.5,126.8z"/>
	<path d="M181.4,135.2c1.6,0,3,0,4.5,0c0,0.4,0,0.8,0.1,1.2c-2,0-3.9,0-5.9,0c0-3.6,0-7.1,0-10.7c0.4,0,0.8,0,1.3,0
		C181.4,128.8,181.4,131.9,181.4,135.2z"/>
	<path d="M66.2,135.2c0,0.5,0,0.8,0,1.2c-2,0-3.9,0-6,0c0-1.8,0-3.6,0-5.4c0-1.7,0-3.5,0-5.3c0.5,0,0.9,0,1.4,0c0,3.2,0,6.3,0,9.5
		C63.2,135.2,64.6,135.2,66.2,135.2z"/>
	<path d="M614.9,24.5c-0.4,0-0.6-0.1-0.7-0.1c-3.3-0.4-3.6-1-1.8-3.8c0.6-0.9,1.5-1.7,2.4-2.5C615.8,20.3,614.8,22.3,614.9,24.5z"/>
	<path d="M563.8,122c-2.2,0-4,0-6.1,0c0.6-2.3,2.7-3,4-4.9C562.4,118.9,563,120.3,563.8,122z"/>
	<path d="M225.6,125.7c0.5,0,0.9,0,1.3,0c0,3.6,0,7.1,0,10.7c-0.4,0-0.8,0-1.3,0.1C225.6,132.8,225.6,129.3,225.6,125.7z"/>
	<path d="M129.2,125.7c0.5,0,0.8,0,1.3,0c0,3.6,0,7.1,0,10.7c-0.4,0-0.8,0-1.3,0C129.2,132.8,129.2,129.3,129.2,125.7z"/>
	<path d="M463.8,136.4c-0.5,0-0.8,0-1.3,0c0-3.6,0-7.1,0-10.7c0.4,0,0.8,0,1.3,0C463.8,129.2,463.8,132.7,463.8,136.4z"/>
	<path d="M594.7,110.9c-0.8,0.8-1.4,0.7-2-0.1c-1.8-2.4-2.3-5.1-1.6-8.1C592.3,105.4,593.5,108.1,594.7,110.9z"/>
	<path d="M679.4,63.8c0.2,0.3,0.4,0.5,0.5,0.8c1.2,2,1.1,2.2-0.8,3.4c-0.7,0.5-1.3,1.1-1.9,1.6C675.8,68.1,676.6,66,679.4,63.8z"/>
	<path d="M681.9,68.2c0.3,0.7,0.5,1.3,0.7,2c0.2,0.8-0.2,1.5-0.9,1.9c-1.1,0.5-2.2,0.9-3.3,1.4C677.6,71.4,678.4,70.3,681.9,68.2z"
		/>
	<path d="M683.9,71.4c-0.7-1.5-0.4-2.8,0.9-3.9c0.6-0.5,1.2-1.1,2-1.8c0.4,1,0.8,1.8,1,2.7c0.1,0.4-0.4,1-0.8,1.3
		C686.1,70.3,685,70.8,683.9,71.4z"/>
	<path d="M580.6,138.6c-0.5-0.2-1.2-0.3-1.7-0.6c-1.3-0.7-1.4-1.2-0.8-2.5c0.4-1,0.7-2,1-2.9c1.4,0.4,2.2,1.9,1.9,3.4
		C580.8,136.8,580.7,137.6,580.6,138.6z"/>
	<path d="M679.4,59.2c-0.2-0.4-0.3-0.7-0.4-1c-0.9-2.3-0.9-2.4,1.3-3.5c0.7-0.3,1.3-0.9,2-1.3C683.4,55.2,682.7,56.6,679.4,59.2z"/>
	<path d="M575.4,107.8c-0.4,0.5-0.8,0.9-1.1,1.4c-1.1,1.2-1.5,1.2-2.8,0.3c-0.8-0.6-1.7-1-2.5-1.5
		C570.1,106.3,571.6,106.2,575.4,107.8z"/>
	<path d="M677.1,55.8c-0.1,1.6,0.3,3.5-2,4.3c-0.5,0.2-0.8,0.8-1.4,1.5c-0.4-1.1-0.8-2-0.9-3c0-0.4,0.7-1,1.2-1.3
		C675,56.7,676,56.3,677.1,55.8z"/>
	<path d="M684.5,61.4c0.2,0.3,0.4,0.6,0.6,0.9c1.1,1.6,1.6,2.5-0.7,3.7c-0.7,0.4-1.2,1.1-1.8,1.7c-0.8-1.2-0.8-2.5,0-3.7
		C683.1,63.1,683.8,62.3,684.5,61.4z"/>
	<path d="M582.1,91.7c-0.3-2.2,0.1-2.9,2-3.9c0.5-0.3,1-0.7,1.6-1.2c0.6,0.8,1.1,1.9,0.7,2.9c-0.2,0.5-1.1,0.9-1.7,1.2
		C583.9,91.1,583.1,91.4,582.1,91.7z"/>
	<path d="M590.6,136.1c1.7,0.3,3.6,0.2,4,2.6c0.1,0.5,0.6,0.9,1.1,1.4c-0.9,0.6-1.9,1-2.8,0.7c-0.6-0.2-0.9-1.2-1.2-1.8
		C591.3,138.1,591,137.2,590.6,136.1z"/>
	<path d="M579.5,99.5c0.2-1.6,1.2-2.5,2.7-2.7c0.9-0.1,1.7-0.3,2.7-0.4c0,0.6,0,1.2-0.1,1.9c-0.3,1.4-0.8,1.7-2.2,1.4
		c-0.5-0.1-1-0.1-1.5-0.2C580.5,99.5,580,99.5,579.5,99.5z"/>
	<path d="M586.8,135.9c2,0.2,3,1.2,3.2,2.9c0.1,0.7,0.4,1.4,0.6,2.2c-0.8,0-1.7,0.1-2.6,0c-0.3-0.1-0.8-0.6-0.8-1
		c-0.1-0.6,0-1.4-0.1-2C587,137.3,586.9,136.6,586.8,135.9z"/>
	<path d="M654.5,74.7c-2-0.3-2.9-1.3-3.1-3c-0.1-0.7-0.3-1.4-0.5-2.1c2.2-0.8,3.4,0,3.3,2.3C654.3,72.9,654.5,73.8,654.5,74.7z"/>
	<path d="M586.1,91.8c0.9,2.3,0.3,3.3-1.9,3.6c-0.9,0.1-1.8,0.2-2.7,0.3C581.2,93.6,582.3,92.7,586.1,91.8z"/>
	<path d="M582.7,134.7c1.9,0.5,2.6,1.5,2.6,3.5c0,0.6,0.2,1.3,0.4,2.2c-0.9-0.2-1.8-0.2-2.6-0.5c-0.9-0.3-0.8-1.2-0.7-2
		C582.5,136.9,582.6,135.8,582.7,134.7z"/>
	<path d="M578.9,104.6c-0.2,0.5-0.4,1-0.7,1.5c-0.7,1.1-1.5,1.2-2.6,0.6c-0.9-0.5-1.9-0.9-2.8-1.3c0.8-1.5,2.4-2,4-1.3
		C577.4,104.3,578.1,104.4,578.9,104.6z"/>
	<path d="M668.5,76.2c1.6,1,2.8,2.2,2.4,4.2c-0.1,0.5,0.1,1.1,0.2,1.6c-2.4,0.5-3.4-0.6-2.9-3C668.3,78.2,668.4,77.2,668.5,76.2z"/>
	<path d="M582.5,100.8c-0.3,0.8-0.5,1.5-0.7,2.1c-0.4,0.9-1.1,1.1-2,0.8c-1.1-0.4-2.2-0.7-3.3-1C576.9,100.9,578,100.6,582.5,100.8z
		"/>
	<path d="M576.6,136.4c-0.9-0.8-1.6-1.3-2.2-2.1c-0.2-0.3-0.1-1.1,0.1-1.5c0.4-1,0.9-1.9,1.3-2.9c1.1,0.3,1.9,1.6,1.7,2.8
		c-0.1,0.6-0.5,1.1-0.6,1.7C576.7,134.9,576.7,135.5,576.6,136.4z"/>
	<path d="M655.7,70.3c0.8,0.3,1.6,0.4,2.2,0.7c0.8,0.4,1,1,0.9,1.9c-0.1,1-0.1,2-0.2,3c-1.3,0-2.4-0.9-2.6-2.3
		C655.9,72.6,655.8,71.6,655.7,70.3z"/>
	<path d="M262.3,136.3c0-3.6,0-7.1,0-10.7c0.4,0,0.8,0,1.3,0c0,3.6,0,7.1,0,10.7C263.1,136.3,262.7,136.3,262.3,136.3z"/>
	<path d="M585.7,108.3c-0.1-0.2-0.2-0.4-0.3-0.6c-0.8-2.3-0.5-2.7,1.8-3.4c0.7-0.2,1.4-0.6,2.1-0.9c0.4,1.4,0,2.8-1.2,3.5
		C587.4,107.3,586.6,107.7,585.7,108.3z"/>
	<path d="M573.1,126.3c1.3,1,1.7,2.3,1,3.6c-0.4,0.8-0.8,1.7-1.2,2.5c-1.9-0.7-2.4-2.3-1.1-4C572.3,127.9,572.6,127.1,573.1,126.3z"
		/>
	<path d="M677.9,59.7c0.2,0.6,0.4,1,0.6,1.5c0.2,0.8,0.1,1.5-0.6,2c-0.9,0.7-1.7,1.4-2.5,2.2c-1.3-1.3-1.2-2.8,0.5-3.9
		C676.5,61,677.2,60.4,677.9,59.7z"/>
	<path d="M666.3,80.5c-2.2-0.8-2.4-1.1-2-3.5c0.1-0.8-0.1-1.6-0.1-2.3c2,0,3,1.2,2.5,3.1C666.5,78.6,666.5,79.5,666.3,80.5z"/>
	<path d="M585.3,102.8c0-0.5,0.1-0.9,0.1-1.4c0.2-1.4,0.6-1.8,2-1.7c1,0.1,2,0.2,3,0.3C590.8,101.7,589,102.8,585.3,102.8z"/>
	<path d="M680.9,63.5c-1.4-1.2-1.3-2.7,0.2-3.9c0.7-0.5,1.3-1.1,1.9-1.7c1.3,1.1,1.2,2.4-0.2,3.6C682.2,62,681.6,62.7,680.9,63.5z"
		/>
	<path d="M589.7,107.1c0.9,1.3,0.8,2.6-0.3,3.8c-0.6,0.7-1.2,1.4-1.9,2.3c-0.3-0.8-0.8-1.5-0.8-2.2c-0.1-0.6,0.1-1.4,0.5-1.8
		C587.9,108.4,588.8,107.8,589.7,107.1z"/>
	<path d="M598.8,125.9c-1.4-1.2-1.5-2.3-0.7-3.5c0.5-0.7,0.8-1.4,1.4-2.3c0.5,0.6,1.2,1.2,1.6,1.9c0.2,0.4,0.1,1.2-0.2,1.6
		C600.3,124.4,599.5,125.1,598.8,125.9z"/>
	<path d="M591,110.8c1,0.7,1.5,2,1,3.2c-0.5,1-1,2-1.6,3.1c-0.5-0.7-1.1-1.3-1.4-2.1c-0.2-0.4-0.1-1.1,0.1-1.4
		C589.6,112.6,590.4,111.7,591,110.8z"/>
	<path d="M596.4,122.7c-1.4-0.8-1.8-2.2-1.1-3.6c0.4-0.8,0.6-1.7,1-2.7c0.6,0.7,1.4,1.3,1.7,2.1c0.2,0.5-0.1,1.3-0.3,1.8
		C597.4,121.1,596.9,121.9,596.4,122.7z"/>
	<path d="M567,115.2c1,1.4,0.9,2.5-0.5,3.8c-0.6,0.6-1,1.2-1.6,2c-0.3-0.3-0.6-0.7-0.8-1.2c-0.7-1.2-0.6-1.8,0.6-2.6
		C565.4,116.6,566.2,115.9,567,115.2z"/>
	<path d="M562.8,117c-0.3-0.6-0.6-1.1-0.8-1.7c-0.4-1.1-0.1-1.9,0.9-2.3c0.5-0.2,0.9-0.4,1.4-0.7c0.4-0.3,0.8-0.6,1.2-0.9
		c0.8,1.5,0.6,2.6-0.9,3.6c-0.4,0.2-0.7,0.5-1,0.8C563.3,116.1,563.2,116.5,562.8,117z"/>
	<path d="M567.2,124.9c-1.6-0.9-2.1-2.9-0.3-4c0.7-0.4,1.2-1.3,1.7-1.9c1.2,1.8,1.1,2.6-0.3,4.2
		C567.8,123.6,567.5,124.3,567.2,124.9z"/>
	<path d="M569.9,86c-1,1.5-2.2,1.8-3.7,1c-0.7-0.4-1.5-0.6-2.3-0.9c0.7-2.1,1.8-2.5,3.7-1.3C568.3,85.3,569.1,85.6,569.9,86z"/>
	<path d="M569.6,128.7c-1.9-1.2-2.1-2.3-0.4-4c0.5-0.5,0.9-1.2,1.4-1.9c1.1,0.8,1.4,2.2,0.7,3.3C570.7,127,570.2,127.9,569.6,128.7z
		"/>
	<path d="M572.4,83.6c-0.8,1.5-1.8,1.6-3,0.7c-0.8-0.6-1.6-1.1-2.4-1.6C569,80.4,569.9,80.6,572.4,83.6z"/>
	<path d="M561.7,90.1c0.2-2.2,1.3-2.9,3.4-2c0.7,0.3,1.6,0.4,2.4,0.6c-0.5,1.6-1.6,2.2-3.4,1.7C563.3,90.2,562.5,90.2,561.7,90.1z"
		/>
	<path d="M660.3,72.6c2.2-0.1,2.9,0.9,2.5,3c-0.2,0.8-0.2,1.7-0.3,2.6c-1.7-0.3-2.3-1.3-2.2-3.1C660.3,74.3,660.3,73.5,660.3,72.6z"
		/>
	<path d="M593.5,119.7c-1.4-0.8-1.7-2-1.1-3.5c0.4-0.8,0.6-1.6,0.9-2.4c2,0.6,2.5,1.8,1.3,3.6C594.2,118.2,593.9,119,593.5,119.7z"
		/>
	<path d="M561.1,112.2c-0.8-1.1-0.6-2.5,0.6-3.4c0.1-0.1,0.3-0.2,0.4-0.2c0.8-0.4,1.6-0.8,2.4-1.3c0.8,1.4,0.4,2.5-0.8,3.3
		C562.8,111.2,562,111.7,561.1,112.2z"/>
	<path d="M564.2,99.5c0.2,2.1-0.4,2.7-2.4,2.9c-0.8,0.1-1.6,0.5-2.4,0.8c-0.3-2.2,0.4-3.1,2.7-3.3C562.8,99.9,563.5,99.6,564.2,99.5
		z"/>
	<path d="M564.1,103.3c0.6,1.7,0.1,2.7-1.6,3.3c-0.8,0.3-1.6,0.8-2.4,1.2c-0.8-1.8-0.3-3,1.7-3.6C562.6,104,563.3,103.6,564.1,103.3
		z"/>
	<path d="M676,83.1c-0.8,0-1.8,0.1-2.6,0c-0.3-0.1-0.8-0.6-0.9-0.9c-0.2-1.2-0.2-2.5-0.3-3.8C674.2,79.4,675.7,80.7,676,83.1z"/>
	<path d="M564.6,95.6c-0.1,1.9-0.8,2.6-2.6,2.7c-0.8,0-1.7,0.3-2.5,0.4c-0.3-1.8,0.5-2.8,2.4-2.9C562.8,95.7,563.7,95.6,564.6,95.6z
		"/>
	<path d="M560.2,94.4c0-1.9,0.9-2.7,2.8-2.6c0.9,0.1,1.8,0.1,2.7,0.1c-0.2,1.8-1.1,2.4-2.9,2.3C561.9,94.2,561.1,94.3,560.2,94.4z"
		/>
	<path d="M571.1,110.8c-0.9,0.8-1.4,2.3-2.9,1.9c-1.6-0.4-1.2-2.1-2-3.6c0.9,0.1,1.6,0,2.2,0.2C569.2,109.7,570,110.2,571.1,110.8z"
		/>
	<path d="M678,54.3c-0.5-2.2,1-3.9,3.1-3.5c0.4,0.1,0.8,0.4,0.9,0.8c0.1,0.3-0.2,0.9-0.5,1C680.3,53.2,679.1,53.7,678,54.3z"/>
	<path d="M672.8,56.3c-0.4-0.9-0.4-1.8,0.3-2.7c0.8-0.9,1.8-1.2,2.9-0.9c0.3,0.1,0.6,0.5,0.7,0.8c0.1,0.3-0.2,0.6-0.5,0.9
		c-0.2,0.2-0.6,0.3-0.8,0.4C674.5,55.3,673.7,55.8,672.8,56.3z"/>
	<path d="M668.5,95c1.5-0.7,2.9-1.4,4.4-2c0.3-0.1,0.7,0.2,1.1,0.4c-0.2,0.4-0.2,0.9-0.5,1.1c-1,0.6-2,0.9-3,1.4
		C669.5,96.4,668.9,96.2,668.5,95z"/>
	<path d="M595.5,136.6c1.6,0.4,3.1,0.8,4.7,1.2c0.1,0.1,0.1,0.2,0.2,0.4c-0.9,0.4-2,1.4-2.7,1.2c-1-0.3-1.7-1.5-2.5-2.3
		C595.3,136.8,595.4,136.7,595.5,136.6z"/>
	<path d="M583.7,81.9c2.3,2.7,2.2,3.5-1,5C583,85.2,583.3,83.7,583.7,81.9z"/>
	<path d="M602,124.1c0.4,1,0.9,1.8,1.1,2.7c0.2,1-0.5,1.4-1.4,1c-0.6-0.3-1.2-0.7-1.9-1.1C600.5,125.8,601.2,125.1,602,124.1z"/>
	<path d="M587.1,98.2c0-0.2,0-0.3,0.1-0.4c0.6-0.9,0.8-2.5,2.2-2.1c1.3,0.4,0.6,1.9,0.9,3C589.1,98.5,588.1,98.4,587.1,98.2z"/>
	<path d="M574.7,79.5c-0.5,1-1,1.8-1.5,2.7c-0.7-0.6-1.3-1.2-2-1.8C572.2,79.5,573.2,78.9,574.7,79.5z"/>
	<path d="M683.4,73c-0.1,0.8,0,1.9-0.3,2.1c-1.2,0.7-2.5,0.1-4-0.5C680.6,74,681.8,73.5,683.4,73z"/>
	<path d="M677.1,81.4c1.2,0.3,2.5,0.6,3.9,0.9c-0.9,0.9-1.8,1.4-2.8,1c-0.6-0.2-1-1-1.4-1.6C676.9,81.7,677,81.5,677.1,81.4z"/>
	<path d="M685.1,74.6c-0.4-1.9,0.6-3,3-3.6C687.5,72.6,686.6,73.8,685.1,74.6z"/>
	<path d="M647.1,69.4c2.5-0.3,2.9,0.1,2.8,3.2C648.9,71.4,648.1,70.5,647.1,69.4z"/>
	<path class="st0" d="M362.9,58.7c0.1-8.6,2-16.6,7.3-23.5c5.8-7.6,13.6-11.6,23-12.6c7.1-0.8,13.9,0.1,20.3,3.2
		c9.8,4.8,16,12.7,18.6,23.2c2.4,9.7,1.5,19.2-2.7,28.2c-5.7,12.1-15.6,18.5-28.8,19.4c-17.1,1.1-32.1-8.8-36.3-27
		c-0.8-3.6-1.1-7.2-1.6-10.9C362.7,58.8,362.8,58.8,362.9,58.7z"/>
	<path class="st0" d="M200.6,130.8c-0.1,0.7-0.2,1.3-0.3,1.8c-0.5,1.8-1.7,2.9-3.2,2.9c-1.4,0-2.9-1.1-3.1-2.8c-0.2-1.3,0-2.7,0.3-4
		c0.3-1.3,1.4-2,2.8-2c1.4,0,2.4,0.7,2.9,1.9C200.2,129.3,200.4,130.1,200.6,130.8z"/>
	<path class="st0" d="M330.6,130.7c-0.1,0.8-0.2,1.2-0.3,1.7c-0.4,1.9-1.7,3-3.3,3c-1.6,0-3.1-1.3-3.2-3.2c-0.1-1.3,0.1-2.7,0.5-3.9
		c0.4-1.2,1.5-1.7,2.8-1.7c1.2,0,2.2,0.6,2.7,1.7C330.2,129.1,330.4,130.1,330.6,130.7z"/>
	<path class="st0" d="M532.7,126.7c1.3-0.2,2.5-0.4,3.3,0.8c0.3,0.5,0.4,1.5,0.1,2.1c-0.7,1.3-2.1,1.1-3.4,1
		C532.7,129.3,532.7,128.1,532.7,126.7z"/>
	<path class="st0" d="M88.2,126.7c1.2-0.2,2.5-0.3,3.2,0.8c0.3,0.5,0.4,1.5,0.1,2c-0.7,1.3-2,1.2-3.4,1.1
		C88.2,129.4,88.2,128.1,88.2,126.7z"/>
	<path class="st0" d="M424.9,131.8c-1,0-1.9,0-3.1,0c0.5-1.5,0.9-2.9,1.5-4.7C423.9,128.9,424.4,130.3,424.9,131.8z"/>
	<path class="st0" d="M436.5,130.8c0-1.1-0.1-1.8,0-2.5c0.1-0.6-0.4-1.4,0.7-1.6c1.4-0.2,2.7,0.4,3,1.3c0.3,1,0,1.9-0.9,2.3
		C438.4,130.6,437.5,130.6,436.5,130.8z"/>
	<path class="st0" d="M106.3,131.8c-1,0-2,0-3.1,0c0.5-1.5,1-3,1.5-4.7C105.3,128.8,105.8,130.3,106.3,131.8z"/>
	<path class="st0" d="M7.9,131.9c-1.1,0-2,0-3.1,0c0.5-1.6,1-3,1.5-4.7C6.9,128.8,7.4,130.3,7.9,131.9z"/>
</g>
<rect x="360.9" y="53.9" width="1.9" height="8.6"/>
</svg>
