<svg id="Layer_1" data-name="Layer 1" xmlns="http://www.w3.org/2000/svg" viewBox="0 0 3405.69 923.55"><defs><style>.cls-1{fill:#adafb2;}.cls-2{fill:#005695;}</style></defs><title>viasatLogoFinalSpot</title><rect class="cls-1" y="820.79" width="3376.24" height="102.76"/><path class="cls-2" d="M2289.75,451.49c-34.1-18.23-247.3-57.42-348.29,17.14-12.91,9.54-72.92,44.21-73.42,144,0,0,165.76,0,165.77,0,7-53.14,46.4-60.24,77.81-59.08,42.44,1.57,68.38,20.43,61,37.6-6.92,16.15-17.79,25.28-93.44,35.67C1991,639,1843.12,656,1807.4,763.11c-22.23,66.18-7.47,109.6,11.25,132.53,71.63,87.72,209.91,64.05,286.39,28,0,0,3.92,25.51,4.35,28.56h209V952a77.74,77.74,0,0,1-8.29-3.39c-19.47-9.35-31.73-33.59-31.21-56.23,0-12.13,2.5-25.85,6.1-42.33,0,0,15.9-84.93,42.45-227.68,0,0,14.4-69.59,14.34-89.7C2341.56,479.6,2308.85,462.1,2289.75,451.49ZM2018.87,846.77c-33.87-2.06-62.16-35.66-35.1-69.06C2005.5,750.89,2106.89,739.1,2145,721,2129.68,780.75,2121.82,853.06,2018.87,846.77Z" transform="translate(-384.05 -259.3)"/><path class="cls-2" d="M3406.76,451.49c-34.1-18.23-247.3-57.42-348.29,17.14-12.91,9.54-72.92,44.21-73.42,144,0,0,165.76,0,165.77,0,7-53.14,46.4-60.24,77.81-59.08,42.44,1.57,68.38,20.43,61,37.6-6.92,16.15-17.79,25.28-93.44,35.67C3108,639,2960.14,656,2924.42,763.11c-22.23,66.18-7.46,109.6,11.25,132.53,71.63,87.72,209.91,64.05,286.39,28,0,0,3.92,25.51,4.35,28.56h209V952a77.73,77.73,0,0,1-8.29-3.39c-19.47-9.35-31.73-33.59-31.21-56.23,0-12.13,2.5-25.85,6.1-42.33,0,0,15.9-84.93,42.45-227.68,0,0,14.4-69.59,14.34-89.7C3458.58,479.6,3425.87,462.1,3406.76,451.49ZM3135.88,846.77c-33.87-2.06-62.16-35.66-35.1-69.06,21.74-26.82,123.13-38.61,161.28-56.72C3246.7,780.75,3238.84,853.06,3135.88,846.77Z" transform="translate(-384.05 -259.3)"/><path class="cls-2" d="M1883.55,272.22c-.35,1.9-1.06,5.82-1.36,7.27H1737.25L1726,301.75h152.16c-.47,2.86-2,10.93-2.4,13.05H1719.42l-10.51,20.71H1872c-.65,3.53-3,16.75-3.53,19.33H1699.14l-8.41,16.9h174.64c-.69,3.84-4.39,24.37-4.94,27.12H1677l-7.16,14.25h188c-.86,4.73-98.11,537.23-98.73,540.55H1561.35c.85-4.8,91.82-507.57,91.82-507.57s-255,505.35-256.08,507.57H1112.36c-.53-3.43-111.38-676.78-112.14-681.44h216.9c.55,3.39,70.2,467.28,70.2,467.28s233.5-465.1,234.58-467.28Z" transform="translate(-384.05 -259.3)"/><path class="cls-2" d="M3734,957.79c29.9,0,55.77-23,55.77-54.82S3763.88,848,3734,848c-31.25,0-57.19,23.08-57.19,54.92s25.94,54.82,57.19,54.82ZM3688.47,903c0-26.81,19.44-45.93,45.51-45.93,24.55,0,44.05,19.12,44.05,45.93,0,25.43-19.5,45.89-44.05,45.89-26.07,0-45.51-20.46-45.51-45.89Zm33.83,3.81h10.33l16.8,28h11.78l-18.27-28c9.1-1.27,17-6.42,17-17.89,0-12.74-7.87-17.78-23.43-17.78h-24.65v63.7h10.47v-28Zm0-7.69V878.67h12.91c6.42,0,14.22,2.57,14.22,10.23,0,8.92-7.8,10.19-15.45,10.19Z" transform="translate(-384.05 -259.3)"/><path class="cls-2" d="M3601.24,817.39c-.75,10.88.84,18.49,22.33,20A256.23,256.23,0,0,0,3651,838c.21,0,14.6-.36,20.46-.42-1,4.69-23.19,112.91-23.85,116.06H3521.44c-22.19,0-51.12-2-70.59-11.33s-31.73-33.59-31.22-56.23c0-12.13,2.51-25.86,6.1-42.33,0,0,93.16-500.73,99.13-532.86h174c-.91,4.66-27.58,136.83-27.58,136.83h70.34c-.81,4.48-18.8,106.81-19.37,110h-71.64Z" transform="translate(-384.05 -259.3)"/><path class="cls-2" d="M2477.54,308.44c42.86-27.74,113.87-49.38,189.79-49.13,253.21,5.87,282.29,170.13,280.24,238.87H2753.38c-.32-3.12,8.13-83.67-92.7-82.56-99.2,1.09-108.28,64.3-48.92,77.5,15.72,3.5,49.35,9.17,92.33,17,124.08,22.54,171.12,90.16,186.58,122.41,57.5,120-4.29,282.84-180.94,315.56-70.41,13-149.49,11.31-221-5.25-32.14-7.44-57.29-24-80.65-42.42-57.11-45.1-83.2-116.49-82.57-203.19l194.32-.22c.11,3.33.81,24.33.81,24.33.67,20.79,25.39,49.19,61.19,55,51.43,8.37,89.9-5.42,102.69-15.72,21.37-17.2,15-46-5.24-52.4-70.21-22-201.05-14.6-274.56-114.23C2364.39,539.34,2353.08,389,2477.54,308.44Z" transform="translate(-384.05 -259.3)"/></svg>