<?xml version="1.0" encoding="UTF-8"?>
<svg width="504px" height="467px" viewBox="0 0 504 467" version="1.1" xmlns="http://www.w3.org/2000/svg" xmlns:xlink="http://www.w3.org/1999/xlink">
    <!-- Generator: Sketch 45.2 (43514) - http://www.bohemiancoding.com/sketch -->
    <title>Graphic</title>
    <desc>Created with Sketch.</desc>
    <defs>
        <filter x="-3.5%" y="-3.8%" width="107.1%" height="110.8%" filterUnits="objectBoundingBox" id="filter-1">
            <feOffset dx="0" dy="2" in="SourceAlpha" result="shadowOffsetOuter1"></feOffset>
            <feGaussianBlur stdDeviation="2" in="shadowOffsetOuter1" result="shadowBlurOuter1"></feGaussianBlur>
            <feColorMatrix values="0 0 0 0 0.0470588235   0 0 0 0 0.164705882   0 0 0 0 0.2  0 0 0 0.3 0" type="matrix" in="shadowBlurOuter1" result="shadowMatrixOuter1"></feColorMatrix>
            <feMerge>
                <feMergeNode in="shadowMatrixOuter1"></feMergeNode>
                <feMergeNode in="SourceGraphic"></feMergeNode>
            </feMerge>
        </filter>
        <filter x="-2.1%" y="-1.4%" width="104.2%" height="104.0%" filterUnits="objectBoundingBox" id="filter-2">
            <feOffset dx="0" dy="2" in="SourceAlpha" result="shadowOffsetOuter1"></feOffset>
            <feGaussianBlur stdDeviation="2" in="shadowOffsetOuter1" result="shadowBlurOuter1"></feGaussianBlur>
            <feColorMatrix values="0 0 0 0 0.0470588235   0 0 0 0 0.164705882   0 0 0 0 0.2  0 0 0 0.3 0" type="matrix" in="shadowBlurOuter1" result="shadowMatrixOuter1"></feColorMatrix>
            <feMerge>
                <feMergeNode in="shadowMatrixOuter1"></feMergeNode>
                <feMergeNode in="SourceGraphic"></feMergeNode>
            </feMerge>
        </filter>
        <filter x="-4.3%" y="-5.2%" width="108.5%" height="116.7%" filterUnits="objectBoundingBox" id="filter-3">
            <feOffset dx="0" dy="2" in="SourceAlpha" result="shadowOffsetOuter1"></feOffset>
            <feGaussianBlur stdDeviation="2" in="shadowOffsetOuter1" result="shadowBlurOuter1"></feGaussianBlur>
            <feColorMatrix values="0 0 0 0 0.0470588235   0 0 0 0 0.164705882   0 0 0 0 0.2  0 0 0 0.3 0" type="matrix" in="shadowBlurOuter1" result="shadowMatrixOuter1"></feColorMatrix>
            <feMerge>
                <feMergeNode in="shadowMatrixOuter1"></feMergeNode>
                <feMergeNode in="SourceGraphic"></feMergeNode>
            </feMerge>
        </filter>
        <path d="M45.8600934,2.61955701 L2.68297596,27.286772 L2.68297596,27.286772 C0.285259,28.6565948 -0.548013861,31.7107892 0.821808935,34.1085062 C1.26650035,34.8868873 1.91228182,35.5313971 2.69153789,35.9745535 L103.434052,93.2659701 L103.434052,93.2659701 C108.06746,95.9009505 113.751166,95.8791431 118.364219,93.2086856 L161.260325,68.3764891 L161.260325,68.3764891 C163.650192,66.9930154 164.466034,63.9341188 163.082561,61.5442524 C162.63789,60.7761112 161.996763,60.1401805 161.225029,59.7017755 L60.7100572,2.60147641 L60.7100572,2.60147641 C56.1041281,-0.0150485374 50.4596374,-0.0081760774 45.8600934,2.61955701 Z" id="path-4"></path>
        <filter x="-0.6%" y="-1.1%" width="101.2%" height="104.2%" filterUnits="objectBoundingBox" id="filter-5">
            <feOffset dx="0" dy="2" in="SourceAlpha" result="shadowOffsetOuter1"></feOffset>
            <feColorMatrix values="0 0 0 0 0.858823529   0 0 0 0 0.858823529   0 0 0 0 0.858823529  0 0 0 1 0" type="matrix" in="shadowOffsetOuter1"></feColorMatrix>
        </filter>
        <filter x="-5.7%" y="-6.4%" width="111.4%" height="117.9%" filterUnits="objectBoundingBox" id="filter-6">
            <feOffset dx="0" dy="2" in="SourceAlpha" result="shadowOffsetOuter1"></feOffset>
            <feGaussianBlur stdDeviation="2" in="shadowOffsetOuter1" result="shadowBlurOuter1"></feGaussianBlur>
            <feColorMatrix values="0 0 0 0 0.0470588235   0 0 0 0 0.164705882   0 0 0 0 0.2  0 0 0 0.3 0" type="matrix" in="shadowBlurOuter1" result="shadowMatrixOuter1"></feColorMatrix>
            <feMerge>
                <feMergeNode in="shadowMatrixOuter1"></feMergeNode>
                <feMergeNode in="SourceGraphic"></feMergeNode>
            </feMerge>
        </filter>
    </defs>
    <g id="2017" stroke="none" stroke-width="1" fill="none" fill-rule="evenodd">
        <g id="Desktop-HD-Copy" transform="translate(-796.000000, -142.000000)">
            <g id="Graphic" transform="translate(1047.500000, 372.500000) scale(-1, 1) translate(-1047.500000, -372.500000) translate(799.000000, 143.000000)">
                <g id="Oculus-+-cable">
                    <g id="Oculus" filter="url(#filter-1)" transform="translate(397.707581, 216.034923) scale(-1, 1) translate(-397.707581, -216.034923) translate(298.707581, 151.034923)">
                        <path d="M35.1946673,30.9160307 L35.1946673,30.9160307 L35.1946673,30.9160307 C35.1138871,48.7721377 44.6742733,65.2823542 60.2011396,74.1007161 L114.751988,105.082443 L114.751988,105.082443 C122.861735,109.68831 133.169777,106.847854 137.775644,98.7381069 C139.219528,96.195798 139.978615,93.3221663 139.978615,90.3984466 L139.978615,90.3984466 L139.978615,90.3984466 C139.978615,72.4671367 130.34181,55.9193424 114.746025,47.0704239 L60.4686398,16.2738882 L60.4686398,16.2738882 C52.3397263,11.6616105 42.0109499,14.512407 37.3986722,22.6413206 C35.9667603,25.1649952 35.2077939,28.0144565 35.1946673,30.9160307 Z" id="Path-2" fill="#464646"></path>
                        <polygon id="Path-3" fill="#464646" points="8.62993689 37.8654889 42.8749429 17.1591352 133.257276 103.717982 96.3419352 127.042012"></polygon>
                        <path d="M0.809237843,52.0161806 L0.769085758,60.8916213 L0.769064271,60.8916212 C0.700688849,76.0057058 9.17258538,89.8627874 22.6562554,96.6914675 C22.6562554,96.6914675 22.6562554,96.6914675 22.6562554,96.6914675 C29.2324993,100.021945 38.6126333,96.908208 46.6160068,101.419311 C54.6193804,105.930415 56.3174357,116.382041 65.6922274,121.614341 C68.6056371,123.240386 73.0511206,125.431385 79.0286781,128.18734 L79.0286986,128.187296 C88.4199444,132.517133 99.5430798,128.414051 103.872917,119.022805 C105.006281,116.564582 105.593186,113.889853 105.593186,111.182941 L105.593186,111.182941 L105.593186,111.182941 C105.593186,93.4467319 96.0612334,77.0789848 80.6351372,68.3263465 L26.0832103,37.3740381 L26.0832103,37.3740381 C17.9542968,32.7617604 7.62552045,35.6125569 3.0132427,43.7414705 C1.58133078,46.2651451 0.822364431,49.1146064 0.809237843,52.0161806 Z" id="Path-2" fill="#363636"></path>
                        <path d="M135.04157,76.3415146 C145.97125,71.3681425 156.754438,65.0955952 167.391135,57.5238725 C175.97634,51.4125027 182.632585,47.0128557 188.115529,39.6619933 C191.770825,34.7614184 194.904405,25.4914354 197.516269,11.8520446 L197.516269,34.3442182 C196.373039,43.8629949 194.457734,50.165006 191.770355,53.2502517 C187.739286,57.8781203 177.622433,70.7006877 168.476727,77.2110498 C157.984621,84.6798457 146.839569,91.1628883 135.04157,96.6601775 L135.04157,76.3415146 Z" id="Rectangle-3" fill="#464646"></path>
                        <path d="M78.1487034,32.1148227 C94.6137327,23.0071551 108.164596,14.6326261 118.801293,6.99123563 C124.524762,2.87950168 147.539962,2.87950168 187.846893,6.99123563 L187.846893,15.8501238 C155.181052,14.3473916 135.799563,15.7861137 129.702426,20.1662899 C119.21032,27.7038066 107.584683,34.9469171 94.8255145,41.8956213 L78.1487034,32.1148227 Z" id="Rectangle-3" fill="#464646"></path>
                        <path d="M197.093472,18.456861 C172.58517,10.3857257 152.849824,4.88478962 137.887434,1.95405279 C124.253941,-0.71638833 97.9309019,-0.0918603297 79.3658012,3.96476639 C67.3688588,6.58619666 58.6115275,11.5511223 58.6115275,14.9270675 L58.6115275,31.27508 C58.6115275,25.1146363 69.2864156,18.5482889 80.2428444,15.5941467 C96.8519426,11.1158956 119.795279,12.9518774 136.250433,15.5941467 C154.45712,18.5176666 171.224494,23.7446444 186.552555,31.27508 L197.093472,18.456861 Z" id="Path-4" fill="#464646" transform="translate(127.852500, 15.807465) scale(-1, 1) translate(-127.852500, -15.807465) "></path>
                    </g>
                    <g id="Group-6">
                        <path d="M320.901686,280.399883 L340.320401,292.179483 L340.320401,292.179483 C342.681389,293.611683 345.756376,292.858752 347.188576,290.497765 C347.66285,289.715921 347.913629,288.818984 347.913629,287.904536 L347.913629,211.775941 L347.913629,211.775941 C347.913629,210.016967 348.837895,208.387375 350.347551,207.484642 L384.267984,187.201156 L384.267984,187.201156 C385.871432,186.242339 387.875667,186.257434 389.46449,187.240297 L394.534686,190.376771" id="Path-5" stroke="#FFD07E" stroke-width="2"></path>
                        <g id="Group-4" filter="url(#filter-2)">
                            <g id="Group" transform="translate(0.000000, 149.655944)">
                                <path d="M119.654967,11.0979042 L2.99494788,72.1620418 L2.99494788,72.1620418 C1.34664935,73.0248217 0.313686855,74.7314272 0.313686855,76.5918781 L0.313686855,77.6684478 L0.313686855,77.6684478 C0.313686855,79.4535429 1.26537754,81.103234 2.81069886,81.9968483 L196.316223,193.895459 L196.316223,193.895459 C201.017294,196.613951 206.820561,196.579271 211.488806,193.804788 L325.566562,126.004843 L325.566562,126.004843 C327.082757,125.103722 328.012023,123.470431 328.012023,121.706666 L328.012023,121.251034 L328.012023,121.251034 C328.012023,119.429413 327.021337,117.751934 325.426105,116.872426 L133.853431,11.2515897 L133.853431,11.2515897 C129.446088,8.82166479 124.113874,8.76394842 119.654967,11.0979042 Z" id="Path-2" fill="#6E6E6E"></path>
                                <path d="M118.745574,2.26979695 L3.4126455,68.6239354 L3.4126455,68.6239354 C1.01908806,70.0010134 0.19506869,73.0577174 1.57214672,75.4512749 C2.01023787,76.2127396 2.64122069,76.8453394 3.40156168,77.2853779 L195.558531,188.494003 L195.558531,188.494003 C200.219122,191.191267 205.967909,191.183392 210.621094,188.473371 L325.318193,121.673622 L325.318193,121.673622 C327.70442,120.28388 328.51223,117.222853 327.122489,114.836626 C326.684454,114.084507 326.057673,113.459761 325.304134,113.024173 L133.732708,2.2851441 L133.732708,2.2851441 C129.097702,-0.394149503 123.386057,-0.399998348 118.745574,2.26979695 Z" id="Path-2" fill="#8B8B8B"></path>
                            </g>
                            <path d="M124.898717,5.86099711 L124.304285,137.257541 L124.304285,137.257541 C124.279957,142.635142 127.136232,147.614297 131.790619,150.30797 L323.954317,261.520489 L323.954317,261.520489 C326.344342,262.903689 329.403145,262.087495 330.786344,259.69747 C331.22686,258.936304 331.458821,258.072413 331.458821,257.192966 L331.458821,125.276386 L331.458821,125.276386 C331.458821,119.920238 328.602837,114.970504 323.965694,112.289976 L132.400957,1.55481324 L132.400957,1.55481324 C130.010225,0.172835989 126.951839,0.990593377 125.569862,3.38132549 C125.134008,4.13532593 124.902657,4.99009508 124.898717,5.86099711 Z" id="Path-2" fill="#464646"></path>
                            <path d="M106.612513,241.707033 L82.5225486,255.566638 L82.5225486,255.566638 C80.1289911,256.943716 79.3049717,260.00042 80.6820498,262.393978 C81.1201409,263.155442 81.7511237,263.788042 82.5114647,264.228081 L129.626654,291.495452 L129.626654,291.495452 C134.287245,294.192716 140.036032,294.184841 144.689217,291.47482 L168.614308,277.540814 L168.614308,277.540814 C171.000535,276.151072 171.808346,273.090044 170.418604,270.703818 C169.980569,269.951699 169.353788,269.326952 168.600249,268.891364 L121.599647,241.72238 L121.599647,241.72238 C116.964641,239.043087 111.252997,239.037238 106.612513,241.707033 Z" id="Path-2" fill="#6E6E6E"></path>
                            <path d="M124.754703,163.730453 L67.398806,196.579994 L67.398806,196.579994 C65.002565,197.952397 64.1725806,201.007487 65.5449838,203.403728 C65.9876889,204.176699 66.6288551,204.817369 67.4021693,205.259475 L230.077126,298.261229 L230.077126,298.261229 C234.720528,300.915876 240.426181,300.897139 245.052048,298.212053 L302.043901,265.131103 L302.043901,265.131103 C304.432152,263.744842 305.244425,260.684996 303.858163,258.296745 C303.415601,257.534298 302.779317,256.902417 302.013815,256.465159 L139.649456,163.721883 L139.649456,163.721883 C135.033742,161.085366 129.36738,161.088626 124.754703,163.730453 Z" id="Path-2" fill="#6E6E6E"></path>
                            <g id="Group-2" transform="translate(258.486485, 156.251211) scale(-1, -1) translate(-258.486485, -156.251211) translate(204.986485, 92.751211)">
                                <path d="M2.9689821,58.3463657 L11.9958075,63.8349329 L11.9958075,63.8349329 C13.1828482,64.5566875 13.9074674,65.8453284 13.9074674,67.2345711 L13.9074674,67.2345711 L13.9074674,67.2345711 C13.9074674,67.929378 13.3442151,68.4926303 12.6494082,68.4926303 C12.4188797,68.4926303 12.192783,68.4292885 11.9958075,68.3095218 L2.9689821,62.8209546 L2.9689821,62.8209546 C1.78194142,62.0992 1.0573222,60.8105591 1.0573222,59.4213164 L1.0573222,59.4213164 L1.0573222,59.4213164 C1.0573222,58.7265095 1.62057449,58.1632572 2.3153814,58.1632572 C2.54590991,58.1632572 2.77200664,58.226599 2.9689821,58.3463657 Z" id="Rectangle" fill="#75C8DC"></path>
                                <path d="M29.4417862,45.6426333 L39.8123212,51.4581566 L39.8123212,51.4581566 C41.0175014,52.13399 41.76373,53.4080081 41.76373,54.7897499 L41.76373,54.7897499 L41.76373,54.7897499 C41.76373,55.5134898 41.177023,56.1001968 40.4532831,56.1001968 C40.2288138,56.1001968 40.0081074,56.0425373 39.8123212,55.9327455 L29.4417862,50.1172222 L29.4417862,50.1172222 C28.2366059,49.4413888 27.4903773,48.1673707 27.4903773,46.7856289 L27.4903773,46.7856289 L27.4903773,46.7856289 C27.4903773,46.0618891 28.0770844,45.475182 28.8008243,45.475182 C29.0252936,45.475182 29.246,45.5328415 29.4417862,45.6426333 Z" id="Rectangle" fill="#FFFFFF"></path>
                                <path d="M34.7283972,67.8463996 L45.0989322,73.6619229 L45.0989322,73.6619229 C46.3041124,74.3377563 47.0503411,75.6117744 47.0503411,76.9935162 L47.0503411,76.9935162 L47.0503411,76.9935162 C47.0503411,77.7172561 46.463634,78.3039631 45.7398941,78.3039631 C45.5154248,78.3039631 45.2947184,78.2463036 45.0989322,78.1365118 L34.7283972,72.3209885 L34.7283972,72.3209885 C33.523217,71.6451551 32.7769883,70.371137 32.7769883,68.9893952 L32.7769883,68.9893952 L32.7769883,68.9893952 C32.7769883,68.2656554 33.3636954,67.6789483 34.0874353,67.6789483 C34.3119046,67.6789483 34.532611,67.7366078 34.7283972,67.8463996 Z" id="Rectangle" fill="#FFFFFF"></path>
                                <path d="M29.4439325,55.1473234 L53.4195671,68.530376 L53.4195671,68.530376 C54.6256999,69.2036319 55.3731223,70.4768186 55.3731223,71.858133 L55.3731223,71.858133 L55.3731223,71.858133 C55.3731223,72.5835042 54.7850928,73.1715337 54.0597217,73.1715337 C53.8356208,73.1715337 53.615247,73.1141922 53.4195671,73.0049649 L29.4439325,59.6219123 L29.4439325,59.6219123 C28.2377998,58.9486564 27.4903773,57.6754697 27.4903773,56.2941553 L27.4903773,56.2941553 L27.4903773,56.2941553 C27.4903773,55.5687841 28.0784068,54.9807546 28.803778,54.9807546 C29.0278789,54.9807546 29.2482526,55.0380961 29.4439325,55.1473234 Z" id="Rectangle" fill="#FFFFFF"></path>
                                <path d="M18.8622628,67.8490059 L31.0280646,74.763181 L31.0280646,74.763181 C32.2304317,75.4465208 32.9731722,76.7229538 32.9731722,78.105936 L32.9731722,78.105936 L32.9731722,78.105936 C32.9731722,78.82493 32.3903124,79.4077898 31.6713184,79.4077898 C31.4457934,79.4077898 31.2241365,79.3492032 31.0280646,79.2377699 L18.8622628,72.3235948 L18.8622628,72.3235948 C17.6598958,71.6402551 16.9171553,70.3638221 16.9171553,68.9808398 L16.9171553,68.9808398 L16.9171553,68.9808398 C16.9171553,68.2618458 17.5000151,67.678986 18.2190091,67.678986 C18.4445341,67.678986 18.666191,67.7375727 18.8622628,67.8490059 Z" id="Rectangle" fill="#FFFFFF"></path>
                                <path d="M27.3208405,82.6515168 L39.4866423,89.5656919 L39.4866423,89.5656919 C40.6890093,90.2490317 41.4317498,91.5254647 41.4317498,92.9084469 L41.4317498,92.9084469 L41.4317498,92.9084469 C41.4317498,93.6274409 40.84889,94.2103007 40.129896,94.2103007 C39.904371,94.2103007 39.6827141,94.151714 39.4866423,94.0402808 L27.3208405,87.1261057 L27.3208405,87.1261057 C26.1184734,86.4427659 25.3757329,85.1663329 25.3757329,83.7833507 L25.3757329,83.7833507 L25.3757329,83.7833507 C25.3757329,83.0643567 25.9585927,82.4814969 26.6775867,82.4814969 C26.9031117,82.4814969 27.1247686,82.5400836 27.3208405,82.6515168 Z" id="Rectangle" fill="#FFFFFF"></path>
                                <path d="M47.4043244,56.2103668 L104.308871,88.9342222 L104.308871,88.9342222 C105.508701,89.6242029 106.248341,90.9027642 106.248341,92.2868392 L106.248341,92.2868392 L106.248341,92.2868392 C106.248341,93.0016403 105.66888,93.5811011 104.954079,93.5811011 C104.727641,93.5811011 104.505166,93.5216935 104.308871,93.4088111 L47.4043244,60.6849557 L47.4043244,60.6849557 C46.2044952,59.9949751 45.4648548,58.7164137 45.4648548,57.3323388 L45.4648548,57.3323388 L45.4648548,57.3323388 C45.4648548,56.6175376 46.0443156,56.0380768 46.7591167,56.0380768 C46.9855544,56.0380768 47.2080297,56.0974845 47.4043244,56.2103668 Z" id="Rectangle" fill="#FFD07E"></path>
                                <path d="M33.668418,96.3848591 L79.0024794,121.95158 L79.0024794,121.95158 C80.2064765,122.63059 80.9512313,123.905631 80.9512313,125.287898 L80.9512313,125.287898 L80.9512313,125.287898 C80.9512313,126.009629 80.3661528,126.594707 79.6444218,126.594707 C79.4195027,126.594707 79.1983908,126.536656 79.0024794,126.426169 L33.668418,100.859448 L33.668418,100.859448 C32.4644209,100.180438 31.7196661,98.9053974 31.7196661,97.5231301 L31.7196661,97.5231301 L31.7196661,97.5231301 C31.7196661,96.8013991 32.3047447,96.2163206 33.0264756,96.2163206 C33.2513947,96.2163206 33.4725066,96.2743723 33.668418,96.3848591 Z" id="Rectangle" fill="#FFFFFF"></path>
                                <path d="M2.99677042,78.4141417 L26.9531201,92.1912277 L26.9531201,92.1912277 C28.1529396,92.8812334 28.8925683,94.1598027 28.8925683,95.5438818 L28.8925683,95.5438818 L28.8925683,95.5438818 C28.8925683,96.2586671 28.3131203,96.8381152 27.5983349,96.8381152 C27.3718938,96.8381152 27.1494156,96.7787044 26.9531201,96.6658166 L2.99677042,82.8887306 L2.99677042,82.8887306 C1.79695086,82.1987249 1.0573222,80.9201555 1.0573222,79.5360765 L1.0573222,79.5360765 L1.0573222,79.5360765 C1.0573222,78.8212911 1.63677022,78.2418431 2.35155556,78.2418431 C2.57799667,78.2418431 2.80047493,78.3012538 2.99677042,78.4141417 Z" id="Rectangle" fill="#F87373"></path>
                                <path d="M13.5891397,45.646409 L23.1074391,50.9016706 L23.1074391,50.9016706 C24.3157968,51.5688314 25.0660345,52.8400472 25.0660345,54.2203486 L25.0660345,54.2203486 L25.0660345,54.2203486 C25.0660345,54.9495807 24.474875,55.5407402 23.7456428,55.5407402 C23.5224251,55.5407402 23.3028507,55.4841506 23.1074391,55.3762595 L13.5891397,50.1209979 L13.5891397,50.1209979 C12.380782,49.4538371 11.6305442,48.1826213 11.6305442,46.8023199 L11.6305442,46.8023199 L11.6305442,46.8023199 C11.6305442,46.0730877 12.2217037,45.4819282 12.9509359,45.4819282 C13.1741537,45.4819282 13.3937281,45.5385179 13.5891397,45.646409 Z" id="Rectangle" fill="#F87373"></path>
                                <path d="M46.3661281,94.2832304 L55.8844274,99.538492 L55.8844274,99.538492 C57.0927851,100.205653 57.8430229,101.476869 57.8430229,102.85717 L57.8430229,102.85717 L57.8430229,102.85717 C57.8430229,103.586402 57.2518634,104.177562 56.5226312,104.177562 C56.2994134,104.177562 56.079839,104.120972 55.8844274,104.013081 L46.3661281,98.7578193 L46.3661281,98.7578193 C45.1577704,98.0906585 44.4075326,96.8194427 44.4075326,95.4391413 L44.4075326,95.4391413 L44.4075326,95.4391413 C44.4075326,94.7099091 44.9986921,94.1187496 45.7279243,94.1187496 C45.9511421,94.1187496 46.1707164,94.1753393 46.3661281,94.2832304 Z" id="Rectangle" fill="#F87373"></path>
                                <path d="M3.01591768,10.7547762 L12.534217,16.0100379 L12.534217,16.0100379 C13.7425747,16.6771986 14.4928125,17.9484144 14.4928125,19.3287158 L14.4928125,19.3287158 L14.4928125,19.3287158 C14.4928125,20.057948 13.901653,20.6491075 13.1724208,20.6491075 C12.949203,20.6491075 12.7296286,20.5925178 12.534217,20.4846268 L3.01591768,15.2293651 L3.01591768,15.2293651 C1.80755998,14.5622043 1.0573222,13.2909885 1.0573222,11.9106872 L1.0573222,11.9106872 L1.0573222,11.9106872 C1.0573222,11.181455 1.6484817,10.5902955 2.3777139,10.5902955 C2.60093168,10.5902955 2.82050606,10.6468852 3.01591768,10.7547762 Z" id="Rectangle" fill="#F87373"></path>
                                <path d="M2.98814475,67.8547855 L20.4445147,78.0730434 L20.4445147,78.0730434 C21.6404146,78.7730752 22.3753373,80.0548435 22.3753373,81.4405639 L22.3753373,81.4405639 L22.3753373,81.4405639 C22.3753373,82.1490287 21.801013,82.723353 21.0925481,82.723353 C20.864767,82.723353 20.6410937,82.6627018 20.4445147,82.5476323 L2.98814475,72.3293744 L2.98814475,72.3293744 C1.79224486,71.6293427 1.0573222,70.3475744 1.0573222,68.961854 L1.0573222,68.961854 L1.0573222,68.961854 C1.0573222,68.2533892 1.63164646,67.6790649 2.34011133,67.6790649 C2.56789247,67.6790649 2.79156581,67.7397161 2.98814475,67.8547855 Z" id="Rectangle" fill="#AA8DC5"></path>
                                <path d="M30.5238381,18.1416785 L39.9643308,23.1529182 L39.9643308,23.1529182 C41.1802989,23.7983832 41.9404695,25.0625305 41.9404695,26.4391944 L41.9404695,26.4391944 L41.9404695,26.4391944 C41.9404695,27.1822127 41.3381341,27.7845481 40.5951157,27.7845481 C40.3751785,27.7845481 40.1585951,27.7306272 39.9643308,27.6275071 L30.5238381,22.6162674 L30.5238381,22.6162674 C29.3078701,21.9708024 28.5476995,20.7066551 28.5476995,19.3299912 L28.5476995,19.3299912 L28.5476995,19.3299912 C28.5476995,18.5869728 29.1500349,17.9846375 29.8930533,17.9846375 C30.1129905,17.9846375 30.3295738,18.0385583 30.5238381,18.1416785 Z" id="Rectangle" fill="#AA8DC5"></path>
                                <path d="M18.8506857,20.2637748 L43.6407737,34.6950998 L43.6407737,34.6950998 C44.8379088,35.3920012 45.5743042,36.6727725 45.5743042,38.0579815 L45.5743042,38.0579815 L45.5743042,38.0579815 C45.5743042,38.7684185 44.9983811,39.3443416 44.287944,39.3443416 C44.0605764,39.3443416 43.837271,39.2840778 43.6407737,39.1696887 L18.8506857,24.7383637 L18.8506857,24.7383637 C17.6535506,24.0414623 16.9171553,22.760691 16.9171553,21.375482 L16.9171553,21.375482 L16.9171553,21.375482 C16.9171553,20.6650449 17.4930783,20.0891219 18.2035154,20.0891219 C18.430883,20.0891219 18.6541884,20.1493857 18.8506857,20.2637748 Z" id="Rectangle" fill="#75C8DC"></path>
                                <path d="M13.5422041,36.1425994 L22.5690295,41.6311666 L22.5690295,41.6311666 C23.7560702,42.3529212 24.4806894,43.6415621 24.4806894,45.0308048 L24.4806894,45.0308048 L24.4806894,45.0308048 C24.4806894,45.7256117 23.9174371,46.288864 23.2226302,46.288864 C22.9921017,46.288864 22.766005,46.2255222 22.5690295,46.1057555 L13.5422041,40.6171883 L13.5422041,40.6171883 C12.3551635,39.8954337 11.6305442,38.6067928 11.6305442,37.2175502 L11.6305442,37.2175502 L11.6305442,37.2175502 C11.6305442,36.5227432 12.1937965,35.959491 12.8886034,35.959491 C13.119132,35.959491 13.3452287,36.0228327 13.5422041,36.1425994 Z" id="Rectangle" fill="#75C8DC"></path>
                                <path d="M2.9689821,86.8940652 L11.9958075,92.3826324 L11.9958075,92.3826324 C13.1828482,93.104387 13.9074674,94.3930279 13.9074674,95.7822706 L13.9074674,95.7822706 L13.9074674,95.7822706 C13.9074674,96.4770775 13.3442151,97.0403298 12.6494082,97.0403298 C12.4188797,97.0403298 12.192783,96.976988 11.9958075,96.8572213 L2.9689821,91.3686541 L2.9689821,91.3686541 C1.78194142,90.6468996 1.0573222,89.3582587 1.0573222,87.969016 L1.0573222,87.969016 L1.0573222,87.969016 C1.0573222,87.2742091 1.62057449,86.7109568 2.3153814,86.7109568 C2.54590991,86.7109568 2.77200664,86.7742985 2.9689821,86.8940652 Z" id="Rectangle" fill="#75C8DC"></path>
                                <path d="M60.0944874,73.1369848 L74.8872217,81.6032205 L74.8872217,81.6032205 C76.0880871,82.2905045 76.8289879,83.5682025 76.8289879,84.9518342 L76.8289879,84.9518342 L76.8289879,84.9518342 C76.8289879,85.6683374 76.2481474,86.2491779 75.5316443,86.2491779 C75.3055748,86.2491779 75.0834293,86.1901037 74.8872217,86.0778094 L60.0944874,77.6115737 L60.0944874,77.6115737 C58.8936221,76.9242897 58.1527212,75.6465917 58.1527212,74.26296 L58.1527212,74.26296 L58.1527212,74.26296 C58.1527212,73.5464569 58.7335618,72.9656163 59.4500649,72.9656163 C59.6761344,72.9656163 59.8982799,73.0246905 60.0944874,73.1369848 Z" id="Rectangle" fill="#62CFBD"></path>
                                <path d="M37.8907212,79.480918 L52.6834554,87.9471538 L52.6834554,87.9471538 C53.8843208,88.6344377 54.6252216,89.9121357 54.6252216,91.2957675 L54.6252216,91.2957675 L54.6252216,91.2957675 C54.6252216,92.0122706 54.0443811,92.5931111 53.327878,92.5931111 C53.1018085,92.5931111 52.879663,92.534037 52.6834554,92.4217427 L37.8907212,83.9555069 L37.8907212,83.9555069 C36.6898558,83.2682229 35.948955,81.9905249 35.948955,80.6068932 L35.948955,80.6068932 L35.948955,80.6068932 C35.948955,79.8903901 36.5297955,79.3095495 37.2462986,79.3095495 C37.4723681,79.3095495 37.6945136,79.3686237 37.8907212,79.480918 Z" id="Rectangle" fill="#62CFBD"></path>
                                <path d="M46.3361142,113.310076 L57.209184,119.703664 L57.209184,119.703664 C58.4040584,120.406275 59.1377656,121.688863 59.1377656,123.075004 L59.1377656,123.075004 L59.1377656,123.075004 C59.1377656,123.781845 58.5647578,124.354853 57.857917,124.354853 C57.6297985,124.354853 57.4058256,124.293883 57.209184,124.178253 L46.3361142,117.784665 L46.3361142,117.784665 C45.1412397,117.082054 44.4075326,115.799465 44.4075326,114.413324 L44.4075326,114.413324 L44.4075326,114.413324 C44.4075326,113.706484 44.9805403,113.133476 45.6873812,113.133476 C45.9154997,113.133476 46.1394726,113.194446 46.3361142,113.310076 Z" id="Rectangle" fill="#62CFBD"></path>
                                <path d="M13.5723104,55.1625073 L28.3650447,63.6287431 L28.3650447,63.6287431 C29.5659101,64.316027 30.3068109,65.593725 30.3068109,66.9773568 L30.3068109,66.9773568 L30.3068109,66.9773568 C30.3068109,67.6938599 29.7259704,68.2747004 29.0094673,68.2747004 C28.7833978,68.2747004 28.5612523,68.2156263 28.3650447,68.103332 L13.5723104,59.6370962 L13.5723104,59.6370962 C12.3714451,58.9498122 11.6305442,57.6721142 11.6305442,56.2884825 L11.6305442,56.2884825 L11.6305442,56.2884825 C11.6305442,55.5719794 12.2113848,54.9911388 12.9278879,54.9911388 C13.1539574,54.9911388 13.3761029,55.050213 13.5723104,55.1625073 Z" id="Rectangle" fill="#AA8DC5"></path>
                                <path d="M18.8902381,97.4319992 L39.5990915,108.501987 L39.5990915,108.501987 C40.8137495,109.151287 41.5721744,110.41669 41.5721744,111.794 L41.5721744,111.794 L41.5721744,111.794 C41.5721744,112.534577 40.9718184,113.134933 40.2312417,113.134933 C40.0107091,113.134933 39.7935805,113.080541 39.5990915,112.976576 L18.8902381,101.906588 L18.8902381,101.906588 C17.6755802,101.257289 16.9171553,99.9918859 16.9171553,98.6145755 L16.9171553,98.6145755 L16.9171553,98.6145755 C16.9171553,97.8739988 17.5175113,97.2736428 18.258088,97.2736428 C18.4786206,97.2736428 18.6957492,97.3280345 18.8902381,97.4319992 Z" id="Rectangle" fill="#FFFFFF"></path>
                                <path d="M32.6222585,38.22753 L60.8144631,53.7481706 L60.8144631,53.7481706 C62.0234004,54.4137262 62.7743778,55.6844219 62.7743778,57.0644558 L62.7743778,57.0644558 L62.7743778,57.0644558 C62.7743778,57.7947057 62.1823933,58.3866901 61.4521435,58.3866901 C61.2291611,58.3866901 61.0098002,58.3302983 60.8144631,58.2227595 L32.6222585,42.7021189 L32.6222585,42.7021189 C31.4133213,42.0365633 30.6623439,40.7658676 30.6623439,39.3858336 L30.6623439,39.3858336 L30.6623439,39.3858336 C30.6623439,38.6555838 31.2543284,38.0635994 31.9845782,38.0635994 C32.2075606,38.0635994 32.4269215,38.1199912 32.6222585,38.22753 Z" id="Rectangle" fill="#FFFFFF"></path>
                                <path d="M13.5756518,26.61344 L25.7414536,33.527615 L25.7414536,33.527615 C26.9438207,34.2109548 27.6865612,35.4873878 27.6865612,36.87037 L27.6865612,36.87037 L27.6865612,36.87037 C27.6865612,37.589364 27.1037014,38.1722238 26.3847074,38.1722238 C26.1591823,38.1722238 25.9375254,38.1136372 25.7414536,38.0022039 L13.5756518,31.0880289 L13.5756518,31.0880289 C12.3732847,30.4046891 11.6305442,29.1282561 11.6305442,27.7452739 L11.6305442,27.7452739 L11.6305442,27.7452739 C11.6305442,27.0262799 12.2134041,26.4434201 12.9323981,26.4434201 C13.1579231,26.4434201 13.37958,26.5020067 13.5756518,26.61344 Z" id="Rectangle" fill="#FFFFFF"></path>
                                <path d="M1.93191046,0.175292382 L24.25953,13.2161209 L24.25953,13.2161209 C25.4559267,13.9148969 26.1914405,15.1962654 26.1914405,16.5817807 L26.1914405,16.5817807 L26.1914405,16.5817807 C26.1914405,17.2910367 25.6164749,17.8660022 24.907219,17.8660022 C24.6796032,17.8660022 24.4560769,17.8055064 24.25953,17.6907098 L1.93191046,4.64988128 L1.93191046,4.64988128 C0.735513799,3.95110533 1.69676695e-16,2.6697368 0,1.28422145 L0,1.28422145 L0,1.28422145 C-8.68587994e-17,0.574965527 0.574965527,9.24260668e-15 1.28422145,9.1038288e-15 C1.51183724,9.04831765e-15 1.73536354,0.06049579 1.93191046,0.175292382 Z" id="Rectangle" fill="#FFD07E"></path>
                            </g>
                        </g>
                    </g>
                </g>
                <g id="Phone-+-cable" transform="translate(169.854086, 281.624033)">
                    <g id="Group-5" transform="translate(128.280275, 0.000000)">
                        <polygon id="Rectangle-4" fill="#3FC0B0" points="8.34278483 8.93795371 17.6000417 3.70740421 17.6000417 8.82059218 8.34278483 14.0511417"></polygon>
                        <polygon id="Rectangle-4" fill="#3FC0B0" points="8.34278483 8.93795371 17.6000417 3.70740421 17.6000417 8.82059218 8.34278483 14.0511417"></polygon>
                        <polygon id="Rectangle-4" fill="#3FC0B0" points="11.0816995 95.7310955 20.3389564 90.500546 20.3389564 92.8433091 11.0816995 98.0738586"></polygon>
                        <polygon id="Rectangle-5" fill="#3FC0B0" points="0.848883223 4.82735257 9.03617507 8.8025116 9.03617507 13.43114 0.848883223 8.71755157"></polygon>
                        <polygon id="Path-6" fill="#3FC0B0" points="10.163998 0.225103219 0.675309657 4.96386095 8.91187108 9.56551207 18.1334188 4.76692618"></polygon>
                        <polygon id="Path-6" fill="#3FC0B0" points="14.1060631 87.7301211 4.61737479 92.4688788 11.9304613 96.147055 21.152009 91.3484691"></polygon>
                        <path d="M12.9971886,9.62975157 L79.745327,47.5439339 L79.745327,47.5439339 C82.1464333,48.9078069 82.987277,51.9599257 81.6234041,54.361032 C81.1617177,55.1738336 80.4814258,55.8409353 79.6597417,56.2866211 L15.8433673,90.9009589" id="Path-23" stroke="#3FC0B0" stroke-width="2"></path>
                    </g>
                    <g id="Group-7" filter="url(#filter-3)" transform="translate(82.159996, 128.342321) scale(-1, 1) translate(-82.159996, -128.342321) translate(0.159996, 80.342321)">
                        <g id="Path-2">
                            <use fill="black" fill-opacity="1" filter="url(#filter-5)" xlink:href="#path-4"></use>
                            <use fill="#E8E8E8" fill-rule="evenodd" xlink:href="#path-4"></use>
                        </g>
                        <polygon id="Path-2" fill="#464646" points="63.048459 6.46432471 10.0224225 36.7582563 100.086482 88.2351465 152.818175 57.7092118"></polygon>
                    </g>
                </g>
                <g id="Arduino-+-cable" transform="translate(62.760601, 290.858783)">
                    <g id="Group-14" filter="url(#filter-6)" transform="translate(0.000000, 18.469499)">
                        <path d="M46.3150397,5.85318653 L1.01195782,31.8285669 L1.01195782,31.8285669 C0.0537248929,32.3779879 -0.27768265,33.6001829 0.271738354,34.5584158 C0.443041603,34.857182 0.688591156,35.1066513 0.984607173,35.2826642 L70.1713068,76.4214966 L70.1713068,76.4214966 C71.7289448,77.3476776 73.6657997,77.3585477 75.2337351,76.4499082 L121.724216,49.5080547 L121.724216,49.5080547 C122.679905,48.9542202 123.005672,47.7305098 122.451838,46.774821 C122.274647,46.4690621 122.019604,46.2157118 121.712672,46.0405603 L51.2802305,5.84810542 L51.2802305,5.84810542 C49.7411953,4.96985101 47.8522742,4.97178403 46.3150397,5.85318653 Z" id="Path-7" fill="#447480"></path>
                        <g id="Group-5" transform="translate(94.774953, 45.044196)">
                            <polygon id="Rectangle-4" fill="#BDBDBD" points="12.9601596 10.7849036 22.2174165 5.55435412 22.2174165 10.6675421 12.9601596 15.8980916"></polygon>
                            <polygon id="Rectangle-5" fill="#DBDBDB" points="0.848883223 4.82735257 13.6535499 10.6494615 13.6535499 15.27809 0.848883223 8.71755157"></polygon>
                            <polygon id="Path-6" fill="#DBDBDB" points="10.163998 0.225103219 0.675309657 4.96386095 13.5292459 11.412462 22.7507936 6.6138761"></polygon>
                        </g>
                        <polygon id="Path-6" fill="#464646" points="68.8190277 38.3983311 59.3303394 43.1370888 68.8190277 48.1241103 78.0405754 43.3255244"></polygon>
                        <polygon id="Path-6" fill="#464646" points="77.9794068 45.7826255 73.3604988 48.0893602 77.9794068 50.5169448 82.4682761 48.1810869"></polygon>
                        <polygon id="Path-6" fill="#464646" points="59.5186707 26.58346 54.8997627 28.8901946 59.5186707 31.3177792 64.00754 28.9819214"></polygon>
                        <g id="Group-13" transform="translate(30.531591, 39.875190)">
                            <polygon id="Path-18" fill="#A5A5A5" points="0.771495549 1.5429911 0.771495549 9.75745982 28.4511586 26.0704557 28.4511586 17.6185776"></polygon>
                            <polygon id="Path-19" fill="#A5A5A5" points="28.3087634 17.806931 31.306973 15.9429857 31.306973 24.7128043 28.3087634 26.1424067"></polygon>
                            <polygon id="Path-20" fill="#D8D8D8" points="28.7864277 17.8702177 0.652456197 1.78182322 3.72638378 0.221503605 31.1664613 16.4229101"></polygon>
                        </g>
                        <g id="Group-13" transform="translate(17.978291, 17.722307)">
                            <polygon id="Path-18" fill="#464646" points="0.771495549 3.75827943 0.771495549 7.20185045 28.4511586 23.5148463 28.4511586 19.8338659"></polygon>
                            <polygon id="Path-19" fill="#464646" points="28.3087634 20.0222193 35.7186399 16.1206348 35.7186399 20.0222193 28.3087634 23.4894609"></polygon>
                            <polygon id="Path-20" fill="#5A5A5A" points="28.7864277 20.085506 0.652456197 3.99711155 8.48328514 0.0374983702 35.9233627 16.2389049"></polygon>
                        </g>
                        <g id="Group-13" transform="translate(4.686561, 25.106601)">
                            <polygon id="Path-18" fill="#A5A5A5" points="0.465845138 1.53089272 0.465845138 9.74536144 22.5437231 22.3783084 22.5437231 13.9264303"></polygon>
                            <polygon id="Path-19" fill="#A5A5A5" points="22.4013279 14.1147837 25.3995374 12.2508384 25.3995374 21.0206571 22.4013279 22.4502594"></polygon>
                            <polygon id="Path-20" fill="#D8D8D8" points="22.8789921 14.1780705 0.717734547 1.73987912 3.79166213 0.179559503 25.2590258 12.7307629"></polygon>
                        </g>
                        <g id="Group-13" transform="translate(74.098928, 14.768589)">
                            <polygon id="Path-18" fill="#A5A5A5" points="0.771495549 1.5429911 0.771495549 9.75745982 28.4511586 26.0704557 28.4511586 17.6185776"></polygon>
                            <polygon id="Path-19" fill="#A5A5A5" points="28.3087634 17.806931 31.306973 15.9429857 31.306973 24.7128043 28.3087634 26.1424067"></polygon>
                            <polygon id="Path-20" fill="#D8D8D8" points="28.7864277 17.8702177 0.652456197 1.78182322 3.72638378 0.221503605 31.1664613 16.4229101"></polygon>
                        </g>
                        <g id="Group-13" transform="translate(48.253898, 0.000000)">
                            <polygon id="Path-18" fill="#A5A5A5" points="0.465845138 1.53089272 0.465845138 9.74536144 22.5437231 22.3783084 22.5437231 13.9264303"></polygon>
                            <polygon id="Path-19" fill="#A5A5A5" points="22.4013279 14.1147837 25.3995374 12.2508384 25.3995374 21.0206571 22.4013279 22.4502594"></polygon>
                            <polygon id="Path-20" fill="#D8D8D8" points="22.8789921 14.1780705 0.717734547 1.73987912 3.79166213 0.179559503 25.2590258 12.7307629"></polygon>
                        </g>
                    </g>
                    <path d="M232.217351,8.70988394 L247.850222,17.5357102 L247.850222,17.5357102 C250.254883,18.8933061 251.103697,21.9432179 249.746101,24.3478789 C249.300386,25.1373575 248.648405,25.7907938 247.859922,26.2382674 L138.77095,88.1475697 L138.77095,88.1475697 C137.185832,89.0471432 135.236793,89.012942 133.684212,88.0583089 L119.533566,79.357522" id="Path-21" stroke="#75C8DC" stroke-width="2"></path>
                    <g id="Group-5" transform="translate(220.598161, 0.000000)" fill="#75C8DC">
                        <polygon id="Rectangle-4" points="8.34278483 8.93795371 17.6000417 3.70740421 17.6000417 8.82059218 8.34278483 14.0511417"></polygon>
                        <polygon id="Rectangle-5" points="0.848883223 4.82735257 9.03617507 8.8025116 9.03617507 13.43114 0.848883223 8.71755157"></polygon>
                        <polygon id="Path-6" points="10.163998 0.225103219 0.675309657 4.96386095 8.91187108 9.56551207 18.1334188 4.76692618"></polygon>
                    </g>
                    <g id="Group-5" transform="translate(107.934216, 70.184097)" fill="#75C8DC">
                        <polygon id="Rectangle-4" points="8.34278483 8.93795371 17.6000417 3.70740421 17.6000417 8.82059218 8.34278483 14.0511417"></polygon>
                        <polygon id="Rectangle-5" points="0.848883223 4.82735257 9.03617507 8.8025116 9.03617507 13.43114 0.848883223 8.71755157"></polygon>
                        <polygon id="Path-6" points="10.163998 0.225103219 0.675309657 4.96386095 8.91187108 9.56551207 18.1334188 4.76692618"></polygon>
                    </g>
                </g>
                <g id="Group-5" transform="translate(312.909960, 273.312758)" fill="#FFD07E">
                    <polygon id="Rectangle-4" points="8.34278483 8.93795371 17.6000417 3.70740421 17.6000417 8.82059218 8.34278483 14.0511417"></polygon>
                    <polygon id="Rectangle-5" points="0.848883223 4.82735257 9.03617507 8.8025116 9.03617507 13.43114 0.848883223 8.71755157"></polygon>
                    <polygon id="Path-6" points="10.163998 0.225103219 0.675309657 4.96386095 8.91187108 9.56551207 18.1334188 4.76692618"></polygon>
                </g>
            </g>
        </g>
    </g>
</svg>