<?xml version="1.0" encoding="utf-8"?>
<!-- Generator: Adobe Illustrator 16.0.0, SVG Export Plug-In . SVG Version: 6.00 Build 0)  -->
<!DOCTYPE svg PUBLIC "-//W3C//DTD SVG 1.1//EN" "http://www.w3.org/Graphics/SVG/1.1/DTD/svg11.dtd">
<svg version="1.1" id="Layer_1" xmlns="http://www.w3.org/2000/svg" xmlns:xlink="http://www.w3.org/1999/xlink" x="0px" y="0px"
	 width="144px" height="145px" viewBox="0 0 144 145" enable-background="new 0 0 144 145" xml:space="preserve">
<g id="Red_Box">
	<polygon id="Path-22_6_" fill="#F87373" points="36.08,62.154 72.031,83.007 72.031,41.385 36.031,20.632 	"/>
	<polygon id="Path-22_7_" fill="#F49292" points="36.031,20.632 72.031,41.385 107.945,21.261 71.989,0.396 	"/>
	<polygon id="Path-22_8_" fill="#D15D5D" points="108.01,62.766 107.945,21.261 72.031,41.385 72.031,83.007 	"/>
</g>
<g id="Yellow_Box">
	<polygon id="Path-22_11_" fill="#FFD07E" points="72.051,124.805 108.052,145.377 108.052,103.755 72.051,83.003 	"/>
	<polygon id="Path-22_10_" fill="#FFE0A9" points="72.051,83.003 108.052,103.755 143.966,83.632 108.01,62.766 	"/>
	<polygon id="Path-22_9_" fill="#E6BB70" points="143.966,124.815 143.966,83.632 108.052,103.755 108.052,145.377 	"/>
</g>
<g id="Blue_Box">
	<polygon id="Path-22_14_" fill="#75C8DC" points="0.121,124.193 36.122,144.766 36.122,103.144 0.121,82.392 	"/>
	<polygon id="Path-22_13_" fill="#A3DAE8" points="0.121,82.392 36.122,103.144 72.036,83.021 36.08,62.154 	"/>
	<polygon id="Path-22_12_" fill="#5FA2B3" points="72.036,124.204 72.036,83.021 36.122,103.144 36.122,144.766 	"/>
</g>
</svg>
