<?xml version="1.0" encoding="utf-8"?>
<!-- Generator: Adobe Illustrator 16.0.0, SVG Export Plug-In . SVG Version: 6.00 Build 0)  -->
<!DOCTYPE svg PUBLIC "-//W3C//DTD SVG 1.1//EN" "http://www.w3.org/Graphics/SVG/1.1/DTD/svg11.dtd">
<svg version="1.1" id="Layer_1" xmlns="http://www.w3.org/2000/svg" xmlns:xlink="http://www.w3.org/1999/xlink" x="0px" y="0px"
	 width="123px" height="146.663px" viewBox="0 0 123 146.663" enable-background="new 0 0 123 146.663" xml:space="preserve">
<g id="Big_Box">
	<polygon id="Path-22" fill="#584966" points="26.978,84.187 63.121,105.029 99.183,84.187 62.989,63.396 	"/>
	<polygon id="Path-22_1_" fill="#C6AAE1" points="123.338,56.33 88.502,35.267 62.989,63.451 99.183,84.213 	"/>
	<polygon id="Path-22_2_" fill="#C6AAE1" points="3.312,91.655 37.937,70.588 62.989,63.396 27.008,84.161 	"/>
	<polygon id="Path-22_3_" fill="#8F77A6" points="99.183,124.88 99.183,84.187 63.121,105.029 63.118,146.663 	"/>
	<polygon id="Path-22_4_" fill="#AA8DC5" points="63.146,146.65 63.121,105.029 27.006,84.174 27.006,124.805 	"/>
	<polygon id="Path-22_5_" fill="#AA8DC5" points="63.109,105.018 99.157,84.213 123.338,109.213 85.932,129.716 	"/>
	<polygon id="Path-22_6_" fill="#C6AAE1" points="63.134,105.046 27.008,84.174 11.963,112.87 49.446,133.44 	"/>
</g>
<g id="Red_Box">
	<polygon id="Path-22_18_" fill="#F87373" points="15.056,66.586 31.838,67.536 23.498,52.071 6.718,51.167 	"/>
	<polygon id="Path-22_17_" fill="#F49292" points="6.718,51.167 23.498,52.071 32.056,37.803 15.269,36.849 	"/>
	<polygon id="Path-22_16_" fill="#D15D5D" points="40.396,53.212 32.056,37.803 23.498,52.071 31.838,67.536 	"/>
</g>
<g id="Blue_Box">
	<polygon id="Path-22_15_" fill="#75C8DC" points="38.298,33.308 56.22,37.669 51.094,19.877 33.15,15.439 	"/>
	<polygon id="Path-22_14_" fill="#A3DAE8" points="33.15,15.439 51.094,19.877 63.968,6.853 46.029,2.361 	"/>
	<polygon id="Path-22_13_" fill="#5FA2B3" points="69.04,24.457 63.968,6.853 51.094,19.877 56.22,37.669 	"/>
</g>
<g id="Yellow_Box">
	<polygon id="Path-22_8_" fill="#FFD07E" points="84.323,28.851 92.266,37.897 96.194,26.469 88.269,17.375 	"/>
	<polygon id="Path-22_7_" fill="#FFE0A9" points="88.269,17.375 96.194,26.469 107.952,24.334 100.05,15.212 	"/>
	<polygon id="Path-22_9_" fill="#E6BB70" points="104.066,35.641 107.952,24.334 96.194,26.469 92.266,37.897 	"/>
</g>
</svg>
