<?xml version="1.0" encoding="UTF-8"?>
<svg width="156px" height="176px" viewBox="0 0 156 176" version="1.1" xmlns="http://www.w3.org/2000/svg" xmlns:xlink="http://www.w3.org/1999/xlink">
    <!-- Generator: Sketch 46.1 (44463) - http://www.bohemiancoding.com/sketch -->
    <title>featurette-inclusivity</title>
    <desc>Created with Sketch.</desc>
    <defs>
        <filter x="-6.2%" y="-5.9%" width="112.4%" height="113.3%" filterUnits="objectBoundingBox" id="filter-1">
            <feOffset dx="0" dy="2" in="SourceAlpha" result="shadowOffsetOuter1"></feOffset>
            <feGaussianBlur stdDeviation="4" in="shadowOffsetOuter1" result="shadowBlurOuter1"></feGaussianBlur>
            <feColorMatrix values="0 0 0 0 0.0470588235   0 0 0 0 0.164705882   0 0 0 0 0.2  0 0 0 0.3 0" type="matrix" in="shadowBlurOuter1" result="shadowMatrixOuter1"></feColorMatrix>
            <feMerge>
                <feMergeNode in="shadowMatrixOuter1"></feMergeNode>
                <feMergeNode in="SourceGraphic"></feMergeNode>
            </feMerge>
        </filter>
    </defs>
    <g id="Page-1" stroke="none" stroke-width="1" fill="none" fill-rule="evenodd">
        <g id="featurette-inclusivity" filter="url(#filter-1)" transform="translate(-27.000000, -15.000000)">
            <polygon id="Path-22" fill="#62CFBD" transform="translate(52.747591, 90.922976) rotate(-120.000000) translate(-52.747591, -90.922976) " points="17.6947051 50.3104326 17.7361518 131.53552 87.8004764 90.7860186"></polygon>
            <polygon id="Path-22" fill="#FFD07E" transform="translate(87.697937, 50.662961) rotate(-60.000000) translate(-87.697937, -50.662961) " points="52.6450517 10.0504176 52.6864983 91.2755049 122.750823 50.5260036"></polygon>
            <polygon id="Path-22" fill="#F87373" transform="translate(140.052886, 60.612544) rotate(-360.000000) translate(-140.052886, -60.612544) " points="105 20 105.041447 101.225087 175.105771 60.4755859"></polygon>
            <polygon id="Path-22" fill="#AA8DC5" transform="translate(156.965515, 110.819575) rotate(-300.000000) translate(-156.965515, -110.819575) " points="121.91263 70.2070312 121.954076 151.432118 192.018401 110.682617"></polygon>
            <polygon id="Path-22" fill="#75C8DC" transform="translate(122.407834, 151.662961) rotate(-240.000000) translate(-122.407834, -151.662961) " points="87.3549483 111.050418 87.396395 192.275505 157.46072 151.526004"></polygon>
            <polygon id="Path-22" fill="#EAEAEA" transform="translate(70.052886, 140.612544) rotate(-180.000000) translate(-70.052886, -140.612544) " points="35 100 35.0414467 181.225087 105.105771 140.475586"></polygon>
        </g>
    </g>
</svg>