<?xml version="1.0" encoding="UTF-8"?>
<svg width="144px" height="145px" viewBox="0 0 144 145" version="1.1" xmlns="http://www.w3.org/2000/svg" xmlns:xlink="http://www.w3.org/1999/xlink">
    <!-- Generator: Sketch 45.2 (43514) - http://www.bohemiancoding.com/sketch -->
    <title>Group 18</title>
    <desc>Created with Sketch.</desc>
    <defs></defs>
    <g id="Page-1" stroke="none" stroke-width="1" fill="none" fill-rule="evenodd">
        <g id="Group-18" transform="translate(-18.000000, -10.000000)">
            <g id="Group-17" transform="translate(0.000000, 61.500000)">
                <polygon id="Path-22" fill="#75C8DC" transform="translate(36.111579, 61.808168) rotate(-120.000000) translate(-36.111579, -61.808168) " points="36.140248 40.9469644 0.0720957754 61.8331225 36.1615376 82.6693715 72.1510622 61.7378177"></polygon>
                <polygon id="Path-22" fill="#A3DAE8" transform="translate(53.923553, 31.148462) rotate(-60.000000) translate(-53.923553, -31.148462) " points="35.9181457 0.0378182094 35.9394354 41.7602253 71.8416225 62.2591053 71.92896 20.8286715"></polygon>
                <polygon id="Path-22" fill="#5FA2B3" transform="translate(71.745992, 62.027741) rotate(-240.000000) translate(-71.745992, -62.027741) " points="71.4795634 41.1665373 36.0016073 61.6497448 71.5008531 82.8889444 107.490378 61.9573906"></polygon>
            </g>
            <g id="Group-17" transform="translate(72.000000, 61.500000)">
                <polygon id="Path-22" fill="#FFD07E" transform="translate(36.111579, 61.808168) rotate(-120.000000) translate(-36.111579, -61.808168) " points="36.140248 40.9469644 0.0720957754 61.8331225 36.1615376 82.6693715 72.1510622 61.7378177"></polygon>
                <polygon id="Path-22" fill="#FFE0A9" transform="translate(53.923553, 31.148462) rotate(-60.000000) translate(-53.923553, -31.148462) " points="35.9181457 0.0378182094 35.9394354 41.7602253 71.8416225 62.2591053 71.92896 20.8286715"></polygon>
                <polygon id="Path-22" fill="#E6BB70" transform="translate(71.745992, 62.027741) rotate(-240.000000) translate(-71.745992, -62.027741) " points="71.4795634 41.1665373 36.0016073 61.6497448 71.5008531 82.8889444 107.490378 61.9573906"></polygon>
            </g>
            <g id="Group-17" transform="translate(36.000000, 0.000000)">
                <polygon id="Path-22" fill="#F87373" transform="translate(36.111579, 61.808168) rotate(-120.000000) translate(-36.111579, -61.808168) " points="36.140248 40.9469644 0.0720957754 61.8331225 36.1615376 82.6693715 72.1510622 61.7378177"></polygon>
                <polygon id="Path-22" fill="#F49292" transform="translate(53.923553, 31.148462) rotate(-60.000000) translate(-53.923553, -31.148462) " points="35.9181457 0.0378182094 35.9394354 41.7602253 71.8416225 62.2591053 71.92896 20.8286715"></polygon>
                <polygon id="Path-22" fill="#D15D5D" transform="translate(71.745992, 62.027741) rotate(-240.000000) translate(-71.745992, -62.027741) " points="71.4795634 41.1665373 36.0016073 61.6497448 71.5008531 82.8889444 107.490378 61.9573906"></polygon>
            </g>
        </g>
    </g>
</svg>